SplineFontDB: 3.0
FontName: Strobrod-Bold
FullName: Strobrod Bold
FamilyName: Strobrod
Weight: Bold
Copyright: CC, Aaron Christianson, Nicolas Mercier
UComments: "2017-3-27: Created with FontForge (http://fontforge.org)"
Version: 001.000
StrokeWidth: 600
ItalicAngle: 0
UnderlinePosition: -1
UnderlineWidth: 0
Ascent: 8
Descent: 7
InvalidEm: 0
LayerCount: 2
Layer: 0 0 "Back" 1
Layer: 1 0 "Fore" 0
StrokedFont: 1
HasVMetrics: 1
XUID: [1021 68 1269985762 15680502]
StyleMap: 0x0020
FSType: 0
OS2Version: 0
OS2_WeightWidthSlopeOnly: 0
OS2_UseTypoMetrics: 1
CreationTime: 1490615230
ModificationTime: 1495891220
PfmFamily: 49
TTFWeight: 700
TTFWidth: 5
LineGap: -5
VLineGap: 0
Panose: 2 11 8 9 0 0 0 0 0 0
OS2TypoAscent: 8
OS2TypoAOffset: 0
OS2TypoDescent: -2
OS2TypoDOffset: 0
OS2TypoLinegap: 0
OS2WinAscent: 8
OS2WinAOffset: 0
OS2WinDescent: 2
OS2WinDOffset: 0
HheadAscent: 8
HheadAOffset: 0
HheadDescent: -2
HheadDOffset: 0
OS2Vendor: 'PfEd'
MacStyle: 1
MarkAttachClasses: 1
DEI: 91125
LangName: 1033
GaspTable: 2 0 1 65535 1 1
Encoding: iso8859-15
UnicodeInterp: none
NameList: AGL For New Fonts
DisplaySize: 10
AntiAlias: 1
FitToEm: 0
WinInfo: 0 61 21
BeginPrivate: 0
EndPrivate
TeXData: 1 0 0 628097 314049 209365 524288 1048576 209365 783286 444596 497025 792723 393216 433062 380633 303038 157286 324010 404750 52429 2506097 1059062 262144
BeginChars: 545 545

StartChar: exclam
Encoding: 33 33 1
Width: 6
VWidth: 0
Flags: W
HStem: 0 1<2.09 4.17> 6 0G<2.09 4.17>
VStem: 2 2<0 1.04 2.09 6.25>
LayerCount: 2
Back
Fore
SplineSet
2 1 m 25
 4 1 l 25
 4 0 l 25
 2 0 l 25
 2 1 l 25
2 6 m 25
 4 6 l 25
 4 2 l 25
 2 2 l 25
 2 6 l 25
EndSplineSet
EndChar

StartChar: quotedbl
Encoding: 34 34 2
Width: 6
VWidth: 0
Flags: W
HStem: 5 2<1.04 3.12 4.17 5.21>
VStem: 1 2<5.21 7.29> 4 1<5.21 7.29>
LayerCount: 2
Back
Fore
SplineSet
4 7 m 25
 5 7 l 25
 5 5 l 25
 4 5 l 25
 4 7 l 25
1 7 m 25
 3 7 l 25
 3 5 l 25
 1 5 l 25
 1 7 l 25
EndSplineSet
EndChar

StartChar: numbersign
Encoding: 35 35 3
Width: 6
VWidth: 0
Flags: W
HStem: 2 1<0 1.04 3.12 4.17 5.21 6.25> 4 1<0 1.04 3.12 4.17 5.21 6.25> 6 0G<1.04 3.12 4.17 5.21>
VStem: 1 2<1.04 2.09 3.12 4.17 5.21 6.25> 4 1<1.04 2.09 3.12 4.17 5.21 6.25>
LayerCount: 2
Back
Fore
SplineSet
3 4 m 25
 3 3 l 25
 4 3 l 25
 4 4 l 25
 3 4 l 25
1 6 m 25
 3 6 l 25
 3 5 l 25
 4 5 l 25
 4 6 l 25
 5 6 l 25
 5 5 l 25
 6 5 l 25
 6 4 l 25
 5 4 l 25
 5 3 l 25
 6 3 l 25
 6 2 l 25
 5 2 l 25
 5 1 l 25
 4 1 l 25
 4 2 l 25
 3 2 l 25
 3 1 l 25
 1 1 l 25
 1 2 l 25
 0 2 l 25
 0 3 l 25
 1 3 l 25
 1 4 l 25
 0 4 l 25
 0 5 l 25
 1 5 l 25
 1 6 l 25
EndSplineSet
EndChar

StartChar: dollar
Encoding: 36 36 4
Width: 6
VWidth: 0
Flags: W
HStem: -1 2<2.09 4.17> 0 1<1.04 2.09> 1 1<5.21 6.25> 2 1<2.09 4.17> 3 1<0 1.04> 4 2<2.09 4.17> 4 1<4.17 5.21>
VStem: 1 4<0 1.04 2.09 3.12 4.17 5.21> 2 2<-1.04 0 5.21 6.25>
LayerCount: 2
Back
Fore
SplineSet
1 5 m 25x03
 2 5 l 25x0280
 2 6 l 25
 4 6 l 25x0480
 4 5 l 25x0280
 5 5 l 25
 5 4 l 25x03
 2 4 l 25
 2 3 l 25x1480
 5 3 l 25
 5 2 l 25
 6 2 l 25
 6 1 l 25
 5 1 l 25x29
 5 0 l 25x41
 4 0 l 25x4080
 4 -1 l 25
 2 -1 l 25x8080
 2 0 l 25x4080
 1 0 l 25
 1 1 l 25x41
 4 1 l 25
 4 2 l 25x9080
 1 2 l 25x91
 1 3 l 25
 0 3 l 25
 0 4 l 25
 1 4 l 25x09
 1 5 l 25x03
EndSplineSet
EndChar

StartChar: percent
Encoding: 37 37 5
Width: 6
VWidth: 0
Flags: W
HStem: 1 1<4.17 5.21> 5 1<1.04 2.09>
VStem: 1 1<1.04 2.09 5.21 6.25> 4 1<1.04 2.09 5.21 6.25>
LayerCount: 2
Back
Fore
SplineSet
4 2 m 25
 5 2 l 25
 5 1 l 25
 4 1 l 25
 4 2 l 25
1 3 m 25
 2 3 l 25
 2 4 l 25
 3 4 l 25
 3 5 l 25
 4 5 l 25
 4 6 l 25
 5 6 l 25
 5 4 l 25
 4 4 l 25
 4 3 l 25
 3 3 l 25
 3 2 l 25
 2 2 l 25
 2 1 l 25
 1 1 l 25
 1 3 l 25
1 6 m 25
 2 6 l 25
 2 5 l 25
 1 5 l 25
 1 6 l 25
EndSplineSet
EndChar

StartChar: ampersand
Encoding: 38 38 6
Width: 6
VWidth: 0
Flags: W
HStem: 0 1<3.12 4.17 5.21 6.25> 1 2<1.04 2.09 4.17 5.21> 3 1<5.21 6.25> 6 1<4.17 5.21>
VStem: 1 2<1.04 3.12> 2 2<0 1.04 3.12 6.25> 4 1<1.04 3.12> 5 1<0 1.04 3.12 4.17>
LayerCount: 2
Back
Fore
SplineSet
3 7 m 25x58
 5 7 l 25
 5 6 l 25
 4 6 l 25
 4 3 l 25x55
 3 3 l 25
 3 1 l 25xb8
 4 1 l 25xb4
 4 3 l 25x54
 5 3 l 25x52
 5 4 l 25
 6 4 l 25
 6 3 l 25x31
 5 3 l 25x52
 5 1 l 25x92
 6 1 l 25
 6 0 l 25
 5 0 l 25x91
 5 1 l 25x92
 4 1 l 25
 4 0 l 25
 2 0 l 25x94
 2 1 l 25x54
 1 1 l 25
 1 3 l 25x58
 2 3 l 25
 2 6 l 25x54
 3 6 l 25
 3 7 l 25x58
EndSplineSet
EndChar

StartChar: quotesingle
Encoding: 39 39 7
Width: 6
VWidth: 0
Flags: W
HStem: 5 2<2.09 4.17>
VStem: 2 2<5.21 7.29>
LayerCount: 2
Back
Fore
SplineSet
2 7 m 25
 4 7 l 25
 4 5 l 25
 2 5 l 25
 2 7 l 25
EndSplineSet
EndChar

StartChar: parenleft
Encoding: 40 40 8
Width: 6
VWidth: 0
Flags: W
HStem: -1 1<3.12 4.17> 6 1<3.12 4.17>
VStem: 1 2<0 6.25> 2 2<-1.04 0 6.25 7.29>
LayerCount: 2
Back
Fore
SplineSet
2 7 m 25xd0
 4 7 l 25
 4 6 l 25xd0
 3 6 l 25
 3 0 l 25xe0
 4 0 l 25
 4 -1 l 25
 2 -1 l 25
 2 0 l 25xd0
 1 0 l 25
 1 6 l 25xe0
 2 6 l 25
 2 7 l 25xd0
EndSplineSet
EndChar

StartChar: parenright
Encoding: 41 41 9
Width: 6
VWidth: 0
Flags: W
HStem: -1 1<1.04 2.09> 6 1<1.04 2.09>
VStem: 1 2<-1.04 0 6.25 7.29> 2 2<0 6.25>
LayerCount: 2
Back
Fore
SplineSet
1 7 m 25xe0
 3 7 l 25
 3 6 l 25xe0
 4 6 l 25
 4 0 l 25xd0
 3 0 l 25
 3 -1 l 25
 1 -1 l 25
 1 0 l 25xe0
 2 0 l 25
 2 6 l 25xd0
 1 6 l 25
 1 7 l 25xe0
EndSplineSet
EndChar

StartChar: asterisk
Encoding: 42 42 10
Width: 6
VWidth: 0
Flags: W
HStem: 2 1<0 1.04 5.21 6.25> 4 1<0 1.04 5.21 6.25> 6 0G<2.09 4.17>
VStem: 2 2<1.04 2.09 5.21 6.25>
LayerCount: 2
Back
Fore
SplineSet
0 5 m 25
 2 5 l 25
 2 6 l 25
 4 6 l 25
 4 5 l 25
 6 5 l 25
 6 4 l 25
 5 4 l 25
 5 3 l 25
 6 3 l 25
 6 2 l 25
 4 2 l 25
 4 1 l 25
 2 1 l 25
 2 2 l 25
 0 2 l 25
 0 3 l 25
 1 3 l 25
 1 4 l 25
 0 4 l 25
 0 5 l 25
EndSplineSet
EndChar

StartChar: plus
Encoding: 43 43 11
Width: 6
VWidth: 0
Flags: W
HStem: 0 0G<2.09 4.17> 2 1<0 2.09 4.17 6.25> 5 0G<2.09 4.17>
VStem: 2 2<0 2.09 3.12 5.21>
LayerCount: 2
Back
Fore
SplineSet
2 5 m 25
 4 5 l 25
 4 3 l 25
 6 3 l 25
 6 2 l 25
 4 2 l 25
 4 0 l 25
 2 0 l 25
 2 2 l 25
 0 2 l 25
 0 3 l 25
 2 3 l 25
 2 5 l 25
EndSplineSet
EndChar

StartChar: comma
Encoding: 44 44 12
Width: 6
VWidth: 0
Flags: W
HStem: -1 1<1.04 2.09>
VStem: 2 2<0 2.09>
LayerCount: 2
Back
Fore
SplineSet
2 2 m 25
 4 2 l 25
 4 0 l 25
 3 0 l 25
 3 -1 l 25
 1 -1 l 25
 1 0 l 25
 2 0 l 25
 2 2 l 25
EndSplineSet
EndChar

StartChar: hyphen
Encoding: 45 45 13
Width: 6
VWidth: 0
Flags: W
HStem: 2 1<1.04 6.25>
LayerCount: 2
Back
Fore
SplineSet
1 3 m 25
 6 3 l 25
 6 2 l 25
 1 2 l 25
 1 3 l 25
EndSplineSet
EndChar

StartChar: period
Encoding: 46 46 14
Width: 6
VWidth: 0
Flags: W
HStem: 0 2<2.09 4.17>
VStem: 2 2<0 2.09>
LayerCount: 2
Back
Fore
SplineSet
2 2 m 25
 4 2 l 25
 4 0 l 25
 2 0 l 25
 2 2 l 25
EndSplineSet
EndChar

StartChar: slash
Encoding: 47 47 15
Width: 6
VWidth: 0
Flags: W
HStem: -1 0G<1.04 3.12> 7 0G<4.17 6.25>
VStem: 1 2<-1.04 1.04> 2 2<1.04 3.12> 3 2<3.12 5.21> 4 2<5.21 7.29>
LayerCount: 2
Back
Fore
SplineSet
1 1 m 25xe0
 2 1 l 25
 2 3 l 25xd0
 3 3 l 25
 3 5 l 25xc8
 4 5 l 25
 4 7 l 25
 6 7 l 25
 6 5 l 25xc4
 5 5 l 25
 5 3 l 25xc8
 4 3 l 25
 4 1 l 25xd0
 3 1 l 25
 3 -1 l 25
 1 -1 l 25
 1 1 l 25xe0
EndSplineSet
EndChar

StartChar: zero
Encoding: 48 48 16
Width: 6
VWidth: 0
Flags: W
HStem: 0 1<3.12 4.17> 3 1<3.12 4.17> 5 0G<4.17 5.21> 5 1<3.12 4.17>
VStem: 1 2<1.04 3.12 4.17 5.21> 2 2<0 1.04 5.21 6.25> 4 1<1.04 3.12 4.17 5.21>
LayerCount: 2
Back
Fore
SplineSet
1 5 m 25xd8
 2 5 l 25
 2 6 l 25
 4 6 l 25xd4
 4 5 l 25xe4
 3 5 l 25
 3 4 l 25
 4 4 l 25xda
 4 5 l 25xe4
 5 5 l 25
 5 1 l 25xe2
 4 1 l 25xe4
 4 3 l 25
 3 3 l 25
 3 1 l 25xea
 4 1 l 25
 4 0 l 25
 2 0 l 25
 2 1 l 25xe4
 1 1 l 25
 1 5 l 25xd8
EndSplineSet
EndChar

StartChar: one
Encoding: 49 49 17
Width: 6
VWidth: 0
Flags: W
HStem: 0 0G<2.09 4.17> 4 1<1.04 2.09> 6 0G<2.09 4.17>
VStem: 2 2<0 4.17 5.21 6.25>
LayerCount: 2
Back
Fore
SplineSet
1 5 m 25
 2 5 l 25
 2 6 l 25
 4 6 l 25
 4 0 l 25
 2 0 l 25
 2 4 l 25
 1 4 l 25
 1 5 l 25
EndSplineSet
EndChar

StartChar: two
Encoding: 50 50 18
Width: 6
VWidth: 0
Flags: W
HStem: 0 1<3.12 5.21> 4 1<1.04 2.09> 5 1<2.09 3.12>
VStem: 1 1<4.17 5.21> 2 2<2.09 3.12 5.21 6.25> 3 2<3.12 5.21>
LayerCount: 2
Back
Fore
SplineSet
1 5 m 25xd4
 2 5 l 25xd4
 2 6 l 25
 4 6 l 25
 4 5 l 25xa8
 5 5 l 25
 5 3 l 25xa4
 4 3 l 25
 4 2 l 25xa8
 3 2 l 25
 3 1 l 25
 5 1 l 25
 5 0 l 25
 1 0 l 25
 1 2 l 25xb4
 2 2 l 25
 2 3 l 25xa8
 3 3 l 25
 3 5 l 25xa4
 2 5 l 25
 2 4 l 25
 1 4 l 25
 1 5 l 25xd4
EndSplineSet
EndChar

StartChar: three
Encoding: 51 51 19
Width: 6
VWidth: 0
Flags: W
HStem: 0 1<1.04 3.12> 3 1<2.09 3.12> 5 1<1.04 3.12>
VStem: 3 2<1.04 3.12 4.17 5.21>
LayerCount: 2
Back
Fore
SplineSet
1 6 m 25
 5 6 l 25
 5 4 l 25
 4 4 l 25
 4 3 l 25
 5 3 l 25
 5 1 l 25
 4 1 l 25
 4 0 l 25
 1 0 l 25
 1 1 l 25
 3 1 l 25
 3 3 l 25
 2 3 l 25
 2 4 l 25
 3 4 l 25
 3 5 l 25
 1 5 l 25
 1 6 l 25
EndSplineSet
EndChar

StartChar: four
Encoding: 52 52 20
Width: 6
VWidth: 0
Flags: W
HStem: 0 0G<3.12 5.21> 1 1<2.09 3.12> 3 1<2.09 3.12> 6 0G<4.17 5.21>
VStem: 1 1<2.09 3.12> 3 2<0 1.04 2.09 3.12 4.17 5.21> 4 1<5.21 6.25>
LayerCount: 2
Back
Fore
SplineSet
4 6 m 25xfa
 5 6 l 25xfa
 5 0 l 25
 3 0 l 25
 3 1 l 25
 1 1 l 25
 1 3 l 25
 2 3 l 25
 2 2 l 25
 3 2 l 25
 3 3 l 25
 2 3 l 25
 2 4 l 25
 3 4 l 25
 3 5 l 25xfc
 4 5 l 25
 4 6 l 25xfa
EndSplineSet
EndChar

StartChar: five
Encoding: 53 53 21
Width: 6
VWidth: 0
Flags: W
HStem: 0 1<1.04 3.12> 3 3<1.04 3.12> 5 1<3.12 5.21>
VStem: 1 3<0 1.04 3.12 4.17> 3 2<1.04 3.12>
LayerCount: 2
Back
Fore
SplineSet
1 6 m 25xd0
 5 6 l 25
 5 5 l 25
 3 5 l 25
 3 4 l 25xa8
 4 4 l 25
 4 3 l 25xd0
 5 3 l 25
 5 1 l 25xc8
 4 1 l 25
 4 0 l 25
 1 0 l 25
 1 1 l 25xd0
 3 1 l 25
 3 3 l 25xc8
 1 3 l 25
 1 6 l 25xd0
EndSplineSet
EndChar

StartChar: six
Encoding: 54 54 22
Width: 6
VWidth: 0
Flags: W
HStem: 0 1<3.12 4.17> 3 1<3.12 4.17> 5 1<3.12 4.17>
VStem: 1 2<1.04 3.12 4.17 5.21> 2 2<0 1.04 5.21 6.25> 4 1<1.04 3.12>
LayerCount: 2
Back
Fore
SplineSet
2 6 m 25xe8
 4 6 l 25
 4 5 l 25xe8
 3 5 l 25
 3 4 l 25
 4 4 l 25
 4 3 l 25
 3 3 l 25
 3 1 l 25xf4
 4 1 l 25xe8
 4 3 l 25
 5 3 l 25
 5 1 l 25xe4
 4 1 l 25
 4 0 l 25
 2 0 l 25
 2 1 l 25xe8
 1 1 l 25
 1 5 l 25xf0
 2 5 l 25
 2 6 l 25xe8
EndSplineSet
EndChar

StartChar: seven
Encoding: 55 55 23
Width: 6
VWidth: 0
Flags: W
HStem: 0 0G<1.04 3.12> 5 1<1.04 3.12>
VStem: 1 2<0 2.09> 3 2<3.12 5.21>
LayerCount: 2
Back
Fore
SplineSet
1 6 m 25xe0
 5 6 l 25
 5 3 l 25xd0
 4 3 l 25
 4 2 l 25
 3 2 l 25
 3 0 l 25
 1 0 l 25
 1 2 l 25xe0
 2 2 l 25
 2 3 l 25
 3 3 l 25
 3 5 l 25xd0
 1 5 l 25
 1 6 l 25xe0
EndSplineSet
EndChar

StartChar: eight
Encoding: 56 56 24
Width: 6
VWidth: 0
Flags: W
HStem: 0 1<3.12 4.17> 1 2<1.04 2.09 4.17 5.21> 3 1<3.12 4.17> 4 1<1.04 2.09 4.17 5.21> 5 1<3.12 4.17>
VStem: 1 2<1.04 3.12 4.17 5.21> 2 2<0 1.04 3.12 4.17 5.21 6.25> 4 1<1.04 3.12 4.17 5.21>
LayerCount: 2
Back
Fore
SplineSet
2 6 m 25x0a
 4 6 l 25x0a
 4 5 l 25x12
 3 5 l 25
 3 4 l 25x2c
 4 4 l 25x2a
 4 5 l 25x12
 5 5 l 25
 5 4 l 25x11
 4 4 l 25x22
 4 3 l 25x42
 3 3 l 25
 3 1 l 25xa4
 4 1 l 25xa2
 4 3 l 25x42
 5 3 l 25
 5 1 l 25x41
 4 1 l 25
 4 0 l 25
 2 0 l 25x82
 2 1 l 25x42
 1 1 l 25
 1 3 l 25x44
 2 3 l 25
 2 4 l 25x52
 1 4 l 25
 1 5 l 25x54
 2 5 l 25x52
 2 6 l 25x0a
EndSplineSet
EndChar

StartChar: nine
Encoding: 57 57 25
Width: 6
VWidth: 0
Flags: W
HStem: 0 1<2.09 3.12> 2 1<2.09 3.12> 5 1<2.09 3.12>
VStem: 1 1<3.12 5.21> 2 2<0 1.04 5.21 6.25> 3 2<1.04 2.09 3.12 5.21>
LayerCount: 2
Back
Fore
SplineSet
2 6 m 25xe8
 4 6 l 25
 4 5 l 25xe8
 5 5 l 25
 5 1 l 25xe4
 4 1 l 25
 4 0 l 25
 2 0 l 25
 2 1 l 25xe8
 3 1 l 25
 3 2 l 25xe4
 2 2 l 25xe8
 2 3 l 25
 3 3 l 25
 3 5 l 25
 2 5 l 25
 2 3 l 25
 1 3 l 25
 1 5 l 25
 2 5 l 25xf4
 2 6 l 25xe8
EndSplineSet
EndChar

StartChar: colon
Encoding: 58 58 26
Width: 6
VWidth: 0
Flags: W
HStem: 1 1<2.09 4.17> 3 1<2.09 4.17>
VStem: 2 2<1.04 2.09 3.12 4.17>
LayerCount: 2
Back
Fore
SplineSet
2 2 m 25
 4 2 l 25
 4 1 l 25
 2 1 l 25
 2 2 l 25
2 4 m 25
 4 4 l 25
 4 3 l 25
 2 3 l 25
 2 4 l 25
EndSplineSet
EndChar

StartChar: semicolon
Encoding: 59 59 27
Width: 6
VWidth: 0
Flags: W
HStem: -1 1<1.04 2.09> 3 1<2.09 4.17>
VStem: 2 2<0 2.09 3.12 4.17>
LayerCount: 2
Back
Fore
SplineSet
2 2 m 25
 4 2 l 25
 4 0 l 25
 3 0 l 25
 3 -1 l 25
 1 -1 l 25
 1 0 l 25
 2 0 l 25
 2 2 l 25
2 4 m 25
 4 4 l 25
 4 3 l 25
 2 3 l 25
 2 4 l 25
EndSplineSet
EndChar

StartChar: less
Encoding: 60 60 28
Width: 6
VWidth: 0
Flags: W
HStem: 0 1<4.17 5.21> 2 1<1.04 2.09> 4 1<4.17 5.21>
VStem: 2 2<1.04 2.09 3.12 4.17> 3 2<0 1.04 4.17 5.21>
CounterMasks: 1 e0
LayerCount: 2
Back
Fore
SplineSet
1 3 m 25xf0
 2 3 l 25
 2 4 l 25xf0
 3 4 l 25
 3 5 l 25
 5 5 l 25
 5 4 l 25xe8
 4 4 l 25
 4 3 l 25xf0
 3 3 l 25
 3 2 l 25xe8
 4 2 l 25
 4 1 l 25xf0
 5 1 l 25
 5 0 l 25
 3 0 l 25
 3 1 l 25xe8
 2 1 l 25
 2 2 l 25
 1 2 l 25
 1 3 l 25xf0
EndSplineSet
EndChar

StartChar: equal
Encoding: 61 61 29
Width: 6
VWidth: 0
Flags: W
HStem: 1 1<1.04 5.21> 3 1<1.04 5.21>
LayerCount: 2
Back
Fore
SplineSet
1 2 m 25
 5 2 l 25
 5 1 l 25
 1 1 l 25
 1 2 l 25
1 4 m 25
 5 4 l 25
 5 3 l 25
 1 3 l 25
 1 4 l 25
EndSplineSet
EndChar

StartChar: greater
Encoding: 62 62 30
Width: 6
VWidth: 0
Flags: W
HStem: 0 1<1.04 2.09> 2 1<4.17 5.21> 4 1<1.04 2.09>
VStem: 1 2<0 1.04 4.17 5.21> 2 2<1.04 2.09 3.12 4.17>
CounterMasks: 1 e0
LayerCount: 2
Back
Fore
SplineSet
1 5 m 25xf0
 3 5 l 25
 3 4 l 25xf0
 4 4 l 25
 4 3 l 25
 5 3 l 25
 5 2 l 25
 4 2 l 25
 4 1 l 25xe8
 3 1 l 25
 3 0 l 25
 1 0 l 25
 1 1 l 25xf0
 2 1 l 25
 2 2 l 25xe8
 3 2 l 25
 3 3 l 25xf0
 2 3 l 25
 2 4 l 25xe8
 1 4 l 25
 1 5 l 25xf0
EndSplineSet
EndChar

StartChar: question
Encoding: 63 63 31
Width: 6
VWidth: 0
Flags: W
HStem: -1 1<2.09 4.17> 4 1<0 1.04> 5 1<1.04 3.12>
VStem: 0 1<4.17 5.21> 2 2<-1.04 0 1.04 3.12> 3 2<3.12 5.21>
LayerCount: 2
Back
Fore
SplineSet
2 0 m 25x98
 4 0 l 25
 4 -1 l 25
 2 -1 l 25
 2 0 l 25x98
0 4 m 25xd4
 0 5 l 25
 1 5 l 25xd4
 1 6 l 25
 4 6 l 25
 4 5 l 25xb8
 5 5 l 25
 5 3 l 25xb4
 4 3 l 25
 4 1 l 25
 2 1 l 25
 2 3 l 25xb8
 3 3 l 25
 3 5 l 25xb4
 1 5 l 25
 1 4 l 25
 0 4 l 25xd4
EndSplineSet
EndChar

StartChar: at
Encoding: 64 64 32
Width: 6
VWidth: 0
Flags: W
HStem: -1 1<3.12 4.17> 1 1<3.12 4.17> 4 1<3.12 4.17> 6 0G<4.17 5.21> 6 1<3.12 4.17>
VStem: 1 2<0 1.04 2.09 4.17 5.21 6.25> 2 2<-1.04 0 6.25 7.29> 4 1<2.09 4.17 5.21 6.25>
LayerCount: 2
Back
Fore
SplineSet
3 4 m 25xe5
 3 2 l 25
 4 2 l 25
 4 4 l 25
 3 4 l 25xe5
1 6 m 25xec
 2 6 l 25
 2 7 l 25
 4 7 l 25xea
 4 6 l 25xf2
 3 6 l 25
 3 5 l 25
 4 5 l 25xed
 4 6 l 25xf2
 5 6 l 25
 5 1 l 25
 3 1 l 25
 3 0 l 25xf5
 4 0 l 25
 4 -1 l 25
 2 -1 l 25
 2 0 l 25xf2
 1 0 l 25
 1 6 l 25xec
EndSplineSet
EndChar

StartChar: A
Encoding: 65 65 33
Width: 6
VWidth: 0
Flags: W
HStem: 0 0G<1.04 3.12 4.17 5.21> 2 1<3.12 4.17> 5 0G<4.17 5.21> 5 1<3.12 4.17>
VStem: 1 2<0 2.09 3.12 5.21> 4 1<0 2.09 3.12 5.21>
LayerCount: 2
Back
Fore
SplineSet
1 5 m 25xdc
 2 5 l 25
 2 6 l 25
 4 6 l 25xdc
 4 5 l 25xec
 3 5 l 25xdc
 3 3 l 25
 4 3 l 25
 4 5 l 25
 5 5 l 25xec
 5 0 l 25
 4 0 l 25
 4 2 l 25
 3 2 l 25
 3 0 l 25
 1 0 l 25
 1 5 l 25xdc
EndSplineSet
EndChar

StartChar: B
Encoding: 66 66 34
Width: 6
VWidth: 0
Flags: W
HStem: 0 1<3.12 4.17> 3 1<3.12 4.17> 4 1<4.17 5.21> 5 1<3.12 4.17>
VStem: 1 3<0 1.04 3.12 4.17 5.21 6.25> 1 2<1.04 3.12 4.17 5.21> 4 1<1.04 3.12 4.17 5.21>
LayerCount: 2
Back
Fore
SplineSet
1 6 m 25xd8
 4 6 l 25xd8
 4 5 l 25xa8
 3 5 l 25
 3 4 l 25xd4
 4 4 l 25xd8
 4 5 l 25xa8
 5 5 l 25
 5 4 l 25xa2
 4 4 l 25
 4 3 l 25xc8
 3 3 l 25
 3 1 l 25xc4
 4 1 l 25
 4 3 l 25xc8
 5 3 l 25
 5 1 l 25xc2
 4 1 l 25
 4 0 l 25
 1 0 l 25
 1 6 l 25xd8
EndSplineSet
EndChar

StartChar: C
Encoding: 67 67 35
Width: 6
VWidth: 0
Flags: W
HStem: 0 1<3.12 5.21> 5 1<3.12 5.21>
VStem: 1 2<1.04 5.21> 2 3<0 1.04 5.21 6.25>
LayerCount: 2
Back
Fore
SplineSet
2 6 m 25xd0
 5 6 l 25
 5 5 l 25xd0
 3 5 l 25
 3 1 l 25xe0
 5 1 l 25
 5 0 l 25
 2 0 l 25
 2 1 l 25xd0
 1 1 l 25
 1 5 l 25xe0
 2 5 l 25
 2 6 l 25xd0
EndSplineSet
EndChar

StartChar: D
Encoding: 68 68 36
Width: 6
VWidth: 0
Flags: W
HStem: 0 1<3.12 4.17> 5 0G<4.17 5.21> 5 1<3.12 4.17>
VStem: 1 3<0 1.04 5.21 6.25> 1 2<1.04 5.21> 4 1<1.04 5.21>
LayerCount: 2
Back
Fore
SplineSet
1 6 m 25xb0
 4 6 l 25xb0
 4 5 l 25xd0
 3 5 l 25
 3 1 l 25xa8
 4 1 l 25
 4 5 l 25xd0
 5 5 l 25
 5 1 l 25xc4
 4 1 l 25
 4 0 l 25
 1 0 l 25
 1 6 l 25xb0
EndSplineSet
EndChar

StartChar: E
Encoding: 69 69 37
Width: 6
VWidth: 0
Flags: W
HStem: 0 1<3.12 5.21> 3 1<3.12 4.17> 5 1<3.12 5.21>
VStem: 1 2<1.04 3.12 4.17 5.21>
LayerCount: 2
Back
Fore
SplineSet
1 6 m 25
 5 6 l 25
 5 5 l 25
 3 5 l 25
 3 4 l 25
 4 4 l 25
 4 3 l 25
 3 3 l 25
 3 1 l 25
 5 1 l 25
 5 0 l 25
 1 0 l 25
 1 6 l 25
EndSplineSet
EndChar

StartChar: F
Encoding: 70 70 38
Width: 6
VWidth: 0
Flags: W
HStem: 0 0G<1.04 3.12> 3 1<3.12 4.17> 5 1<3.12 5.21>
VStem: 1 2<0 3.12 4.17 5.21>
LayerCount: 2
Back
Fore
SplineSet
1 6 m 25
 5 6 l 25
 5 5 l 25
 3 5 l 25
 3 4 l 25
 4 4 l 25
 4 3 l 25
 3 3 l 25
 3 0 l 25
 1 0 l 25
 1 6 l 25
EndSplineSet
EndChar

StartChar: G
Encoding: 71 71 39
Width: 6
VWidth: 0
Flags: W
HStem: 0 1<3.12 4.17> 5 1<3.12 5.21>
VStem: 1 2<1.04 5.21> 2 3<0 1.04 5.21 6.25> 4 1<1.04 3.12>
LayerCount: 2
Back
Fore
SplineSet
2 6 m 25xd0
 5 6 l 25
 5 5 l 25xd0
 3 5 l 25
 3 1 l 25
 4 1 l 25
 4 3 l 25
 5 3 l 25xe8
 5 0 l 25
 2 0 l 25
 2 1 l 25xd0
 1 1 l 25
 1 5 l 25xe0
 2 5 l 25
 2 6 l 25xd0
EndSplineSet
EndChar

StartChar: H
Encoding: 72 72 40
Width: 6
VWidth: 0
Flags: W
HStem: 0 0G<1.04 3.12 4.17 5.21> 2 1<3.12 4.17> 6 0G<1.04 3.12 4.17 5.21>
VStem: 1 2<0 2.09 3.12 6.25> 4 1<0 2.09 3.12 6.25>
LayerCount: 2
Back
Fore
SplineSet
1 6 m 25
 3 6 l 25
 3 3 l 25
 4 3 l 25
 4 6 l 25
 5 6 l 25
 5 0 l 25
 4 0 l 25
 4 2 l 25
 3 2 l 25
 3 0 l 25
 1 0 l 25
 1 6 l 25
EndSplineSet
EndChar

StartChar: I
Encoding: 73 73 41
Width: 6
VWidth: 0
Flags: W
HStem: 0 0G<2.09 4.17> 6 0G<2.09 4.17>
VStem: 2 2<0 6.25>
LayerCount: 2
Back
Fore
SplineSet
2 6 m 25
 4 6 l 25
 4 0 l 25
 2 0 l 25
 2 6 l 25
EndSplineSet
EndChar

StartChar: J
Encoding: 74 74 42
Width: 6
VWidth: 0
Flags: W
HStem: 0 1<1.04 3.12> 6 0G<3.12 5.21>
VStem: 3 2<1.04 6.25>
LayerCount: 2
Back
Fore
SplineSet
3 6 m 25
 5 6 l 25
 5 1 l 25
 4 1 l 25
 4 0 l 25
 1 0 l 25
 1 1 l 25
 3 1 l 25
 3 6 l 25
EndSplineSet
EndChar

StartChar: K
Encoding: 75 75 43
Width: 6
VWidth: 0
Flags: W
HStem: 0 1<5.21 6.25> 1 1<4.17 5.21> 4 1<4.17 5.21> 5 1<5.21 6.25>
VStem: 1 3<2.09 4.17> 1 2<0 2.09 4.17 6.25> 4 1<1.04 2.09 4.17 5.21> 5 1<0 1.04 5.21 6.25>
LayerCount: 2
Back
Fore
SplineSet
1 6 m 25x94
 3 6 l 25x94
 3 4 l 25x24
 4 4 l 25x28
 4 5 l 25
 5 5 l 25x22
 5 6 l 25
 6 6 l 25
 6 5 l 25x11
 5 5 l 25
 5 4 l 25x22
 4 4 l 25
 4 2 l 25x68
 5 2 l 25x62
 5 1 l 25x82
 6 1 l 25
 6 0 l 25
 5 0 l 25x81
 5 1 l 25x82
 4 1 l 25x42
 4 2 l 25x48
 3 2 l 25x44
 3 0 l 25
 1 0 l 25
 1 6 l 25x94
EndSplineSet
EndChar

StartChar: L
Encoding: 76 76 44
Width: 6
VWidth: 0
Flags: W
HStem: 0 1<3.12 5.21> 6 0G<1.04 3.12>
VStem: 1 2<1.04 6.25>
LayerCount: 2
Back
Fore
SplineSet
1 6 m 25
 3 6 l 25
 3 1 l 25
 5 1 l 25
 5 0 l 25
 1 0 l 25
 1 6 l 25
EndSplineSet
EndChar

StartChar: M
Encoding: 77 77 45
Width: 6
VWidth: 0
Flags: W
HStem: 0 0G<0 2.09 5.21 6.25> 5 1<2.09 3.12 4.17 5.21>
VStem: 0 2<0 5.21> 3 1<3.12 5.21> 5 1<0 5.21>
LayerCount: 2
Back
Fore
SplineSet
0 6 m 25
 3 6 l 25
 3 5 l 25
 4 5 l 25
 4 6 l 25
 6 6 l 25
 6 0 l 25
 5 0 l 25
 5 5 l 25
 4 5 l 25
 4 3 l 25
 3 3 l 25
 3 5 l 25
 2 5 l 25
 2 0 l 25
 0 0 l 25
 0 6 l 25
EndSplineSet
EndChar

StartChar: N
Encoding: 78 78 46
Width: 6
VWidth: 0
Flags: W
HStem: 0 0G<1.04 3.12 5.21 6.25> 2 1<4.17 5.21> 3 1<3.12 4.17> 6 0G<1.04 3.12 5.21 6.25>
VStem: 1 2<0 3.12 4.17 6.25> 5 1<0 2.09 3.12 6.25>
LayerCount: 2
Back
Fore
SplineSet
1 6 m 25xbc
 3 6 l 25
 3 4 l 25
 4 4 l 25xbc
 4 3 l 25
 5 3 l 25
 5 6 l 25
 6 6 l 25
 6 0 l 25
 5 0 l 25
 5 2 l 25
 4 2 l 25
 4 3 l 25xdc
 3 3 l 25
 3 0 l 25
 1 0 l 25
 1 6 l 25xbc
EndSplineSet
EndChar

StartChar: O
Encoding: 79 79 47
Width: 6
VWidth: 0
Flags: W
HStem: 0 1<3.12 4.17> 5 0G<4.17 5.21> 5 1<3.12 4.17>
VStem: 1 2<1.04 5.21> 2 2<0 1.04 5.21 6.25> 4 1<1.04 5.21>
LayerCount: 2
Back
Fore
SplineSet
1 5 m 25xb0
 2 5 l 25
 2 6 l 25
 4 6 l 25xa8
 4 5 l 25xc8
 3 5 l 25
 3 1 l 25xb0
 4 1 l 25
 4 5 l 25xc8
 5 5 l 25
 5 1 l 25xc4
 4 1 l 25
 4 0 l 25
 2 0 l 25
 2 1 l 25xc8
 1 1 l 25
 1 5 l 25xb0
EndSplineSet
EndChar

StartChar: P
Encoding: 80 80 48
Width: 6
VWidth: 0
Flags: W
HStem: 0 0G<1.04 3.12> 2 1<3.12 4.17> 5 0G<4.17 5.21> 5 1<3.12 4.17>
VStem: 1 3<2.09 3.12 5.21 6.25> 1 2<0 2.09 3.12 5.21> 4 1<3.12 5.21>
LayerCount: 2
Back
Fore
SplineSet
1 6 m 25xd8
 4 6 l 25xd8
 4 5 l 25xe8
 3 5 l 25
 3 3 l 25xd4
 4 3 l 25
 4 5 l 25xe8
 5 5 l 25
 5 3 l 25xe2
 4 3 l 25
 4 2 l 25xe8
 3 2 l 25
 3 0 l 25
 1 0 l 25xe4
 1 6 l 25xd8
EndSplineSet
EndChar

StartChar: Q
Encoding: 81 81 49
Width: 6
VWidth: 0
Flags: W
HStem: -1 1<4.17 5.21> 5 0G<4.17 5.21> 5 1<3.12 4.17>
VStem: 1 2<1.04 5.21> 2 2<0 1.04 5.21 6.25> 4 1<1.04 5.21>
LayerCount: 2
Back
Fore
SplineSet
1 5 m 25xb0
 2 5 l 25
 2 6 l 25
 4 6 l 25xa8
 4 5 l 25xc8
 3 5 l 25
 3 1 l 25xb0
 4 1 l 25
 4 5 l 25xc8
 5 5 l 25
 5 1 l 25xc4
 4 1 l 25
 4 0 l 25xc8
 5 0 l 25
 5 -1 l 25
 3 -1 l 25
 3 0 l 25xd4
 2 0 l 25
 2 1 l 25xc8
 1 1 l 25
 1 5 l 25xb0
EndSplineSet
EndChar

StartChar: R
Encoding: 82 82 50
Width: 6
VWidth: 0
Flags: W
HStem: 0 1<4.17 5.21> 5 0G<4.17 5.21> 5 1<3.12 4.17>
VStem: 1 3<1.04 3.12 5.21 6.25> 1 2<0 1.04 3.12 5.21> 4 1<0 1.04 3.12 5.21>
LayerCount: 2
Back
Fore
SplineSet
1 6 m 25xb0
 4 6 l 25xb0
 4 5 l 25xd0
 3 5 l 25
 3 3 l 25xa8
 4 3 l 25
 4 5 l 25xd0
 5 5 l 25
 5 3 l 25xc4
 4 3 l 25
 4 1 l 25xd0
 5 1 l 25
 5 0 l 25
 4 0 l 25xc4
 4 1 l 25xd0
 3 1 l 25
 3 0 l 25
 1 0 l 25xc8
 1 6 l 25xb0
EndSplineSet
EndChar

StartChar: S
Encoding: 83 83 51
Width: 6
VWidth: 0
Flags: W
HStem: 0 1<1.04 3.12> 4 1<1.04 2.09> 5 1<3.12 5.21>
VStem: 3 2<1.04 3.12>
LayerCount: 2
Back
Fore
SplineSet
1 5 m 25xd0
 2 5 l 25xd0
 2 6 l 25
 5 6 l 25
 5 5 l 25
 3 5 l 25xb0
 3 4 l 25
 4 4 l 25
 4 3 l 25
 5 3 l 25
 5 1 l 25
 4 1 l 25
 4 0 l 25
 1 0 l 25
 1 1 l 25
 3 1 l 25
 3 3 l 25
 2 3 l 25
 2 4 l 25
 1 4 l 25
 1 5 l 25xd0
EndSplineSet
EndChar

StartChar: T
Encoding: 84 84 52
Width: 6
VWidth: 0
Flags: W
HStem: 0 0G<2.09 4.17> 5 1<0 2.09 4.17 6.25>
VStem: 2 2<0 5.21>
LayerCount: 2
Back
Fore
SplineSet
0 6 m 25
 6 6 l 25
 6 5 l 25
 4 5 l 25
 4 0 l 25
 2 0 l 25
 2 5 l 25
 0 5 l 25
 0 6 l 25
EndSplineSet
EndChar

StartChar: U
Encoding: 85 85 53
Width: 6
VWidth: 0
Flags: W
HStem: 0 1<3.12 4.17> 6 0G<1.04 3.12 4.17 5.21>
VStem: 1 2<1.04 6.25> 4 1<1.04 6.25>
LayerCount: 2
Back
Fore
SplineSet
1 6 m 25
 3 6 l 25
 3 1 l 25
 4 1 l 25
 4 6 l 25
 5 6 l 25
 5 0 l 25
 2 0 l 25
 2 1 l 25
 1 1 l 25
 1 6 l 25
EndSplineSet
EndChar

StartChar: V
Encoding: 86 86 54
Width: 6
VWidth: 0
Flags: W
HStem: 0 0G<1.04 3.12> 1 1<3.12 4.17> 6 0G<0 2.09 4.17 5.21>
VStem: 0 2<2.09 6.25> 4 1<2.09 6.25>
LayerCount: 2
Back
Fore
SplineSet
0 6 m 25
 2 6 l 25
 2 2 l 25
 4 2 l 25
 4 6 l 25
 5 6 l 25
 5 2 l 25
 4 2 l 25
 4 1 l 25
 3 1 l 25
 3 0 l 25
 1 0 l 25
 1 2 l 25
 0 2 l 25
 0 6 l 25
EndSplineSet
EndChar

StartChar: W
Encoding: 87 87 55
Width: 6
VWidth: 0
Flags: W
HStem: 0 1<2.09 3.12 4.17 5.21> 6 0G<0 2.09 5.21 6.25>
VStem: 0 2<1.04 6.25> 3 1<1.04 3.12> 5 1<1.04 6.25>
LayerCount: 2
Back
Fore
SplineSet
0 6 m 25
 2 6 l 25
 2 1 l 25
 3 1 l 25
 3 3 l 25
 4 3 l 25
 4 1 l 25
 5 1 l 25
 5 6 l 25
 6 6 l 25
 6 1 l 25
 5 1 l 25
 5 0 l 25
 1 0 l 25
 1 1 l 25
 0 1 l 25
 0 6 l 25
EndSplineSet
EndChar

StartChar: X
Encoding: 88 88 56
Width: 6
VWidth: 0
Flags: W
HStem: 0 2<0 1.04 4.17 5.21> 4 2<0 1.04 4.17 5.21>
VStem: 0 2<4.17 6.25> 0 1<0 2.09> 3 2<0 2.09> 4 1<4.17 6.25>
LayerCount: 2
Back
Fore
SplineSet
0 6 m 25xe0
 2 6 l 25
 2 4 l 25
 4 4 l 25
 4 6 l 25
 5 6 l 25
 5 4 l 25
 4 4 l 25
 4 2 l 25xe4
 5 2 l 25
 5 0 l 25
 3 0 l 25
 3 2 l 25
 1 2 l 25
 1 0 l 25
 0 0 l 25
 0 2 l 25
 1 2 l 25
 1 4 l 25xd8
 0 4 l 25
 0 6 l 25xe0
EndSplineSet
EndChar

StartChar: Y
Encoding: 89 89 57
Width: 6
VWidth: 0
Flags: W
HStem: 0 0G<2.09 4.17> 3 1<4.17 5.21> 4 2<0 1.04 5.21 6.25>
VStem: 0 2<4.17 6.25> 4 1<3.12 4.17> 5 1<4.17 6.25>
LayerCount: 2
Back
Fore
SplineSet
0 6 m 25xb8
 2 6 l 25
 2 4 l 25
 3 4 l 25xb8
 3 3 l 25
 4 3 l 25
 4 4 l 25
 5 4 l 25xd8
 5 6 l 25
 6 6 l 25
 6 4 l 25xb4
 5 4 l 25
 5 3 l 25
 4 3 l 25
 4 0 l 25
 2 0 l 25
 2 3 l 25
 1 3 l 25xd8
 1 4 l 25
 0 4 l 25
 0 6 l 25xb8
EndSplineSet
EndChar

StartChar: Z
Encoding: 90 90 58
Width: 6
VWidth: 0
Flags: W
HStem: 0 1<3.12 5.21> 5 1<1.04 3.12>
VStem: 1 2<1.04 3.12>
LayerCount: 2
Back
Fore
SplineSet
1 6 m 25
 5 6 l 25
 5 4 l 25
 4 4 l 25
 4 3 l 25
 3 3 l 25
 3 1 l 25
 5 1 l 25
 5 0 l 25
 1 0 l 25
 1 3 l 25
 2 3 l 25
 2 4 l 25
 3 4 l 25
 3 5 l 25
 1 5 l 25
 1 6 l 25
EndSplineSet
EndChar

StartChar: bracketleft
Encoding: 91 91 59
Width: 6
VWidth: 0
Flags: W
HStem: 0 1<3.12 4.17> 6 1<3.12 4.17>
VStem: 1 3<0 1.04 6.25 7.29> 1 2<1.04 6.25>
LayerCount: 2
Back
Fore
SplineSet
1 7 m 25xe0
 4 7 l 25
 4 6 l 25xe0
 3 6 l 25
 3 1 l 25xd0
 4 1 l 25
 4 0 l 25
 1 0 l 25
 1 7 l 25xe0
EndSplineSet
EndChar

StartChar: backslash
Encoding: 92 92 60
Width: 6
VWidth: 0
Flags: W
HStem: -1 0G<4.17 6.25> 7 0G<1.04 3.12>
VStem: 1 2<5.21 7.29> 2 2<3.12 5.21> 3 2<1.04 3.12> 4 2<-1.04 1.04>
LayerCount: 2
Back
Fore
SplineSet
1 7 m 25xe0
 3 7 l 25
 3 5 l 25xe0
 4 5 l 25
 4 3 l 25xd0
 5 3 l 25
 5 1 l 25xc8
 6 1 l 25
 6 -1 l 25
 4 -1 l 25
 4 1 l 25xc4
 3 1 l 25
 3 3 l 25xc8
 2 3 l 25
 2 5 l 25xd0
 1 5 l 25
 1 7 l 25xe0
EndSplineSet
EndChar

StartChar: bracketright
Encoding: 93 93 61
Width: 6
VWidth: 0
Flags: W
HStem: 0 1<2.09 3.12> 6 1<2.09 3.12>
VStem: 2 3<0 1.04 6.25 7.29> 3 2<1.04 6.25>
LayerCount: 2
Back
Fore
SplineSet
2 7 m 25xe0
 5 7 l 25
 5 0 l 25
 2 0 l 25
 2 1 l 25xe0
 3 1 l 25
 3 6 l 25xd0
 2 6 l 25
 2 7 l 25xe0
EndSplineSet
EndChar

StartChar: asciicircum
Encoding: 94 94 62
Width: 6
VWidth: 0
Flags: W
HStem: 4 1<0 1.04 5.21 6.25> 5 1<4.17 5.21> 6 1<3.12 4.17>
VStem: 4 1<5.21 6.25> 5 1<4.17 5.21>
LayerCount: 2
Back
Fore
SplineSet
2 7 m 25xb0
 4 7 l 25xb0
 4 6 l 25
 5 6 l 25x50
 5 5 l 25x90
 6 5 l 25
 6 4 l 25
 5 4 l 25x88
 5 5 l 25x90
 4 5 l 25
 4 6 l 25x50
 3 6 l 25x30
 3 5 l 25
 2 5 l 25x50
 2 4 l 25
 0 4 l 25
 0 5 l 25
 1 5 l 25
 1 6 l 25
 2 6 l 25
 2 7 l 25xb0
EndSplineSet
EndChar

StartChar: underscore
Encoding: 95 95 63
Width: 6
VWidth: 0
Flags: W
HStem: -1 1<1.04 6.25>
LayerCount: 2
Back
Fore
SplineSet
1 0 m 25
 6 0 l 25
 6 -1 l 25
 1 -1 l 25
 1 0 l 25
EndSplineSet
EndChar

StartChar: grave
Encoding: 96 96 64
Width: 6
VWidth: 0
Flags: W
HStem: 4 1<3.12 4.17> 7 0G<1.04 3.12>
VStem: 1 2<5.21 7.29>
LayerCount: 2
Back
Fore
SplineSet
1 7 m 25
 3 7 l 25
 3 5 l 25
 4 5 l 25
 4 4 l 25
 2 4 l 25
 2 5 l 25
 1 5 l 25
 1 7 l 25
EndSplineSet
EndChar

StartChar: a
Encoding: 97 97 65
Width: 6
VWidth: 0
Flags: W
HStem: 0 1<2.09 3.12 5.21 6.25> 4 1<2.09 3.12>
VStem: 1 1<1.04 4.17> 3 2<1.04 4.17> 5 1<0 1.04>
LayerCount: 2
Back
Fore
SplineSet
2 5 m 25xf0
 5 5 l 25xe8
 5 1 l 25xf0
 6 1 l 25
 6 0 l 25
 5 0 l 25xe8
 5 1 l 25
 4 1 l 25
 4 0 l 25
 2 0 l 25
 2 1 l 25
 3 1 l 25
 3 4 l 25
 2 4 l 25
 2 1 l 25
 1 1 l 25
 1 4 l 25
 2 4 l 25
 2 5 l 25xf0
EndSplineSet
EndChar

StartChar: b
Encoding: 98 98 66
Width: 6
VWidth: 0
Flags: W
HStem: 0 1<3.12 4.17> 4 1<3.12 4.17> 7 0G<1.04 3.12>
VStem: 1 3<0 1.04 4.17 5.21> 1 2<1.04 4.17 5.21 7.29> 4 1<1.04 4.17>
LayerCount: 2
Back
Fore
SplineSet
1 7 m 25xe8
 3 7 l 25
 3 5 l 25xe8
 4 5 l 25
 4 4 l 25xf0
 3 4 l 25
 3 1 l 25xe8
 4 1 l 25
 4 4 l 25xf0
 5 4 l 25
 5 1 l 25xe4
 4 1 l 25
 4 0 l 25
 1 0 l 25xf0
 1 7 l 25xe8
EndSplineSet
EndChar

StartChar: c
Encoding: 99 99 67
Width: 6
VWidth: 0
Flags: W
HStem: 0 1<3.12 5.21> 4 1<3.12 5.21>
VStem: 1 2<1.04 4.17> 2 3<0 1.04 4.17 5.21>
LayerCount: 2
Back
Fore
SplineSet
1 4 m 25xe0
 2 4 l 25
 2 5 l 25
 5 5 l 25
 5 4 l 25xd0
 3 4 l 25
 3 1 l 25xe0
 5 1 l 25
 5 0 l 25
 2 0 l 25
 2 1 l 25xd0
 1 1 l 25
 1 4 l 25xe0
EndSplineSet
EndChar

StartChar: d
Encoding: 100 100 68
Width: 6
VWidth: 0
Flags: W
HStem: 0 1<2.09 3.12> 4 1<2.09 3.12> 7 0G<3.12 5.21>
VStem: 1 1<1.04 4.17> 2 3<0 1.04 4.17 5.21> 3 2<1.04 4.17 5.21 7.29>
LayerCount: 2
Back
Fore
SplineSet
2 5 m 25xe8
 3 5 l 25
 3 7 l 25
 5 7 l 25xe4
 5 0 l 25
 2 0 l 25xe8
 2 1 l 25
 3 1 l 25
 3 4 l 25
 2 4 l 25
 2 1 l 25
 1 1 l 25
 1 4 l 25
 2 4 l 25xf4
 2 5 l 25xe8
EndSplineSet
EndChar

StartChar: e
Encoding: 101 101 69
Width: 6
VWidth: 0
Flags: W
HStem: 0 1<3.12 5.21> 2 1<3.12 4.17> 4 1<3.12 4.17>
VStem: 1 2<1.04 2.09 3.12 4.17> 4 1<3.12 4.17>
CounterMasks: 1 e0
LayerCount: 2
Back
Fore
SplineSet
2 5 m 25
 4 5 l 25
 4 4 l 25
 3 4 l 25
 3 3 l 25
 4 3 l 25
 4 4 l 25
 5 4 l 25
 5 2 l 25
 3 2 l 25
 3 1 l 25
 5 1 l 25
 5 0 l 25
 2 0 l 25
 2 1 l 25
 1 1 l 25
 1 4 l 25
 2 4 l 25
 2 5 l 25
EndSplineSet
EndChar

StartChar: f
Encoding: 102 102 70
Width: 6
VWidth: 0
Flags: W
HStem: 0 0G<1.04 3.12> 4 1<3.12 5.21> 6 1<3.12 5.21>
VStem: 1 2<0 4.17 5.21 6.25>
LayerCount: 2
Back
Fore
SplineSet
1 6 m 25
 2 6 l 25
 2 7 l 25
 5 7 l 25
 5 6 l 25
 3 6 l 25
 3 5 l 25
 5 5 l 25
 5 4 l 25
 3 4 l 25
 3 0 l 25
 1 0 l 25
 1 6 l 25
EndSplineSet
EndChar

StartChar: g
Encoding: 103 103 71
Width: 6
VWidth: 0
Flags: W
HStem: -1 1<1.04 3.12> 1 1<2.09 3.12> 4 1<2.09 3.12>
VStem: 1 1<2.09 4.17> 2 3<1.04 2.09 4.17 5.21> 3 2<0 1.04 2.09 4.17>
LayerCount: 2
Back
Fore
SplineSet
1 4 m 25xf4
 2 4 l 25xf4
 2 5 l 25
 5 5 l 25xe8
 5 0 l 25
 4 0 l 25
 4 -1 l 25
 1 -1 l 25
 1 0 l 25
 3 0 l 25
 3 1 l 25xf4
 2 1 l 25xe8
 2 2 l 25
 3 2 l 25
 3 4 l 25
 2 4 l 25
 2 2 l 25
 1 2 l 25
 1 4 l 25xf4
EndSplineSet
EndChar

StartChar: h
Encoding: 104 104 72
Width: 6
VWidth: 0
Flags: W
HStem: 0 0G<1.04 3.12 4.17 5.21> 4 1<3.12 4.17> 7 0G<1.04 3.12>
VStem: 1 2<0 4.17 5.21 7.29> 4 1<0 4.17>
LayerCount: 2
Back
Fore
SplineSet
1 7 m 25
 3 7 l 25
 3 5 l 25
 4 5 l 25
 4 4 l 25
 5 4 l 25
 5 0 l 25
 4 0 l 25
 4 4 l 25
 3 4 l 25
 3 0 l 25
 1 0 l 25
 1 7 l 25
EndSplineSet
EndChar

StartChar: i
Encoding: 105 105 73
Width: 6
VWidth: 0
Flags: W
HStem: 0 0G<2.09 4.17> 5 0G<2.09 4.17> 6 1<2.09 4.17>
VStem: 2 2<0 5.21 6.25 7.29>
LayerCount: 2
Back
Fore
SplineSet
2 5 m 25
 4 5 l 25
 4 0 l 25
 2 0 l 25
 2 5 l 25
2 7 m 25
 4 7 l 25
 4 6 l 25
 2 6 l 25
 2 7 l 25
EndSplineSet
EndChar

StartChar: j
Encoding: 106 106 74
Width: 6
VWidth: 0
Flags: W
HStem: -1 1<1.04 2.09> 5 0G<2.09 4.17> 6 1<2.09 4.17>
VStem: 2 2<0 5.21 6.25 7.29>
LayerCount: 2
Back
Fore
SplineSet
2 5 m 25
 4 5 l 25
 4 0 l 25
 3 0 l 25
 3 -1 l 25
 1 -1 l 25
 1 0 l 25
 2 0 l 25
 2 5 l 25
2 7 m 25
 4 7 l 25
 4 6 l 25
 2 6 l 25
 2 7 l 25
EndSplineSet
EndChar

StartChar: k
Encoding: 107 107 75
Width: 6
VWidth: 0
Flags: W
HStem: 0 1<5.21 6.25> 1 1<4.17 5.21> 3 1<4.17 5.21> 4 1<5.21 6.25> 7 0G<1.04 3.12>
VStem: 1 2<0 2.09 3.12 7.29> 4 1<1.04 2.09 3.12 4.17> 5 1<0 1.04 4.17 5.21>
LayerCount: 2
Back
Fore
SplineSet
1 7 m 25x8e
 3 7 l 25
 3 3 l 25
 4 3 l 25
 4 4 l 25
 5 4 l 25xae
 5 5 l 25
 6 5 l 25
 6 4 l 25x1d
 5 4 l 25
 5 3 l 25
 4 3 l 25
 4 2 l 25
 5 2 l 25x6e
 5 1 l 25x8e
 6 1 l 25
 6 0 l 25
 5 0 l 25x8d
 5 1 l 25x8e
 4 1 l 25
 4 2 l 25
 3 2 l 25x4e
 3 0 l 25
 1 0 l 25
 1 7 l 25x8e
EndSplineSet
EndChar

StartChar: l
Encoding: 108 108 76
Width: 6
VWidth: 0
Flags: W
HStem: 0 1<3.12 5.21> 7 0G<1.04 3.12>
VStem: 1 2<1.04 7.29>
LayerCount: 2
Back
Fore
SplineSet
1 7 m 25
 3 7 l 25
 3 1 l 25
 5 1 l 25
 5 0 l 25
 2 0 l 25
 2 1 l 25
 1 1 l 25
 1 7 l 25
EndSplineSet
EndChar

StartChar: m
Encoding: 109 109 77
Width: 6
VWidth: 0
Flags: W
HStem: 0 0G<0 2.09 5.21 6.25> 4 1<2.09 3.12 4.17 5.21>
VStem: 0 2<0 4.17> 3 1<1.04 4.17> 5 1<0 4.17>
LayerCount: 2
Back
Fore
SplineSet
0 5 m 25
 5 5 l 25
 5 4 l 25
 6 4 l 25
 6 0 l 25
 5 0 l 25
 5 4 l 25
 4 4 l 25
 4 1 l 25
 3 1 l 25
 3 4 l 25
 2 4 l 25
 2 0 l 25
 0 0 l 25
 0 5 l 25
EndSplineSet
EndChar

StartChar: n
Encoding: 110 110 78
Width: 6
VWidth: 0
Flags: W
HStem: 0 0G<1.04 3.12 4.17 5.21> 4 1<3.12 4.17>
VStem: 1 2<0 4.17> 4 1<0 4.17>
LayerCount: 2
Back
Fore
SplineSet
1 5 m 25
 4 5 l 25
 4 4 l 25
 5 4 l 25
 5 0 l 25
 4 0 l 25
 4 4 l 25
 3 4 l 25
 3 0 l 25
 1 0 l 25
 1 5 l 25
EndSplineSet
EndChar

StartChar: o
Encoding: 111 111 79
Width: 6
VWidth: 0
Flags: W
HStem: 0 1<3.12 4.17> 1 3<1.04 2.09 4.17 5.21> 4 1<3.12 4.17>
VStem: 1 2<1.04 4.17> 2 2<0 1.04 4.17 5.21> 4 1<1.04 4.17>
LayerCount: 2
Back
Fore
SplineSet
1 4 m 25x50
 2 4 l 25x48
 2 5 l 25
 4 5 l 25x28
 4 4 l 25x48
 3 4 l 25
 3 1 l 25xb0
 4 1 l 25xa8
 4 4 l 25x48
 5 4 l 25
 5 1 l 25x44
 4 1 l 25
 4 0 l 25
 2 0 l 25x88
 2 1 l 25x48
 1 1 l 25
 1 4 l 25x50
EndSplineSet
EndChar

StartChar: p
Encoding: 112 112 80
Width: 6
VWidth: 0
Flags: W
HStem: -1 0G<1.04 3.12> 1 1<3.12 4.17> 4 1<3.12 4.17>
VStem: 1 3<1.04 2.09 4.17 5.21> 1 2<-1.04 1.04 2.09 4.17> 4 1<2.09 4.17>
LayerCount: 2
Back
Fore
SplineSet
1 5 m 25xf0
 4 5 l 25
 4 4 l 25xf0
 3 4 l 25
 3 2 l 25xe8
 4 2 l 25
 4 4 l 25xf0
 5 4 l 25
 5 2 l 25xe4
 4 2 l 25
 4 1 l 25xf0
 3 1 l 25
 3 -1 l 25
 1 -1 l 25xe8
 1 5 l 25xf0
EndSplineSet
EndChar

StartChar: q
Encoding: 113 113 81
Width: 6
VWidth: 0
Flags: W
HStem: -1 0G<3.12 5.21> 1 1<2.09 3.12> 4 1<2.09 3.12>
VStem: 1 1<2.09 4.17> 2 3<1.04 2.09 4.17 5.21> 3 2<-1.04 1.04 2.09 4.17>
LayerCount: 2
Back
Fore
SplineSet
1 4 m 25xf4
 2 4 l 25xf4
 2 5 l 25
 5 5 l 25xe8
 5 -1 l 25
 3 -1 l 25
 3 1 l 25xe4
 2 1 l 25xe8
 2 2 l 25
 3 2 l 25
 3 4 l 25
 2 4 l 25
 2 2 l 25
 1 2 l 25
 1 4 l 25xf4
EndSplineSet
EndChar

StartChar: r
Encoding: 114 114 82
Width: 6
VWidth: 0
Flags: W
HStem: 0 0G<1.04 3.12> 4 1<3.12 5.21>
VStem: 1 2<0 4.17>
LayerCount: 2
Back
Fore
SplineSet
2 5 m 25
 5 5 l 25
 5 4 l 25
 3 4 l 25
 3 0 l 25
 1 0 l 25
 1 4 l 25
 2 4 l 25
 2 5 l 25
EndSplineSet
EndChar

StartChar: s
Encoding: 115 115 83
Width: 6
VWidth: 0
Flags: W
HStem: 0 1<1.04 3.12> 1 1<4.17 5.21> 3 1<1.04 2.09> 4 1<3.12 5.21>
LayerCount: 2
Back
Fore
SplineSet
2 5 m 25x10
 5 5 l 25
 5 4 l 25
 3 4 l 25x10
 3 3 l 25
 4 3 l 25
 4 2 l 25
 5 2 l 25
 5 1 l 25
 4 1 l 25x60
 4 0 l 25
 1 0 l 25
 1 1 l 25
 3 1 l 25x80
 3 2 l 25
 2 2 l 25
 2 3 l 25
 1 3 l 25
 1 4 l 25
 2 4 l 25x60
 2 5 l 25x10
EndSplineSet
EndChar

StartChar: t
Encoding: 116 116 84
Width: 6
VWidth: 0
Flags: W
HStem: 0 1<3.12 5.21> 4 1<3.12 5.21> 7 0G<1.04 3.12>
VStem: 1 2<1.04 4.17 5.21 7.29>
LayerCount: 2
Back
Fore
SplineSet
1 7 m 25
 3 7 l 25
 3 5 l 25
 5 5 l 25
 5 4 l 25
 3 4 l 25
 3 1 l 25
 5 1 l 25
 5 0 l 25
 2 0 l 25
 2 1 l 25
 1 1 l 25
 1 7 l 25
EndSplineSet
EndChar

StartChar: u
Encoding: 117 117 85
Width: 6
VWidth: 0
Flags: W
HStem: 0 1<2.09 3.12> 5 0G<1.04 2.09 3.12 5.21>
VStem: 1 1<1.04 5.21> 3 2<1.04 5.21>
LayerCount: 2
Back
Fore
SplineSet
1 5 m 25
 2 5 l 25
 2 1 l 25
 3 1 l 25
 3 5 l 25
 5 5 l 25
 5 0 l 25
 2 0 l 25
 2 1 l 25
 1 1 l 25
 1 5 l 25
EndSplineSet
EndChar

StartChar: v
Encoding: 118 118 86
Width: 6
VWidth: 0
Flags: W
HStem: 0 2<2.09 4.17> 2 3<0 1.04 4.17 5.21>
VStem: 0 2<2.09 5.21> 4 1<2.09 5.21>
LayerCount: 2
Back
Fore
SplineSet
0 5 m 25x70
 2 5 l 25x70
 2 2 l 25
 4 2 l 25xb0
 4 5 l 25
 5 5 l 25
 5 2 l 25x70
 4 2 l 25
 4 0 l 25
 1 0 l 25xb0
 1 2 l 25
 0 2 l 25
 0 5 l 25x70
EndSplineSet
EndChar

StartChar: w
Encoding: 119 119 87
Width: 6
VWidth: 0
Flags: W
HStem: 0 1<2.09 3.12 4.17 5.21> 5 0G<0 2.09 5.21 6.25>
VStem: 0 2<1.04 5.21> 3 1<1.04 4.17> 5 1<1.04 5.21>
LayerCount: 2
Back
Fore
SplineSet
0 5 m 25
 2 5 l 25
 2 1 l 25
 3 1 l 25
 3 4 l 25
 4 4 l 25
 4 1 l 25
 5 1 l 25
 5 5 l 25
 6 5 l 25
 6 0 l 25
 1 0 l 25
 1 1 l 25
 0 1 l 25
 0 5 l 25
EndSplineSet
EndChar

StartChar: x
Encoding: 120 120 88
Width: 6
VWidth: 0
Flags: W
HStem: 0 2<1.04 2.09 4.17 5.21> 3 2<1.04 2.09 4.17 5.21>
VStem: 1 2<3.12 5.21> 1 1<0 2.09> 3 2<0 2.09> 4 1<3.12 5.21>
LayerCount: 2
Back
Fore
SplineSet
1 5 m 25xe0
 3 5 l 25
 3 3 l 25
 4 3 l 25
 4 5 l 25
 5 5 l 25
 5 3 l 25
 4 3 l 25
 4 2 l 25xe4
 5 2 l 25
 5 0 l 25
 3 0 l 25
 3 2 l 25
 2 2 l 25
 2 0 l 25
 1 0 l 25
 1 2 l 25
 2 2 l 25
 2 3 l 25xd8
 1 3 l 25
 1 5 l 25xe0
EndSplineSet
EndChar

StartChar: y
Encoding: 121 121 89
Width: 6
VWidth: 0
Flags: W
HStem: -1 1<2.09 3.12> 1 1<2.09 3.12> 5 0G<1.04 2.09 3.12 5.21>
VStem: 1 1<2.09 5.21> 3 2<0 1.04 2.09 5.21>
LayerCount: 2
Back
Fore
SplineSet
1 5 m 25
 2 5 l 25
 2 2 l 25
 3 2 l 25
 3 5 l 25
 5 5 l 25
 5 0 l 25
 4 0 l 25
 4 -1 l 25
 2 -1 l 25
 2 0 l 25
 3 0 l 25
 3 1 l 25
 2 1 l 25
 2 2 l 25
 1 2 l 25
 1 5 l 25
EndSplineSet
EndChar

StartChar: z
Encoding: 122 122 90
Width: 6
VWidth: 0
Flags: W
HStem: 0 1<3.12 5.21> 4 1<1.04 3.12>
LayerCount: 2
Back
Fore
SplineSet
1 5 m 25
 5 5 l 25
 5 3 l 25
 4 3 l 25
 4 2 l 25
 3 2 l 25
 3 1 l 25
 5 1 l 25
 5 0 l 25
 1 0 l 25
 1 2 l 25
 2 2 l 25
 2 3 l 25
 3 3 l 25
 3 4 l 25
 1 4 l 25
 1 5 l 25
EndSplineSet
EndChar

StartChar: braceleft
Encoding: 123 123 91
Width: 6
VWidth: 0
Flags: W
HStem: 0 1<4.17 5.21> 3 1<1.04 2.09> 6 1<4.17 5.21>
VStem: 2 2<1.04 3.12 4.17 6.25> 3 2<0 1.04 6.25 7.29>
CounterMasks: 1 e0
LayerCount: 2
Back
Fore
SplineSet
1 4 m 25xf0
 2 4 l 25
 2 6 l 25xf0
 3 6 l 25
 3 7 l 25
 5 7 l 25
 5 6 l 25xe8
 4 6 l 25
 4 4 l 25xf0
 3 4 l 25
 3 3 l 25xe8
 4 3 l 25
 4 1 l 25xf0
 5 1 l 25
 5 0 l 25
 3 0 l 25
 3 1 l 25xe8
 2 1 l 25
 2 3 l 25
 1 3 l 25
 1 4 l 25xf0
EndSplineSet
EndChar

StartChar: bar
Encoding: 124 124 92
Width: 6
VWidth: 0
Flags: W
HStem: -1 0G<2.09 4.17> 6 0G<2.09 4.17>
VStem: 2 2<-1.04 6.25>
LayerCount: 2
Back
Fore
SplineSet
2 6 m 25
 4 6 l 25
 4 -1 l 25
 2 -1 l 25
 2 6 l 25
EndSplineSet
EndChar

StartChar: braceright
Encoding: 125 125 93
Width: 6
VWidth: 0
Flags: W
HStem: 0 1<1.04 2.09> 3 1<4.17 5.21> 6 1<1.04 2.09>
VStem: 1 2<0 1.04 6.25 7.29> 2 2<1.04 3.12 4.17 6.25>
CounterMasks: 1 e0
LayerCount: 2
Back
Fore
SplineSet
1 7 m 25xf0
 3 7 l 25
 3 6 l 25xf0
 4 6 l 25
 4 4 l 25
 5 4 l 25
 5 3 l 25
 4 3 l 25
 4 1 l 25xe8
 3 1 l 25
 3 0 l 25
 1 0 l 25
 1 1 l 25xf0
 2 1 l 25
 2 3 l 25xe8
 3 3 l 25
 3 4 l 25xf0
 2 4 l 25
 2 6 l 25xe8
 1 6 l 25
 1 7 l 25xf0
EndSplineSet
EndChar

StartChar: asciitilde
Encoding: 126 126 94
Width: 6
VWidth: 0
Flags: W
HStem: 2 1<1.04 2.09 4.17 5.21> 3 1<2.09 3.12 5.21 6.25>
VStem: 1 1<2.09 3.12> 5 1<3.12 4.17>
LayerCount: 2
Back
Fore
SplineSet
1 3 m 25xb0
 2 3 l 25xb0
 2 4 l 25
 4 4 l 25x70
 4 3 l 25
 5 3 l 25xb0
 5 4 l 25
 6 4 l 25
 6 3 l 25x70
 5 3 l 25
 5 2 l 25
 3 2 l 25xb0
 3 3 l 25x70
 2 3 l 25
 2 2 l 25
 1 2 l 25
 1 3 l 25xb0
EndSplineSet
EndChar

StartChar: currency
Encoding: 256 164 99
Width: 6
VWidth: 0
Flags: W
HStem: 0 1<0 1.04 5.21 6.25> 5 1<0 1.04 5.21 6.25>
VStem: 0 1<0 1.04 5.21 6.25> 5 1<0 1.04 5.21 6.25>
LayerCount: 2
Back
Fore
SplineSet
2 4 m 25
 2 2 l 25
 4 2 l 25
 4 4 l 25
 2 4 l 25
0 6 m 25
 1 6 l 25
 1 5 l 25
 5 5 l 25
 5 6 l 25
 6 6 l 25
 6 5 l 25
 5 5 l 25
 5 1 l 25
 6 1 l 25
 6 0 l 25
 5 0 l 25
 5 1 l 25
 1 1 l 25
 1 0 l 25
 0 0 l 25
 0 1 l 25
 1 1 l 25
 1 5 l 25
 0 5 l 25
 0 6 l 25
EndSplineSet
EndChar

StartChar: brokenbar
Encoding: 257 166 101
Width: 6
VWidth: 0
Flags: W
HStem: -1 0G<3.12 4.17> 6 0G<3.12 4.17>
VStem: 3 1<-1.04 6.25>
LayerCount: 2
Back
Fore
SplineSet
3 6 m 25
 4 6 l 25
 4 -1 l 25
 3 -1 l 25
 3 6 l 25
EndSplineSet
EndChar

StartChar: dieresis
Encoding: 258 168 103
Width: 6
VWidth: 0
Flags: W
HStem: 5 1<2.09 3.12 5.21 6.25>
VStem: 2 1<5.21 6.25> 5 1<5.21 6.25>
LayerCount: 2
Back
Fore
SplineSet
5 6 m 25
 6 6 l 25
 6 5 l 25
 5 5 l 25
 5 6 l 25
2 6 m 25
 3 6 l 25
 3 5 l 25
 2 5 l 25
 2 6 l 25
EndSplineSet
EndChar

StartChar: acute
Encoding: 259 180 114
Width: 6
VWidth: 0
Flags: W
HStem: 4 1<2.09 3.12> 7 0G<3.12 4.17>
VStem: 2 1<4.17 5.21> 3 1<5.21 7.29>
LayerCount: 2
Back
Fore
SplineSet
3 7 m 25xd0
 4 7 l 25
 4 5 l 25xd0
 3 5 l 25
 3 4 l 25
 2 4 l 25
 2 5 l 25
 3 5 l 25xe0
 3 7 l 25xd0
EndSplineSet
EndChar

StartChar: cedilla
Encoding: 260 184 118
Width: 6
VWidth: 0
Flags: W
HStem: -2 1<2.09 4.17> 0 1<3.12 4.17>
VStem: 3 1<0 1.04> 4 1<-1.04 0>
LayerCount: 2
Back
Fore
SplineSet
3 1 m 25xe0
 4 1 l 25
 4 0 l 25xe0
 5 0 l 25
 5 -2 l 25
 2 -2 l 25
 2 -1 l 25
 4 -1 l 25xd0
 4 0 l 25
 3 0 l 25
 3 1 l 25xe0
EndSplineSet
EndChar

StartChar: onequarter
Encoding: 261 188 122
Width: 6
VWidth: 0
Flags: W
HStem: -1 0G<4.17 5.21> 0 1<3.12 4.17 5.21 6.25> 1 1<0 1.04> 2 1<1.04 2.09 3.12 4.17> 3 1<2.09 3.12> 4 1<3.12 4.17> 5 1<4.17 5.21> 6 1<0 1.04>
VStem: 0 1<1.04 2.09> 1 1<2.09 3.12 4.17 6.25 7.29 8.33> 2 1<1.04 2.09 3.12 4.17> 3 1<4.17 5.21> 4 1<-1.04 0 1.04 2.09 3.12 4.17 5.21 6.25>
LayerCount: 2
Back
Fore
SplineSet
0 7 m 25x8580
 1 7 l 1
 1 8 l 1
 2 8 l 5
 2 4 l 1x8940
 3 4 l 25x8920
 3 5 l 25
 4 5 l 25x8410
 4 6 l 25
 5 6 l 25
 5 5 l 25x8208
 4 5 l 25
 4 4 l 25x8410
 5 4 l 25
 5 1 l 25
 6 1 l 25
 6 0 l 25
 5 0 l 25
 5 -1 l 25
 4 -1 l 25
 4 0 l 25
 2 0 l 25xc428
 2 2 l 25xd440
 3 2 l 25
 3 1 l 25
 4 1 l 25
 4 2 l 25
 3 2 l 25
 3 3 l 25
 4 3 l 25xd428
 4 4 l 25xd410
 3 4 l 25x8820
 3 3 l 25x9020
 2 3 l 25
 2 2 l 25x9040
 1 2 l 25
 1 1 l 25
 0 1 l 25
 0 2 l 25
 1 2 l 25xa080
 1 3 l 25
 2 3 l 25x9040
 2 4 l 25x8840
 1 4 l 25
 1 6 l 25x8540
 0 6 l 25
 0 7 l 25x8580
EndSplineSet
EndChar

StartChar: onehalf
Encoding: 262 189 123
Width: 6
VWidth: 0
Flags: W
HStem: 0 1<3.12 4.17 5.21 6.25> 1 1<0 1.04> 2 1<1.04 2.09 5.21 6.25> 3 1<2.09 3.12 4.17 5.21> 5 1<4.17 5.21> 6 1<0 1.04>
VStem: 0 1<1.04 2.09> 1 1<2.09 3.12 4.17 6.25 7.29 8.33> 3 1<4.17 5.21> 4 1<1.04 2.09 5.21 6.25> 5 1<2.09 3.12>
LayerCount: 2
Back
Fore
SplineSet
0 7 m 25x16
 1 7 l 1x15
 1 8 l 1
 2 8 l 5
 2 4 l 1
 3 4 l 25
 3 5 l 25
 4 5 l 25x1980
 4 6 l 25
 5 6 l 25
 5 5 l 25x1840
 4 5 l 25
 4 4 l 25
 5 4 l 25x18a0
 5 3 l 25
 6 3 l 25
 6 2 l 25x20a0
 5 2 l 25
 5 1 l 25xa040
 6 1 l 25
 6 0 l 25
 3 0 l 25
 3 1 l 25xa0a0
 4 1 l 25
 4 2 l 25
 5 2 l 25xa040
 5 3 l 25
 2 3 l 25
 2 2 l 25xa120
 1 2 l 25
 1 1 l 25
 0 1 l 25
 0 2 l 25
 1 2 l 25x42
 1 3 l 25
 2 3 l 25x21
 2 4 l 25
 1 4 l 25
 1 6 l 25x15
 0 6 l 25
 0 7 l 25x16
EndSplineSet
EndChar

StartChar: threequarters
Encoding: 263 190 124
Width: 6
VWidth: 0
Flags: W
HStem: -1 0G<4.17 5.21> 0 1<3.12 4.17 5.21 6.25> 1 1<0 1.04> 2 1<1.04 2.09 3.12 4.17> 4 1<0 2.09 3.12 4.17> 5 1<4.17 5.21> 7 1<0 1.04>
VStem: 0 1<1.04 2.09> 1 1<2.09 3.12> 2 1<1.04 2.09 3.12 4.17 5.21 6.25> 4 1<-1.04 0 1.04 2.09 3.12 4.17 5.21 6.25>
LayerCount: 2
Back
Fore
SplineSet
0 8 m 25x8720
 3 8 l 25
 3 5 l 25
 4 5 l 25x8b60
 4 6 l 25
 5 6 l 25
 5 5 l 25x8760
 4 5 l 25
 4 4 l 25
 5 4 l 25
 5 1 l 25
 6 1 l 25
 6 0 l 25
 5 0 l 25
 5 -1 l 25
 4 -1 l 25
 4 0 l 25
 2 0 l 25xcb60
 2 2 l 25xdaa0
 3 2 l 25
 3 1 l 25
 4 1 l 25
 4 2 l 25
 3 2 l 25
 3 3 l 25
 4 3 l 25
 4 4 l 25
 3 4 l 25
 3 3 l 25xda60
 2 3 l 25
 2 2 l 25xdaa0
 1 2 l 25
 1 1 l 25
 0 1 l 25
 0 2 l 25
 1 2 l 25xa320
 1 3 l 25
 2 3 l 25x92a0
 2 4 l 25
 0 4 l 25
 0 5 l 25
 2 5 l 25x9b60
 2 6 l 25x8760
 1 6 l 25
 1 7 l 25x86a0
 0 7 l 25
 0 8 l 25x8720
EndSplineSet
EndChar

StartChar: questiondown
Encoding: 191 191 125
Width: 6
VWidth: 0
Flags: W
HStem: -1 1<2.09 4.17> 0 1<4.17 5.21> 2 1<2.09 3.12> 3 1<3.12 4.17> 5 1<3.12 4.17>
VStem: 1 1<0 2.09> 2 1<2.09 3.12> 3 1<3.12 4.17 5.21 6.25> 4 1<0 1.04>
LayerCount: 2
Back
Fore
SplineSet
3 4 m 25x19
 4 4 l 25
 4 3 l 25x19
 3 3 l 25
 3 2 l 25x2a
 2 2 l 25
 2 0 l 25
 4 0 l 25xac80
 4 1 l 25
 5 1 l 25
 5 0 l 25x4c80
 4 0 l 25
 4 -1 l 25
 2 -1 l 25x8a80
 2 0 l 25x8c
 1 0 l 25
 1 2 l 25
 2 2 l 25x6c
 2 3 l 25
 3 3 l 25x6a
 3 4 l 25x19
3 6 m 25
 4 6 l 25
 4 5 l 25
 3 5 l 25
 3 6 l 25
EndSplineSet
EndChar

StartChar: Agrave
Encoding: 192 192 126
Width: 6
VWidth: 0
Flags: W
HStem: 0 0G<1.04 3.12 4.17 5.21> 2 1<3.12 4.17> 5 0G<4.17 5.21> 5 1<3.12 4.17>
VStem: 1 2<0 2.09 3.12 5.21> 4 1<0 2.09 3.12 5.21>
LayerCount: 2
Back
Fore
SplineSet
2 7 m 1
 2 8 l 29
 3 8 l 29
 3 7 l 1
 4 7 l 25
 4 6 l 25
 3 6 l 25
 3 7 l 25
 2 7 l 1
1 5 m 25xdc
 2 5 l 25
 2 6 l 25
 4 6 l 25xdc
 4 5 l 25xec
 3 5 l 25xdc
 3 3 l 25
 4 3 l 25
 4 5 l 25
 5 5 l 25xec
 5 0 l 25
 4 0 l 25
 4 2 l 25
 3 2 l 25
 3 0 l 25
 1 0 l 25
 1 5 l 25xdc
EndSplineSet
EndChar

StartChar: Aacute
Encoding: 193 193 127
Width: 6
VWidth: 0
Flags: W
HStem: 0 0G<1.04 3.12 4.17 5.21> 2 1<3.12 4.17> 5 0G<4.17 5.21> 5 1<3.12 4.17>
VStem: 1 2<0 2.09 3.12 5.21> 4 1<0 2.09 3.12 5.21>
LayerCount: 2
Back
Fore
SplineSet
2 6 m 25
 2 7 l 25
 3 7 l 1
 3 8 l 29
 4 8 l 29
 4 7 l 1
 3 7 l 25
 3 6 l 25
 2 6 l 25
1 5 m 25xdc
 2 5 l 25
 2 6 l 25
 4 6 l 25xdc
 4 5 l 25xec
 3 5 l 25xdc
 3 3 l 25
 4 3 l 25
 4 5 l 25
 5 5 l 25xec
 5 0 l 25
 4 0 l 25
 4 2 l 25
 3 2 l 25
 3 0 l 25
 1 0 l 25
 1 5 l 25xdc
EndSplineSet
EndChar

StartChar: Acircumflex
Encoding: 194 194 128
Width: 6
VWidth: 0
Flags: W
HStem: 0 0G<1.04 3.12 4.17 5.21> 2 1<3.12 4.17> 5 0G<4.17 5.21> 5 1<3.12 4.17>
VStem: 1 2<0 2.09 3.12 5.21> 4 1<0 2.09 3.12 5.21>
LayerCount: 2
Back
Fore
SplineSet
1 6 m 25
 1 7 l 25
 2 7 l 1
 2 8 l 29
 4 8 l 29
 4 7 l 1
 5 7 l 25
 5 6 l 25
 4 6 l 25
 4 7 l 25
 2 7 l 25
 2 6 l 25
 1 6 l 25
1 5 m 25xdc
 2 5 l 25
 2 6 l 25
 4 6 l 25xdc
 4 5 l 25xec
 3 5 l 25xdc
 3 3 l 25
 4 3 l 25
 4 5 l 25
 5 5 l 25xec
 5 0 l 25
 4 0 l 25
 4 2 l 25
 3 2 l 25
 3 0 l 25
 1 0 l 25
 1 5 l 25xdc
EndSplineSet
EndChar

StartChar: Atilde
Encoding: 195 195 129
Width: 6
VWidth: 0
Flags: W
HStem: 0 0G<1.04 3.12 4.17 5.21> 2 1<3.12 4.17> 5 0G<4.17 5.21> 5 1<3.12 4.17>
VStem: 1 2<0 2.09 3.12 5.21> 4 1<0 2.09 3.12 5.21>
LayerCount: 2
Back
Fore
SplineSet
1 7 m 1049
1 6 m 25,1,-1
 1 7 l 25,2,-1
 2 7 l 1,3,-1
 2 8 l 29,4,-1
 3 8 l 29,5,-1
 3 7 l 1,6,-1
 4 7 l 1,7,-1
 4 8 l 29,8,-1
 5 8 l 29,9,-1
 5 7 l 1,10,-1
 4 7 l 25,11,-1
 4 6 l 25,12,-1
 3 6 l 25,13,-1
 3 7 l 25,14,-1
 2 7 l 25,15,-1
 2 6 l 25,16,-1
 1 6 l 25,1,-1
1 5 m 25,0,-1
 2 5 l 25,1,-1
 2 6 l 25,2,-1
 4 6 l 25,3,-1
 4 5 l 25,4,-1
 3 5 l 25,5,-1
 3 3 l 25,6,-1
 4 3 l 25,7,-1
 4 5 l 25,8,-1
 5 5 l 25,9,-1
 5 0 l 25,10,-1
 4 0 l 25,11,-1
 4 2 l 25,12,-1
 3 2 l 25,13,-1
 3 0 l 25,14,-1
 1 0 l 25,15,-1
 1 5 l 25,0,-1
EndSplineSet
EndChar

StartChar: null.dup1
Encoding: 196 196 130
Width: 6
VWidth: 0
Flags: W
HStem: 0 0G<1.04 3.12 4.17 5.21> 2 1<3.12 4.17> 5 0G<4.17 5.21> 5 1<3.12 4.17>
VStem: 1 2<0 2.09 3.12 5.21> 4 1<0 2.09 3.12 5.21>
LayerCount: 2
Back
Fore
SplineSet
4 7 m 1
 4 8 l 29
 5 8 l 29
 5 7 l 1
 4 7 l 1
2 7 m 1
 2 8 l 29
 3 8 l 29
 3 7 l 1
 2 7 l 1
1 5 m 25xdc
 2 5 l 25
 2 6 l 25
 4 6 l 25xdc
 4 5 l 25xec
 3 5 l 25xdc
 3 3 l 25
 4 3 l 25
 4 5 l 25
 5 5 l 25xec
 5 0 l 25
 4 0 l 25
 4 2 l 25
 3 2 l 25
 3 0 l 25
 1 0 l 25
 1 5 l 25xdc
EndSplineSet
EndChar

StartChar: Aring
Encoding: 197 197 131
Width: 6
VWidth: 0
Flags: W
LayerCount: 2
Back
Fore
SplineSet
1 0 m 29
 1 4 l 25
 2 4 l 25
 2 5 l 25
 3 5 l 25
 3 6 l 25
 2 6 l 25
 2 7 l 25
 3 7 l 25
 3 8 l 25
 4 8 l 25
 4 7 l 25
 3 7 l 25
 3 6 l 25
 4 6 l 25
 4 7 l 25
 5 7 l 25
 5 6 l 25
 4 6 l 25
 4 4 l 25
 3 4 l 25
 3 3 l 25
 4 3 l 25
 4 4 l 25
 5 4 l 25
 5 0 l 25
 4 0 l 25
 4 2 l 25
 3 2 l 25
 3 0 l 25
 1 0 l 29
EndSplineSet
EndChar

StartChar: AE
Encoding: 198 198 132
Width: 6
VWidth: 0
Flags: W
HStem: 0 0G<-0.02 2.06 3.11 4.16> 2 1<2.06 3.11> 5 0G<3.11 4.16> 5 1<2.06 3.11>
VStem: 0 2<0 2.09 3.12 5.21> 3 1<0 2.09 3.12 5.21>
LayerCount: 2
Back
Fore
SplineSet
0 0 m 29
 0 4 l 25
 0 5 l 25
 1 5 l 25
 1 3 l 25
 2 3 l 25
 2 5 l 25
 1 5 l 25
 1 6 l 25
 5 6 l 25
 5 5 l 25
 4 5 l 25
 4 3 l 25
 5 3 l 25
 5 2 l 25
 4 2 l 25
 4 1 l 25
 5 1 l 25
 5 0 l 25
 2 0 l 25
 2 2 l 25
 1 2 l 25
 1 0 l 25
 0 0 l 29
EndSplineSet
EndChar

StartChar: Ccedilla
Encoding: 199 199 133
Width: 6
VWidth: 0
Flags: W
HStem: 0 1<3.12 5.21> 5 1<3.12 5.21>
VStem: 1 2<1.04 5.21> 2 3<0 1.04 5.21 6.25>
LayerCount: 2
Back
Fore
SplineSet
2 -2 m 29
 2 -1 l 25
 3 -1 l 25
 3 0 l 25
 4 0 l 25
 4 -1 l 25
 3 -1 l 25
 3 -2 l 25
 2 -2 l 29
2 6 m 25xd0
 5 6 l 25
 5 5 l 25xd0
 3 5 l 25
 3 1 l 25xe0
 5 1 l 25
 5 0 l 25
 2 0 l 25
 2 1 l 25xd0
 1 1 l 25
 1 5 l 25xe0
 2 5 l 25
 2 6 l 25xd0
EndSplineSet
EndChar

StartChar: Egrave
Encoding: 200 200 134
Width: 6
VWidth: 0
Flags: W
HStem: 0 1<3.12 5.21> 3 1<3.12 4.17> 5 1<3.12 5.21>
VStem: 1 2<1.04 3.12 4.17 5.21>
LayerCount: 2
Back
Fore
SplineSet
2 7 m 1
 2 8 l 29
 3 8 l 29
 3 7 l 1
 4 7 l 25
 4 6 l 25
 3 6 l 25
 3 7 l 25
 2 7 l 1
1 6 m 25
 5 6 l 25
 5 5 l 25
 3 5 l 25
 3 4 l 25
 4 4 l 25
 4 3 l 25
 3 3 l 25
 3 1 l 25
 5 1 l 25
 5 0 l 25
 1 0 l 25
 1 6 l 25
EndSplineSet
EndChar

StartChar: Eacute
Encoding: 201 201 135
Width: 6
VWidth: 0
Flags: W
HStem: 0 1<3.12 5.21> 3 1<3.12 4.17> 5 1<3.12 5.21>
VStem: 1 2<1.04 3.12 4.17 5.21>
LayerCount: 2
Back
Fore
SplineSet
2 7 m 25
 3 7 l 1
 3 8 l 29
 4 8 l 29
 4 7 l 1
 3 7 l 25
 3 6 l 25
 2 6 l 25
 2 7 l 25
1 6 m 17
 2 6 l 1
 5 6 l 9
 5 5 l 25
 3 5 l 25
 3 4 l 25
 4 4 l 25
 4 3 l 25
 3 3 l 25
 3 1 l 25
 5 1 l 25
 5 0 l 25
 1 0 l 25
 1 6 l 17
EndSplineSet
EndChar

StartChar: Ecircumflex
Encoding: 202 202 136
Width: 6
VWidth: 0
Flags: W
HStem: 0 1<3.12 5.21> 3 1<3.12 4.17> 5 1<3.12 5.21>
VStem: 1 2<1.04 3.12 4.17 5.21>
LayerCount: 2
Back
Fore
SplineSet
1 7 m 25
 2 7 l 1
 2 8 l 25
 4 8 l 25
 4 7 l 1
 5 7 l 25
 5 6 l 25
 4 6 l 25
 4 7 l 25
 2 7 l 25
 2 6 l 25
 1 6 l 25
 1 7 l 25
1 6 m 25
 5 6 l 25
 5 5 l 25
 3 5 l 25
 3 4 l 25
 4 4 l 25
 4 3 l 25
 3 3 l 25
 3 1 l 25
 5 1 l 25
 5 0 l 25
 1 0 l 25
 1 6 l 25
EndSplineSet
EndChar

StartChar: Edieresis
Encoding: 203 203 137
Width: 6
VWidth: 0
Flags: W
HStem: 0 1<3.12 5.21> 3 1<3.12 4.17> 5 1<3.12 5.21>
VStem: 1 2<1.04 3.12 4.17 5.21>
LayerCount: 2
Back
Fore
SplineSet
4 7 m 1
 4 8 l 29
 5 8 l 29
 5 7 l 1
 4 7 l 1
2 7 m 1
 2 8 l 29
 3 8 l 29
 3 7 l 1
 2 7 l 1
1 6 m 25
 5 6 l 25
 5 5 l 25
 3 5 l 25
 3 4 l 25
 4 4 l 25
 4 3 l 25
 3 3 l 25
 3 1 l 25
 5 1 l 25
 5 0 l 25
 1 0 l 25
 1 6 l 25
EndSplineSet
EndChar

StartChar: Igrave
Encoding: 204 204 138
Width: 6
VWidth: 0
Flags: W
HStem: 0 0G<2.09 4.17> 6 0G<2.09 4.17>
VStem: 2 2<0 6.25>
LayerCount: 2
Back
Fore
SplineSet
2 8 m 25
 3 8 l 25
 3 7 l 1
 4 7 l 25
 4 6 l 25
 3 6 l 25
 3 7 l 25
 2 7 l 1
 2 8 l 25
2 5 m 25
 4 5 l 25
 4 0 l 1
 2 0 l 1
 2 5 l 25
EndSplineSet
EndChar

StartChar: Iacute
Encoding: 205 205 139
Width: 6
VWidth: 0
Flags: W
HStem: 0 0G<2.09 4.17> 6 0G<2.09 4.17>
VStem: 2 2<0 6.25>
LayerCount: 2
Back
Fore
SplineSet
2 6 m 25
 2 7 l 25
 3 7 l 1
 3 8 l 29
 4 8 l 29
 4 7 l 1
 3 7 l 25
 3 6 l 25
 2 6 l 25
2 5 m 1
 4 5 l 1
 4 0 l 1
 2 0 l 1
 2 5 l 1
EndSplineSet
EndChar

StartChar: Icircumflex
Encoding: 206 206 140
Width: 6
VWidth: 0
Flags: W
HStem: 0 0G<2.09 4.17> 6 0G<2.09 4.17>
VStem: 2 2<0 6.25>
LayerCount: 2
Back
Fore
SplineSet
1 6 m 25
 1 7 l 25
 2 7 l 1
 2 8 l 29
 4 8 l 29
 4 7 l 1
 5 7 l 25
 5 6 l 25
 4 6 l 25
 4 7 l 25
 2 7 l 25
 2 6 l 25
 1 6 l 25
2 5 m 1
 4 5 l 1
 4 0 l 1
 2 0 l 1
 2 5 l 1
EndSplineSet
EndChar

StartChar: Idieresis
Encoding: 207 207 141
Width: 6
VWidth: 0
Flags: W
HStem: 0 0G<2.09 4.17> 6 0G<2.09 4.17>
VStem: 2 2<0 6.25>
LayerCount: 2
Back
Fore
SplineSet
4 6 m 29
 4 7 l 25
 5 7 l 25
 5 6 l 25
 4 6 l 29
2 6 m 25
 2 7 l 25
 3 7 l 25
 3 6 l 25
 2 6 l 25
2 5 m 1
 4 5 l 1
 4 0 l 1
 2 0 l 1
 2 5 l 1
EndSplineSet
EndChar

StartChar: Eth
Encoding: 208 208 142
Width: 6
VWidth: 0
Flags: W
HStem: 0 1<3.12 5.21> 3 1<1.04 2.09 3.12 4.17> 5 0G<5.21 6.25> 5 1<3.12 5.21>
VStem: 2 3<0 1.04 5.21 6.25> 2 1<1.04 3.12 4.17 5.21> 5 1<1.04 5.21>
LayerCount: 2
Back
Fore
SplineSet
0 4 m 1xe4
 1 4 l 1xe4
 1 6 l 1
 5 6 l 1xd8
 5 5 l 25xe8
 3 5 l 25
 3 4 l 25
 4 4 l 25
 4 3 l 25
 3 3 l 25
 3 1 l 25xd4
 5 1 l 25
 5 5 l 25xe8
 6 5 l 25
 6 1 l 25xe2
 5 1 l 25
 5 0 l 1
 1 0 l 5xe8
 1 3 l 1
 0 3 l 1
 0 4 l 1xe4
EndSplineSet
EndChar

StartChar: Ntilde
Encoding: 209 209 143
Width: 6
VWidth: 0
Flags: W
HStem: 0 0G<1.04 3.12 5.21 6.25> 2 1<4.17 5.21> 3 1<3.12 4.17> 6 0G<1.04 3.12 5.21 6.25>
VStem: 1 2<0 3.12 4.17 6.25> 5 1<0 2.09 3.12 6.25>
LayerCount: 2
Back
Fore
SplineSet
2 7 m 25
 3 7 l 25
 3 8 l 25
 4 8 l 25
 4 7 l 25
 5 7 l 25
 5 8 l 25
 6 8 l 25
 6 7 l 25
 5 7 l 25
 5 6 l 1
 4 6 l 1
 4 7 l 25
 3 7 l 25
 3 6 l 1
 2 6 l 1
 2 7 l 25
1 6 m 25xbc
 3 6 l 25
 3 4 l 25
 4 4 l 25xbc
 4 3 l 25
 5 3 l 25
 5 6 l 25
 6 6 l 25
 6 0 l 25
 5 0 l 25
 5 2 l 25
 4 2 l 25
 4 3 l 25xdc
 3 3 l 25
 3 0 l 25
 1 0 l 25
 1 6 l 25xbc
EndSplineSet
EndChar

StartChar: Ograve
Encoding: 210 210 144
Width: 6
VWidth: 0
Flags: W
HStem: 0 1<3.12 4.17> 5 0G<4.17 5.21> 5 1<3.12 4.17>
VStem: 1 2<1.04 5.21> 2 2<0 1.04 5.21 6.25> 4 1<1.04 5.21>
LayerCount: 2
Back
Fore
SplineSet
2 7 m 1
 2 8 l 29
 3 8 l 29
 3 7 l 1
 4 7 l 25
 4 6 l 25
 3 6 l 25
 3 7 l 25
 2 7 l 1
1 5 m 25xb0
 2 5 l 25
 2 6 l 25
 4 6 l 25xa8
 4 5 l 25xc8
 3 5 l 25
 3 1 l 25xb0
 4 1 l 25
 4 5 l 25xc8
 5 5 l 25
 5 1 l 25xc4
 4 1 l 25
 4 0 l 25
 2 0 l 25
 2 1 l 25xc8
 1 1 l 25
 1 5 l 25xb0
EndSplineSet
EndChar

StartChar: Oacute
Encoding: 211 211 145
Width: 6
VWidth: 0
Flags: W
HStem: 0 1<3.12 4.17> 5 0G<4.17 5.21> 5 1<3.12 4.17>
VStem: 1 2<1.04 5.21> 2 2<0 1.04 5.21 6.25> 4 1<1.04 5.21>
LayerCount: 2
Back
Fore
SplineSet
2 7 m 25
 3 7 l 1
 3 8 l 29
 4 8 l 29
 4 7 l 1
 3 7 l 25
 3 6 l 25
 2 6 l 25
 2 7 l 25
1 5 m 25xb0
 2 5 l 25
 2 6 l 25
 4 6 l 25xa8
 4 5 l 25xc8
 3 5 l 25
 3 1 l 25xb0
 4 1 l 25
 4 5 l 25xc8
 5 5 l 25
 5 1 l 25xc4
 4 1 l 25
 4 0 l 25
 2 0 l 25
 2 1 l 25xc8
 1 1 l 25
 1 5 l 25xb0
EndSplineSet
EndChar

StartChar: Ocircumflex
Encoding: 212 212 146
Width: 6
VWidth: 0
Flags: W
HStem: 0 1<3.12 4.17> 5 0G<4.17 5.21> 5 1<3.12 4.17>
VStem: 1 2<1.04 5.21> 2 2<0 1.04 5.21 6.25> 4 1<1.04 5.21>
LayerCount: 2
Back
Fore
SplineSet
1 6 m 25
 1 7 l 25
 2 7 l 1
 2 8 l 29
 4 8 l 29
 4 7 l 1
 5 7 l 25
 5 6 l 25
 4 6 l 25
 4 7 l 25
 2 7 l 25
 2 6 l 25
 1 6 l 25
1 5 m 25xb0
 2 5 l 25
 2 6 l 25
 4 6 l 25xa8
 4 5 l 25xc8
 3 5 l 25
 3 1 l 25xb0
 4 1 l 25
 4 5 l 25xc8
 5 5 l 25
 5 1 l 25xc4
 4 1 l 25
 4 0 l 25
 2 0 l 25
 2 1 l 25xc8
 1 1 l 25
 1 5 l 25xb0
EndSplineSet
EndChar

StartChar: Otilde
Encoding: 213 213 147
Width: 6
VWidth: 0
Flags: W
HStem: 0 1<3.12 4.17> 5 0G<4.17 5.21> 5 1<3.12 4.17>
VStem: 1 2<1.04 5.21> 2 2<0 1.04 5.21 6.25> 4 1<1.04 5.21>
LayerCount: 2
Back
Fore
SplineSet
1 6 m 25
 1 7 l 25
 2 7 l 1
 2 8 l 25
 3 8 l 25
 3 7 l 1
 4 7 l 1
 4 8 l 25
 5 8 l 25
 5 7 l 1
 4 7 l 25
 4 6 l 25
 3 6 l 25
 3 7 l 25
 2 7 l 25
 2 6 l 25
 1 6 l 25
1 5 m 25xb0
 2 5 l 25
 2 6 l 25
 4 6 l 25xa8
 4 5 l 25xc8
 3 5 l 25
 3 1 l 25xb0
 4 1 l 25
 4 5 l 25xc8
 5 5 l 25
 5 1 l 25xc4
 4 1 l 25
 4 0 l 25
 2 0 l 25
 2 1 l 25xc8
 1 1 l 25
 1 5 l 25xb0
EndSplineSet
EndChar

StartChar: Odieresis
Encoding: 214 214 148
Width: 6
VWidth: 0
Flags: W
HStem: 0 1<3.12 4.17> 5 0G<4.17 5.21> 5 1<3.12 4.17>
VStem: 1 2<1.04 5.21> 2 2<0 1.04 5.21 6.25> 4 1<1.04 5.21>
LayerCount: 2
Back
Fore
SplineSet
4 8 m 29
 5 8 l 29
 5 7 l 1
 4 7 l 1
 4 8 l 29
2 8 m 29
 3 8 l 29
 3 7 l 1
 2 7 l 1
 2 8 l 29
1 5 m 25xb0
 2 5 l 25
 2 6 l 25
 4 6 l 25xa8
 4 5 l 25xc8
 3 5 l 25
 3 1 l 25xb0
 4 1 l 25
 4 5 l 25xc8
 5 5 l 25
 5 1 l 25xc4
 4 1 l 25
 4 0 l 25
 2 0 l 25
 2 1 l 25xc8
 1 1 l 25
 1 5 l 25xb0
EndSplineSet
EndChar

StartChar: multiply
Encoding: 215 215 149
Width: 6
VWidth: 0
Flags: W
HStem: 2 1<2.09 3.12 4.17 5.21> 4 1<2.09 3.12 4.17 5.21>
VStem: 2 1<2.09 3.12 4.17 5.21> 4 1<2.09 3.12 4.17 5.21>
LayerCount: 2
Back
Fore
SplineSet
2 5 m 25
 3 5 l 25
 3 4 l 25
 4 4 l 25
 4 5 l 25
 5 5 l 25
 5 4 l 25
 4 4 l 25
 4 3 l 25
 5 3 l 25
 5 2 l 25
 4 2 l 25
 4 3 l 25
 3 3 l 25
 3 2 l 25
 2 2 l 25
 2 3 l 25
 3 3 l 25
 3 4 l 25
 2 4 l 25
 2 5 l 25
EndSplineSet
EndChar

StartChar: Oslash
Encoding: 216 216 150
Width: 6
VWidth: 0
Flags: W
HStem: 0 1<0 1.04 2.09 4.17> 3 1<3.12 4.17> 5 1<2.09 4.17 5.21 6.25>
VStem: 0 1<0 1.04> 1 1<1.04 2.09 3.12 5.21> 2 2<0 1.04 5.21 6.25> 4 1<1.04 3.12 4.17 5.21> 5 1<5.21 6.25>
LayerCount: 2
Back
Fore
SplineSet
0 0 m 29
 0 1 l 25
 1 1 l 25
 1 5 l 25
 2 5 l 25
 2 6 l 25
 4 6 l 25
 4 5 l 25
 3 5 l 25
 3 4 l 25
 4 4 l 25
 4 5 l 25
 5 5 l 25
 5 6 l 25
 6 6 l 25
 6 5 l 25
 5 5 l 25
 5 1 l 25
 4 1 l 25
 4 3 l 25
 3 3 l 25
 3 1 l 25
 4 1 l 25
 4 0 l 25
 2 0 l 25
 2 1 l 25
 1 1 l 25
 1 0 l 25
 0 0 l 29
EndSplineSet
EndChar

StartChar: Ugrave
Encoding: 217 217 151
Width: 6
VWidth: 0
Flags: W
HStem: 0 1<3.12 4.17> 6 0G<1.04 3.12 4.17 5.21>
VStem: 1 2<1.04 6.25> 4 1<1.04 6.25>
LayerCount: 2
Back
Fore
SplineSet
2 7 m 1
 2 8 l 29
 3 8 l 29
 3 7 l 1
 4 7 l 25
 4 6 l 25
 3 6 l 25
 3 7 l 25
 2 7 l 1
1 6 m 25
 3 6 l 25
 3 1 l 25
 4 1 l 25
 4 6 l 25
 5 6 l 25
 5 0 l 25
 2 0 l 25
 2 1 l 25
 1 1 l 25
 1 6 l 25
EndSplineSet
EndChar

StartChar: Uacute
Encoding: 218 218 152
Width: 6
VWidth: 0
Flags: W
HStem: 0 1<3.12 4.17> 6 0G<1.04 3.12 4.17 5.21>
VStem: 1 2<1.04 6.25> 4 1<1.04 6.25>
LayerCount: 2
Back
Fore
SplineSet
2 7 m 25
 3 7 l 1
 3 8 l 29
 4 8 l 29
 4 7 l 1
 3 7 l 25
 3 6 l 25
 2 6 l 25
 2 7 l 25
1 6 m 25
 3 6 l 25
 3 1 l 25
 4 1 l 25
 4 6 l 25
 5 6 l 25
 5 0 l 25
 2 0 l 25
 2 1 l 25
 1 1 l 25
 1 6 l 25
EndSplineSet
EndChar

StartChar: Ucircumflex
Encoding: 219 219 153
Width: 6
VWidth: 0
Flags: W
HStem: 0 1<3.12 4.17> 6 0G<1.04 3.12 4.17 5.21>
VStem: 1 2<1.04 6.25> 4 1<1.04 6.25>
LayerCount: 2
Back
Fore
SplineSet
1 6 m 5
 1 7 l 1
 2 7 l 1
 2 8 l 25
 4 8 l 25
 4 7 l 25
 5 7 l 25
 5 6 l 1
 4 6 l 1
 4 7 l 25
 2 7 l 25
 2 6 l 1
 1 6 l 5
1 6 m 25
 3 6 l 25
 3 1 l 25
 4 1 l 25
 4 6 l 25
 5 6 l 25
 5 0 l 25
 2 0 l 25
 2 1 l 25
 1 1 l 25
 1 6 l 25
EndSplineSet
EndChar

StartChar: Udieresis
Encoding: 220 220 154
Width: 6
VWidth: 0
Flags: W
HStem: 0 1<3.12 4.17> 6 0G<1.04 3.12 4.17 5.21>
VStem: 1 2<1.04 6.25> 4 1<1.04 6.25>
LayerCount: 2
Back
Fore
SplineSet
4 7 m 1
 4 8 l 29
 5 8 l 29
 5 7 l 1
 4 7 l 1
2 7 m 1
 2 8 l 29
 3 8 l 29
 3 7 l 1
 2 7 l 1
1 6 m 25
 3 6 l 25
 3 1 l 25
 4 1 l 25
 4 6 l 25
 5 6 l 25
 5 0 l 25
 2 0 l 25
 2 1 l 25
 1 1 l 25
 1 6 l 25
EndSplineSet
EndChar

StartChar: Yacute
Encoding: 221 221 155
Width: 6
VWidth: 0
Flags: W
HStem: 0 0G<2.09 4.17> 3 1<4.17 5.21> 4 2<0 1.04 5.21 6.25>
VStem: 0 2<4.17 6.25> 4 1<3.12 4.17> 5 1<4.17 6.25>
LayerCount: 2
Back
Fore
SplineSet
3 6 m 25
 3 7 l 25
 4 7 l 1
 4 8 l 29
 5 8 l 29
 5 7 l 1
 4 7 l 25
 4 6 l 25
 3 6 l 25
0 6 m 25xb8
 2 6 l 25
 2 4 l 25
 3 4 l 25xb8
 3 3 l 25
 4 3 l 25
 4 4 l 25
 5 4 l 25xd8
 5 6 l 25
 6 6 l 25
 6 4 l 25xb4
 5 4 l 25
 5 3 l 25
 4 3 l 25
 4 0 l 25
 2 0 l 25
 2 3 l 25
 1 3 l 25xd8
 1 4 l 25
 0 4 l 25
 0 6 l 25xb8
EndSplineSet
EndChar

StartChar: Thorn
Encoding: 222 222 156
Width: 6
VWidth: 0
Flags: W
HStem: -1 0G<1.04 2.09> 1 1<2.09 4.17> 4 1<2.09 4.17> 7 0G<1.04 2.09>
VStem: 1 3<1.04 2.09 4.17 5.21> 1 1<-1.04 1.04 2.09 4.17 5.21 7.29> 4 1<2.09 4.17>
LayerCount: 2
Back
Fore
SplineSet
1 7 m 1xf4
 3 7 l 1
 3 5 l 1xf4
 4 5 l 1
 4 4 l 1xf8
 3 4 l 1
 3 2 l 1xf4
 4 2 l 1
 4 4 l 25xf8
 5 4 l 25
 5 2 l 25xf2
 4 2 l 25
 4 1 l 1xf8
 3 1 l 1
 3 -1 l 5
 1 -1 l 1
 1 7 l 1xf4
EndSplineSet
EndChar

StartChar: germandbls
Encoding: 223 223 157
Width: 6
VWidth: 0
Flags: W
HStem: -1 0G<1.04 2.09> 0 1<3.12 4.17> 6 1<2.09 3.12>
VStem: 1 1<-1.04 6.25> 3 1<0 1.04 4.17 6.25> 4 1<1.04 4.17>
LayerCount: 2
Back
Fore
SplineSet
1 6 m 1xf8
 2 6 l 25
 2 7 l 1
 4 7 l 25xf4
 4 4 l 25xf8
 5 4 l 25
 5 1 l 25xf4
 4 1 l 25
 4 0 l 25
 3 0 l 25
 3 1 l 25
 4 1 l 25
 4 4 l 1
 3 4 l 5
 3 4 l 5
 3 -1 l 1
 1 -1 l 1
 1 6 l 1xf8
EndSplineSet
EndChar

StartChar: agrave
Encoding: 224 224 158
Width: 6
VWidth: 0
Flags: W
HStem: 0 1<2.09 3.12 5.21 6.25> 4 1<2.09 3.12>
VStem: 1 1<1.04 4.17> 3 2<1.04 4.17> 5 1<0 1.04>
LayerCount: 2
Back
Fore
SplineSet
2 7 m 1
 2 8 l 29
 3 8 l 29
 3 7 l 1
 4 7 l 25
 4 6 l 25
 3 6 l 25
 3 7 l 25
 2 7 l 1
2 5 m 25xf0
 5 5 l 25xe8
 5 1 l 25xf0
 6 1 l 25
 6 0 l 25
 5 0 l 25xe8
 5 1 l 25
 4 1 l 25
 4 0 l 25
 2 0 l 25
 2 1 l 25
 3 1 l 25
 3 4 l 25
 2 4 l 25
 2 1 l 25
 1 1 l 25
 1 4 l 25
 2 4 l 25
 2 5 l 25xf0
EndSplineSet
EndChar

StartChar: aacute
Encoding: 225 225 159
Width: 6
VWidth: 0
Flags: W
HStem: 0 1<2.09 3.12 5.21 6.25> 4 1<2.09 3.12>
VStem: 1 1<1.04 4.17> 3 2<1.04 4.17> 5 1<0 1.04>
LayerCount: 2
Back
Fore
SplineSet
2 6 m 25
 2 7 l 25
 3 7 l 1
 3 8 l 29
 4 8 l 29
 4 7 l 1
 3 7 l 25
 3 6 l 25
 2 6 l 25
2 5 m 25xf0
 5 5 l 25xe8
 5 1 l 25xf0
 6 1 l 25
 6 0 l 25
 5 0 l 25xe8
 5 1 l 25
 4 1 l 25
 4 0 l 25
 2 0 l 25
 2 1 l 25
 3 1 l 25
 3 4 l 25
 2 4 l 25
 2 1 l 25
 1 1 l 25
 1 4 l 25
 2 4 l 25
 2 5 l 25xf0
EndSplineSet
EndChar

StartChar: acircumflex
Encoding: 226 226 160
Width: 6
VWidth: 0
Flags: W
HStem: 0 1<2.09 3.12 5.21 6.25> 4 1<2.09 3.12>
VStem: 1 1<1.04 4.17> 3 2<1.04 4.17> 5 1<0 1.04>
LayerCount: 2
Back
Fore
SplineSet
1 6 m 25
 1 7 l 25
 2 7 l 1
 2 8 l 29
 4 8 l 29
 4 7 l 1
 5 7 l 25
 5 6 l 25
 4 6 l 25
 4 7 l 25
 2 7 l 25
 2 6 l 25
 1 6 l 25
2 5 m 25xf0
 5 5 l 25xe8
 5 1 l 25xf0
 6 1 l 25
 6 0 l 25
 5 0 l 25xe8
 5 1 l 25
 4 1 l 25
 4 0 l 25
 2 0 l 25
 2 1 l 25
 3 1 l 25
 3 4 l 25
 2 4 l 25
 2 1 l 25
 1 1 l 25
 1 4 l 25
 2 4 l 25
 2 5 l 25xf0
EndSplineSet
EndChar

StartChar: atilde
Encoding: 227 227 161
Width: 6
VWidth: 0
Flags: W
HStem: 0 1<2.09 3.12 5.21 6.25> 4 1<2.09 3.12>
VStem: 1 1<1.04 4.17> 3 2<1.04 4.17> 5 1<0 1.04>
LayerCount: 2
Back
Fore
SplineSet
1 6 m 25
 1 7 l 25
 2 7 l 1
 2 8 l 29
 3 8 l 29
 3 7 l 1
 4 7 l 1
 4 8 l 29
 5 8 l 29
 5 7 l 1
 4 7 l 25
 4 6 l 25
 3 6 l 25
 3 7 l 25
 2 7 l 25
 2 6 l 25
 1 6 l 25
2 5 m 25xf0
 5 5 l 25xe8
 5 1 l 25xf0
 6 1 l 25
 6 0 l 25
 5 0 l 25xe8
 5 1 l 25
 4 1 l 25
 4 0 l 25
 2 0 l 25
 2 1 l 25
 3 1 l 25
 3 4 l 25
 2 4 l 25
 2 1 l 25
 1 1 l 25
 1 4 l 25
 2 4 l 25
 2 5 l 25xf0
EndSplineSet
EndChar

StartChar: adieresis
Encoding: 228 228 162
Width: 6
VWidth: 0
Flags: W
HStem: 0 1<2.09 3.12 5.21 6.25> 4 1<2.09 3.12>
VStem: 1 1<1.04 4.17> 3 2<1.04 4.17> 5 1<0 1.04>
LayerCount: 2
Back
Fore
SplineSet
4 6 m 29
 4 7 l 25
 5 7 l 25
 5 6 l 25
 4 6 l 29
2 6 m 25
 2 7 l 25
 3 7 l 25
 3 6 l 25
 2 6 l 25
2 5 m 25xf0
 5 5 l 25xe8
 5 1 l 25xf0
 6 1 l 25
 6 0 l 25
 5 0 l 25xe8
 5 1 l 25
 4 1 l 25
 4 0 l 25
 2 0 l 25
 2 1 l 25
 3 1 l 25
 3 4 l 25
 2 4 l 25
 2 1 l 25
 1 1 l 25
 1 4 l 25
 2 4 l 25
 2 5 l 25xf0
EndSplineSet
EndChar

StartChar: aring
Encoding: 229 229 163
Width: 6
VWidth: 0
Flags: W
HStem: 0 1<2.09 3.12 5.21 6.25> 4 1<2.09 3.12>
VStem: 1 1<1.04 4.17> 3 2<1.04 4.17> 5 1<0 1.04>
LayerCount: 2
Back
Fore
SplineSet
2 6 m 5
 2 7 l 29
 3 7 l 29
 3 8 l 29
 4 8 l 29
 4 7 l 29
 5 7 l 29
 5 6 l 5
 4 6 l 5
 4 7 l 29
 3 7 l 29
 3 6 l 5
 4 6 l 5
 4 5 l 1
 3 5 l 1
 3 6 l 5
 2 6 l 5
2 5 m 25xf0
 5 5 l 25xe8
 5 1 l 25xf0
 6 1 l 25
 6 0 l 25
 5 0 l 25xe8
 5 1 l 25
 4 1 l 25
 4 0 l 25
 2 0 l 25
 2 1 l 25
 3 1 l 25
 3 4 l 25
 2 4 l 25
 2 1 l 25
 1 1 l 25
 1 4 l 25
 2 4 l 25
 2 5 l 25xf0
EndSplineSet
EndChar

StartChar: ae
Encoding: 230 230 164
Width: 6
VWidth: 0
Flags: W
HStem: 0 1<1.04 3.12 4.17 6.25> 1 1<0 1.04> 2 1<1.04 3.12 4.17 5.21> 4 1<1.04 3.12 4.17 5.21>
VStem: 0 1<1.04 2.09> 3 1<1.04 2.09 3.12 4.17> 5 1<3.12 4.17>
LayerCount: 2
Back
Fore
SplineSet
1 5 m 25x3e
 5 5 l 25
 5 4 l 25
 4 4 l 25
 4 3 l 25
 5 3 l 25
 5 4 l 25
 6 4 l 25
 6 2 l 25
 4 2 l 25
 4 1 l 25
 6 1 l 25
 6 0 l 25
 4 0 l 25
 4 1 l 1
 3 1 l 29
 3 0 l 1
 1 0 l 25
 1 1 l 1
 2 1 l 1
 2 2 l 1xbe
 1 2 l 1x5e
 1 1 l 25x9e
 0 1 l 25
 0 2 l 25
 1 2 l 25x5e
 1 3 l 1
 2 3 l 1
 2 4 l 1
 1 4 l 1
 1 5 l 25x3e
EndSplineSet
EndChar

StartChar: ccedilla
Encoding: 231 231 165
Width: 6
VWidth: 0
Flags: W
HStem: 0 1<3.12 5.21> 4 1<3.12 5.21>
VStem: 1 2<1.04 4.17> 2 3<0 1.04 4.17 5.21>
LayerCount: 2
Back
Fore
SplineSet
2 -2 m 29
 2 -1 l 25
 3 -1 l 25
 3 0 l 25
 4 0 l 25
 4 -1 l 25
 3 -1 l 25
 3 -2 l 25
 2 -2 l 29
1 4 m 25xe0
 2 4 l 25
 2 5 l 25
 5 5 l 25
 5 4 l 25xd0
 3 4 l 25
 3 1 l 25xe0
 5 1 l 25
 5 0 l 25
 2 0 l 25
 2 1 l 25xd0
 1 1 l 25
 1 4 l 25xe0
EndSplineSet
EndChar

StartChar: egrave
Encoding: 232 232 166
Width: 6
VWidth: 0
Flags: W
HStem: 0 1<3.12 5.21> 2 1<3.12 4.17> 4 1<3.12 4.17>
VStem: 1 2<1.04 2.09 3.12 4.17> 4 1<3.12 4.17>
LayerCount: 2
Back
Fore
SplineSet
2 7 m 1
 2 8 l 29
 3 8 l 29
 3 7 l 1
 4 7 l 25
 4 6 l 25
 3 6 l 25
 3 7 l 25
 2 7 l 1
2 5 m 25
 4 5 l 25
 4 4 l 25
 3 4 l 25
 3 3 l 25
 4 3 l 25
 4 4 l 25
 5 4 l 25
 5 2 l 25
 3 2 l 25
 3 1 l 25
 5 1 l 25
 5 0 l 25
 2 0 l 25
 2 1 l 25
 1 1 l 25
 1 4 l 25
 2 4 l 25
 2 5 l 25
EndSplineSet
EndChar

StartChar: eacute
Encoding: 233 233 167
Width: 6
VWidth: 0
Flags: W
HStem: 0 1<3.12 5.21> 2 1<3.12 4.17> 4 1<3.12 4.17>
VStem: 1 2<1.04 2.09 3.12 4.17> 4 1<3.12 4.17>
LayerCount: 2
Back
Fore
SplineSet
2 6 m 25
 2 7 l 25
 3 7 l 1
 3 8 l 29
 4 8 l 29
 4 7 l 1
 3 7 l 25
 3 6 l 25
 2 6 l 25
2 5 m 25
 4 5 l 25
 4 4 l 25
 3 4 l 25
 3 3 l 25
 4 3 l 25
 4 4 l 25
 5 4 l 25
 5 2 l 25
 3 2 l 25
 3 1 l 25
 5 1 l 25
 5 0 l 25
 2 0 l 25
 2 1 l 25
 1 1 l 25
 1 4 l 25
 2 4 l 25
 2 5 l 25
EndSplineSet
EndChar

StartChar: ecircumflex
Encoding: 234 234 168
Width: 6
VWidth: 0
Flags: W
HStem: 0 1<3.12 5.21> 2 1<3.12 4.17> 4 1<3.12 4.17>
VStem: 1 2<1.04 2.09 3.12 4.17> 4 1<3.12 4.17>
LayerCount: 2
Back
Fore
SplineSet
1 6 m 25
 1 7 l 25
 2 7 l 1
 2 8 l 29
 4 8 l 29
 4 7 l 1
 5 7 l 25
 5 6 l 25
 4 6 l 25
 4 7 l 25
 2 7 l 25
 2 6 l 25
 1 6 l 25
2 5 m 25
 4 5 l 25
 4 4 l 25
 3 4 l 25
 3 3 l 25
 4 3 l 25
 4 4 l 25
 5 4 l 25
 5 2 l 25
 3 2 l 25
 3 1 l 25
 5 1 l 25
 5 0 l 25
 2 0 l 25
 2 1 l 25
 1 1 l 25
 1 4 l 25
 2 4 l 25
 2 5 l 25
EndSplineSet
EndChar

StartChar: edieresis
Encoding: 235 235 169
Width: 6
VWidth: 0
Flags: W
HStem: 0 1<3.12 5.21> 2 1<3.12 4.17> 4 1<3.12 4.17>
VStem: 1 2<1.04 2.09 3.12 4.17> 4 1<3.12 4.17>
LayerCount: 2
Back
Fore
SplineSet
4 6 m 29
 4 7 l 25
 5 7 l 25
 5 6 l 25
 4 6 l 29
2 6 m 25
 2 7 l 25
 3 7 l 25
 3 6 l 25
 2 6 l 25
2 5 m 25
 4 5 l 25
 4 4 l 25
 3 4 l 25
 3 3 l 25
 4 3 l 25
 4 4 l 25
 5 4 l 25
 5 2 l 25
 3 2 l 25
 3 1 l 25
 5 1 l 25
 5 0 l 25
 2 0 l 25
 2 1 l 25
 1 1 l 25
 1 4 l 25
 2 4 l 25
 2 5 l 25
EndSplineSet
EndChar

StartChar: igrave
Encoding: 236 236 170
Width: 6
VWidth: 0
Flags: W
HStem: 0 0G<2.09 4.17> 5 0G<2.09 4.17> 6 1<2.09 4.17>
VStem: 2 2<0 5.21 6.25 7.29>
LayerCount: 2
Back
Fore
SplineSet
2 7 m 1
 2 8 l 29
 3 8 l 29
 3 7 l 1
 4 7 l 25
 4 6 l 25
 3 6 l 25
 3 7 l 25
 2 7 l 1
2 5 m 25
 4 5 l 25
 4 0 l 25
 2 0 l 25
 2 5 l 25
EndSplineSet
EndChar

StartChar: iacute
Encoding: 237 237 171
Width: 6
VWidth: 0
Flags: W
HStem: 0 0G<2.09 4.17> 5 0G<2.09 4.17> 6 1<2.09 4.17>
VStem: 2 2<0 5.21 6.25 7.29>
LayerCount: 2
Back
Fore
SplineSet
2 6 m 25
 2 7 l 25
 3 7 l 1
 3 8 l 29
 4 8 l 29
 4 7 l 1
 3 7 l 25
 3 6 l 25
 2 6 l 25
2 5 m 25
 4 5 l 25
 4 0 l 25
 2 0 l 25
 2 5 l 25
EndSplineSet
EndChar

StartChar: icircumflex
Encoding: 238 238 172
Width: 6
VWidth: 0
Flags: W
HStem: 0 0G<2.09 4.17> 5 0G<2.09 4.17> 6 1<2.09 4.17>
VStem: 2 2<0 5.21 6.25 7.29>
LayerCount: 2
Back
Fore
SplineSet
1 6 m 25
 1 7 l 25
 2 7 l 1
 2 8 l 5
 4 8 l 1
 4 7 l 1
 5 7 l 25
 5 6 l 25
 4 6 l 25
 4 7 l 25
 2 7 l 25
 2 6 l 25
 1 6 l 25
2 5 m 25
 4 5 l 25
 4 0 l 25
 2 0 l 25
 2 5 l 25
EndSplineSet
EndChar

StartChar: idieresis
Encoding: 239 239 173
Width: 6
VWidth: 0
Flags: W
HStem: 0 0G<2.09 4.17> 5 0G<2.09 4.17> 6 1<2.09 4.17>
VStem: 2 2<0 5.21 6.25 7.29>
LayerCount: 2
Back
Fore
SplineSet
4 6 m 29
 4 7 l 25
 5 7 l 25
 5 6 l 25
 4 6 l 29
1 6 m 25
 1 7 l 25
 2 7 l 25
 2 6 l 25
 1 6 l 25
2 5 m 25
 4 5 l 25
 4 0 l 25
 2 0 l 25
 2 5 l 25
EndSplineSet
EndChar

StartChar: eth
Encoding: 240 240 174
Width: 6
VWidth: 0
Flags: W
HStem: 0 1<1.04 3.11> 1 1<-0.02 1.04> 2 1<1.04 3.11> 4 1<2.06 3.11> 5 1<4.16 5.19> 6 1<2.06 3.11>
VStem: 0 1<1.04 2.09> 2 1<6.25 7.29> 3 1<1.04 2.09 3.12 4.17>
LayerCount: 2
Back
Fore
SplineSet
2 7 m 25x37
 3 7 l 25
 3 6 l 1x37
 5 6 l 5
 5 5 l 1
 5 3 l 1
 5 1 l 1x4a80
 3 1 l 1
 3 2 l 1xa280
 1 2 l 25x4280
 1 1 l 1
 4 1 l 1
 4 0 l 1
 1 0 l 1
 1 1 l 25x8280
 0 1 l 25
 0 2 l 25
 1 2 l 25x4280
 1 3 l 25
 3 3 l 1
 3 4 l 25x3280
 2 4 l 1
 2 5 l 25x33
 3 5 l 25x3280
 3 6 l 25
 2 6 l 25
 2 7 l 25x37
EndSplineSet
EndChar

StartChar: ntilde
Encoding: 241 241 175
Width: 6
VWidth: 0
Flags: W
HStem: 0 0G<1.04 3.12 4.17 5.21> 4 1<3.12 4.17>
VStem: 1 2<0 4.17> 4 1<0 4.17>
LayerCount: 2
Back
Fore
SplineSet
1 6 m 25
 1 7 l 25
 2 7 l 1
 2 8 l 29
 3 8 l 29
 3 7 l 1
 4 7 l 1
 4 8 l 29
 5 8 l 29
 5 7 l 1
 4 7 l 25
 4 6 l 25
 3 6 l 25
 3 7 l 25
 2 7 l 25
 2 6 l 25
 1 6 l 25
1 5 m 25
 4 5 l 25
 4 4 l 25
 5 4 l 25
 5 0 l 25
 4 0 l 25
 4 4 l 25
 3 4 l 25
 3 0 l 25
 1 0 l 25
 1 5 l 25
EndSplineSet
EndChar

StartChar: ograve
Encoding: 242 242 176
Width: 6
VWidth: 0
Flags: W
HStem: 0 1<3.12 4.17> 1 3<1.04 2.09 4.17 5.21> 4 1<3.12 4.17>
VStem: 1 2<1.04 4.17> 2 2<0 1.04 4.17 5.21> 4 1<1.04 4.17>
LayerCount: 2
Back
Fore
SplineSet
2 7 m 1
 2 8 l 29
 3 8 l 29
 3 7 l 1
 4 7 l 25
 4 6 l 25
 3 6 l 25
 3 7 l 25
 2 7 l 1
1 4 m 25x50
 2 4 l 25x48
 2 5 l 25
 4 5 l 25x28
 4 4 l 25x48
 3 4 l 25
 3 1 l 25xb0
 4 1 l 25xa8
 4 4 l 25x48
 5 4 l 25
 5 1 l 25x44
 4 1 l 25
 4 0 l 25
 2 0 l 25x88
 2 1 l 25x48
 1 1 l 25
 1 4 l 25x50
EndSplineSet
EndChar

StartChar: oacute
Encoding: 243 243 177
Width: 6
VWidth: 0
Flags: W
HStem: 0 1<3.12 4.17> 1 3<1.04 2.09 4.17 5.21> 4 1<3.12 4.17>
VStem: 1 2<1.04 4.17> 2 2<0 1.04 4.17 5.21> 4 1<1.04 4.17>
LayerCount: 2
Back
Fore
SplineSet
2 6 m 25
 2 7 l 25
 3 7 l 1
 3 8 l 29
 4 8 l 29
 4 7 l 1
 3 7 l 25
 3 6 l 25
 2 6 l 25
1 4 m 25x50
 2 4 l 25x48
 2 5 l 25
 4 5 l 25x28
 4 4 l 25x48
 3 4 l 25
 3 1 l 25xb0
 4 1 l 25xa8
 4 4 l 25x48
 5 4 l 25
 5 1 l 25x44
 4 1 l 25
 4 0 l 25
 2 0 l 25x88
 2 1 l 25x48
 1 1 l 25
 1 4 l 25x50
EndSplineSet
EndChar

StartChar: ocircumflex
Encoding: 244 244 178
Width: 6
VWidth: 0
Flags: W
HStem: 0 1<3.12 4.17> 1 3<1.04 2.09 4.17 5.21> 4 1<3.12 4.17>
VStem: 1 2<1.04 4.17> 2 2<0 1.04 4.17 5.21> 4 1<1.04 4.17>
LayerCount: 2
Back
Fore
SplineSet
1 6 m 25
 1 7 l 25
 2 7 l 1
 2 8 l 29
 4 8 l 29
 4 7 l 1
 5 7 l 25
 5 6 l 25
 4 6 l 25
 4 7 l 25
 2 7 l 25
 2 6 l 25
 1 6 l 25
1 4 m 25x50
 2 4 l 25x48
 2 5 l 25
 4 5 l 25x28
 4 4 l 25x48
 3 4 l 25
 3 1 l 25xb0
 4 1 l 25xa8
 4 4 l 25x48
 5 4 l 25
 5 1 l 25x44
 4 1 l 25
 4 0 l 25
 2 0 l 25x88
 2 1 l 25x48
 1 1 l 25
 1 4 l 25x50
EndSplineSet
EndChar

StartChar: otilde
Encoding: 245 245 179
Width: 6
VWidth: 0
Flags: W
HStem: 0 1<3.12 4.17> 1 3<1.04 2.09 4.17 5.21> 4 1<3.12 4.17>
VStem: 1 2<1.04 4.17> 2 2<0 1.04 4.17 5.21> 4 1<1.04 4.17>
LayerCount: 2
Back
Fore
SplineSet
1 6 m 25
 1 7 l 25
 2 7 l 1
 2 8 l 29
 3 8 l 29
 3 7 l 1
 4 7 l 1
 4 8 l 29
 5 8 l 29
 5 7 l 1
 4 7 l 25
 4 6 l 25
 3 6 l 25
 3 7 l 25
 2 7 l 25
 2 6 l 25
 1 6 l 25
1 4 m 25x50
 2 4 l 25x48
 2 5 l 25
 4 5 l 25x28
 4 4 l 25x48
 3 4 l 25
 3 1 l 25xb0
 4 1 l 25xa8
 4 4 l 25x48
 5 4 l 25
 5 1 l 25x44
 4 1 l 25
 4 0 l 25
 2 0 l 25x88
 2 1 l 25x48
 1 1 l 25
 1 4 l 25x50
EndSplineSet
EndChar

StartChar: odieresis
Encoding: 246 246 180
Width: 6
VWidth: 0
Flags: W
HStem: 0 1<3.12 4.17> 1 3<1.04 2.09 4.17 5.21> 4 1<3.12 4.17>
VStem: 1 2<1.04 4.17> 2 2<0 1.04 4.17 5.21> 4 1<1.04 4.17>
LayerCount: 2
Back
Fore
SplineSet
4 6 m 29
 4 7 l 25
 5 7 l 25
 5 6 l 25
 4 6 l 29
2 6 m 25
 2 7 l 25
 3 7 l 25
 3 6 l 25
 2 6 l 25
1 4 m 25x50
 2 4 l 25x48
 2 5 l 25
 4 5 l 25x28
 4 4 l 25x48
 3 4 l 25
 3 1 l 25xb0
 4 1 l 25xa8
 4 4 l 25x48
 5 4 l 25
 5 1 l 25x44
 4 1 l 25
 4 0 l 25
 2 0 l 25x88
 2 1 l 25x48
 1 1 l 25
 1 4 l 25x50
EndSplineSet
EndChar

StartChar: divide
Encoding: 247 247 181
Width: 6
VWidth: 0
Flags: W
HStem: 1 1<3.12 4.17> 3 1<1.04 6.25> 5 1<3.12 4.17>
VStem: 3 1<1.04 2.09 5.21 6.25>
LayerCount: 2
Back
Fore
SplineSet
3 2 m 25
 4 2 l 25
 4 1 l 25
 3 1 l 25
 3 2 l 25
1 4 m 25
 6 4 l 25
 6 3 l 25
 1 3 l 25
 1 4 l 25
3 6 m 25
 4 6 l 25
 4 5 l 25
 3 5 l 25
 3 6 l 25
EndSplineSet
EndChar

StartChar: oslash
Encoding: 248 248 182
Width: 6
VWidth: 0
Flags: W
HStem: 0 1<3.12 4.17> 1 3<1.04 2.09 4.17 5.21> 4 1<3.12 4.17>
VStem: 1 2<1.04 4.17> 2 2<0 1.04 4.17 5.21> 4 1<1.04 4.17>
LayerCount: 2
Back
Fore
SplineSet
0 0 m 29
 0 1 l 25
 1 1 l 25
 1 4 l 25
 2 4 l 25
 2 5 l 25
 4 5 l 25
 4 4 l 25
 3 4 l 25
 3 3 l 25
 4 3 l 25
 4 4 l 25
 5 4 l 25
 5 5 l 25
 6 5 l 25
 6 4 l 25
 5 4 l 25
 5 1 l 25
 4 1 l 25
 4 2 l 25
 3 2 l 25
 3 1 l 25
 4 1 l 25
 4 0 l 25
 2 0 l 25
 2 1 l 25
 1 1 l 25
 1 0 l 25
 0 0 l 29
EndSplineSet
EndChar

StartChar: ugrave
Encoding: 249 249 183
Width: 6
VWidth: 0
Flags: W
HStem: 0 1<2.09 3.12> 5 0G<1.04 2.09 3.12 5.21>
VStem: 1 1<1.04 5.21> 3 2<1.04 5.21>
LayerCount: 2
Back
Fore
SplineSet
2 7 m 1
 2 8 l 1
 3 8 l 5
 3 7 l 1
 4 7 l 25
 4 6 l 25
 3 6 l 25
 3 7 l 25
 2 7 l 1
1 5 m 25
 2 5 l 25
 2 1 l 25
 3 1 l 25
 3 5 l 25
 5 5 l 25
 5 0 l 25
 2 0 l 25
 2 1 l 25
 1 1 l 25
 1 5 l 25
EndSplineSet
EndChar

StartChar: uacute
Encoding: 250 250 184
Width: 6
VWidth: 0
Flags: W
HStem: 0 1<2.09 3.12> 5 0G<1.04 2.09 3.12 5.21>
VStem: 1 1<1.04 5.21> 3 2<1.04 5.21>
LayerCount: 2
Back
Fore
SplineSet
2 6 m 25
 2 7 l 25
 3 7 l 1
 3 8 l 1
 4 8 l 5
 4 7 l 1
 3 7 l 25
 3 6 l 25
 2 6 l 25
1 5 m 25
 2 5 l 25
 2 1 l 25
 3 1 l 25
 3 5 l 25
 5 5 l 25
 5 0 l 25
 2 0 l 25
 2 1 l 25
 1 1 l 25
 1 5 l 25
EndSplineSet
EndChar

StartChar: ucircumflex
Encoding: 251 251 185
Width: 6
VWidth: 0
Flags: W
HStem: 0 1<2.09 3.12> 5 0G<1.04 2.09 3.12 5.21>
VStem: 1 1<1.04 5.21> 3 2<1.04 5.21>
LayerCount: 2
Back
Fore
SplineSet
1 6 m 25
 1 7 l 25
 2 7 l 1
 2 8 l 1
 4 8 l 5
 4 7 l 1
 5 7 l 25
 5 6 l 25
 4 6 l 25
 4 7 l 25
 2 7 l 25
 2 6 l 25
 1 6 l 25
1 5 m 25
 2 5 l 25
 2 1 l 25
 3 1 l 25
 3 5 l 25
 5 5 l 25
 5 0 l 25
 2 0 l 25
 2 1 l 25
 1 1 l 25
 1 5 l 25
EndSplineSet
EndChar

StartChar: udieresis
Encoding: 252 252 186
Width: 6
VWidth: 0
Flags: W
HStem: 0 1<2.09 3.12> 5 0G<1.04 2.09 3.12 5.21>
VStem: 1 1<1.04 5.21> 3 2<1.04 5.21>
LayerCount: 2
Back
Fore
SplineSet
3 6 m 29
 3 7 l 25
 4 7 l 25
 4 6 l 25
 3 6 l 29
1 6 m 25
 1 7 l 25
 2 7 l 25
 2 6 l 25
 1 6 l 25
1 5 m 25
 2 5 l 25
 2 1 l 25
 3 1 l 25
 3 5 l 25
 5 5 l 25
 5 0 l 25
 2 0 l 25
 2 1 l 25
 1 1 l 25
 1 5 l 25
EndSplineSet
EndChar

StartChar: yacute
Encoding: 253 253 187
Width: 6
VWidth: 0
Flags: W
HStem: -1 1<2.09 3.12> 1 1<2.09 3.12> 5 0G<1.04 2.09 3.12 5.21>
VStem: 1 1<2.09 5.21> 3 2<0 1.04 2.09 5.21>
LayerCount: 2
Back
Fore
SplineSet
2 6 m 25
 2 7 l 25
 3 7 l 1
 3 8 l 1
 4 8 l 5
 4 7 l 1
 3 7 l 25
 3 6 l 25
 2 6 l 25
1 5 m 25
 2 5 l 25
 2 2 l 25
 3 2 l 25
 3 5 l 25
 5 5 l 25
 5 0 l 25
 4 0 l 25
 4 -1 l 25
 2 -1 l 25
 2 0 l 25
 3 0 l 25
 3 1 l 25
 2 1 l 25
 2 2 l 25
 1 2 l 25
 1 5 l 25
EndSplineSet
EndChar

StartChar: thorn
Encoding: 254 254 188
Width: 6
VWidth: 0
Flags: W
HStem: -1 0G<1.04 2.09> 1 1<2.09 4.17> 2 1<4.17 5.21> 6 0G<1.04 2.09>
VStem: 1 3<1.04 2.09 3.12 4.17> 1 1<-1.04 1.04 2.09 3.12 4.17 6.25> 4 1<2.09 3.12>
LayerCount: 2
Back
Fore
SplineSet
1 6 m 1xd4
 3 6 l 1
 3 4 l 1xd4
 4 4 l 1
 4 3 l 1xb8
 3 3 l 1xb4
 3 2 l 1xd4
 4 2 l 1xd8
 4 3 l 25xb8
 5 3 l 25
 5 2 l 25xb2
 4 2 l 25
 4 1 l 1xd8
 3 1 l 1
 3 -1 l 5
 1 -1 l 1
 1 6 l 1xd4
EndSplineSet
EndChar

StartChar: ydieresis
Encoding: 255 255 189
Width: 6
VWidth: 0
Flags: W
HStem: -1 1<2.09 3.12> 1 1<2.09 3.12> 5 0G<1.04 2.09 3.12 5.21>
VStem: 1 1<2.09 5.21> 3 2<0 1.04 2.09 5.21>
LayerCount: 2
Back
Fore
SplineSet
3 6 m 29
 3 7 l 25
 4 7 l 25
 4 6 l 25
 3 6 l 29
1 6 m 25
 1 7 l 25
 2 7 l 25
 2 6 l 25
 1 6 l 25
1 5 m 25
 2 5 l 25
 2 2 l 25
 3 2 l 25
 3 5 l 25
 5 5 l 25
 5 0 l 25
 4 0 l 25
 4 -1 l 25
 2 -1 l 25
 2 0 l 25
 3 0 l 25
 3 1 l 25
 2 1 l 25
 2 2 l 25
 1 2 l 25
 1 5 l 25
EndSplineSet
EndChar

StartChar: Euro
Encoding: 164 8364 256
Width: 6
VWidth: 0
Flags: W
HStem: 0 0<0.31 0.62> 0 0<0.11 0.21 0.31 0.52>
VStem: 0 0<0.11 0.21 0.42 0.52> 0 0<0 0.11 0.52 0.62>
LayerCount: 2
Fore
SplineSet
0 0 m 25xd0
 0 0 l 25
 0 0 l 25
 0 0 l 25
 0 0 l 25
 0 0 l 25
 0 0 l 25
 0 0 l 25
 0 0 l 25xe0
 0 1 l 25
 1 1 l 25
 1 0 l 25xd0
 0 0 l 25
 0 0 l 25
 0 0 l 25
 0 0 l 25
 0 0 l 25
 0 0 l 25xe0
 1 0 l 25
 1 0 l 25
 0 0 l 25xd0
EndSplineSet
EndChar

StartChar: uni0185
Encoding: 270 389 270
Width: 6
VWidth: 0
Flags: W
LayerCount: 2
Back
SplineSet
0 0.0810546875 m 29
 0.060546875 0.0810546875 l 25
 0.060546875 -0.0205078125 l 25
 0 -0.0205078125 l 25
 0 0.0810546875 l 29
EndSplineSet
EndChar

StartChar: pi
Encoding: 401 960 401
Width: 6
VWidth: 0
Flags: W
HStem: 0 1<4.18 5.21> 4 1<0 1.04 2.09 3.12 4.18 5.21>
VStem: 1 1<0 4.18> 3 1<1.04 4.18> 4 1<0 1.04>
LayerCount: 2
Back
Fore
SplineSet
0 5 m 25xf0
 5 5 l 25
 5 4 l 25xe8
 4 4 l 25
 4 1 l 25xf0
 5 1 l 25
 5 0 l 25
 4 0 l 25xe8
 4 1 l 25
 3 1 l 25
 3 4 l 25
 2 4 l 25
 2 0 l 25
 1 0 l 25
 1 4 l 25
 0 4 l 25
 0 5 l 25xf0
EndSplineSet
EndChar

StartChar: arrowup
Encoding: 402 8593 402
Width: 6
VWidth: 0
Flags: W
HStem: 0 0G<3.12 4.18> 4 1<1.04 2.09 5.21 6.25> 5 1<2.09 3.12 4.18 5.21> 7 0G<3.12 4.18>
VStem: 1 1<4.18 5.21> 3 1<0 5.21 6.25 7.29> 5 1<4.18 5.21>
CounterMasks: 1 0e
LayerCount: 2
Back
Fore
SplineSet
1 5 m 25xde
 2 5 l 25xde
 2 6 l 25
 3 6 l 25
 3 7 l 25
 4 7 l 25
 4 6 l 25
 5 6 l 25xbe
 5 5 l 25
 6 5 l 25
 6 4 l 25
 5 4 l 25
 5 5 l 25xde
 4 5 l 25
 4 0 l 25
 3 0 l 25
 3 5 l 25xbe
 2 5 l 25
 2 4 l 25
 1 4 l 25
 1 5 l 25xde
EndSplineSet
EndChar

StartChar: arrowdown
Encoding: 403 8595 403
Width: 6
VWidth: 0
Flags: W
HStem: 0 0G<3.12 4.18> 1 1<2.09 3.12 4.18 5.21> 2 1<1.04 2.09 5.21 6.25> 7 0G<3.12 4.18>
VStem: 1 1<2.09 3.12> 3 1<0 1.04 2.09 7.29> 5 1<2.09 3.12>
CounterMasks: 1 0e
LayerCount: 2
Back
Fore
SplineSet
3 7 m 25xde
 4 7 l 25
 4 2 l 25
 5 2 l 25xde
 5 3 l 25
 6 3 l 25
 6 2 l 25xbe
 5 2 l 25
 5 1 l 25
 4 1 l 25
 4 0 l 25
 3 0 l 25
 3 1 l 25
 2 1 l 25
 2 2 l 25xde
 1 2 l 25
 1 3 l 25
 2 3 l 25xbe
 2 2 l 25
 3 2 l 25
 3 7 l 25xde
EndSplineSet
EndChar

StartChar: lessequal
Encoding: 404 8804 404
Width: 6
VWidth: 0
Flags: W
HStem: -2 1<2.09 3.12> -1 1<1.04 2.09> 0 1<0 1.04 3.12 4.18> 1 1<2.09 3.12> 2 1<1.04 2.09> 4 1<1.04 2.09> 5 1<2.09 3.12> 6 1<3.12 4.18>
VStem: 0 1<0 1.04 3.12 4.18> 1 1<-1.04 0 2.09 3.12 4.18 5.21> 2 1<-2.09 -1.04 1.04 2.09 5.21 6.25> 3 1<0 1.04 6.25 7.29>
LayerCount: 2
Back
Fore
SplineSet
0 1 m 25x2080
 1 1 l 25x2080
 1 0 l 25x4080
 2 0 l 25x4040
 2 -1 l 25x8040
 3 -1 l 25
 3 -2 l 25
 2 -2 l 25x8020
 2 -1 l 25x8040
 1 -1 l 25x4040
 1 0 l 25x4080
 0 0 l 25
 0 1 l 25x2080
3 7 m 25x0110
 4 7 l 25
 4 6 l 25x0110
 3 6 l 25
 3 5 l 25x0220
 2 5 l 25
 2 4 l 25x0440
 1 4 l 25
 1 3 l 25x0c80
 2 3 l 25x0c40
 2 2 l 25x1040
 3 2 l 25x1020
 3 1 l 25x2020
 4 1 l 25
 4 0 l 25
 3 0 l 25x2010
 3 1 l 25x2020
 2 1 l 25x1020
 2 2 l 25x1040
 1 2 l 25x0840
 1 3 l 25
 0 3 l 25
 0 4 l 25
 1 4 l 25x0c80
 1 5 l 25
 2 5 l 25x0c40
 2 6 l 25
 3 6 l 25x0220
 3 7 l 25x0110
EndSplineSet
EndChar

StartChar: greaterequal
Encoding: 405 8805 405
Width: 6
VWidth: 0
Flags: W
HStem: -2 1<2.09 3.12> -1 1<3.12 4.18> 0 1<1.04 2.09 4.18 5.21> 1 1<2.09 3.12> 2 1<3.12 4.18> 4 1<3.12 4.18> 5 1<2.09 3.12> 6 1<1.04 2.09>
VStem: 1 1<0 1.04 6.25 7.29> 2 1<-2.09 -1.04 1.04 2.09 5.21 6.25> 3 1<-1.04 0 2.09 3.12 4.18 5.21> 4 1<0 1.04 3.12 4.18>
LayerCount: 2
Back
Fore
SplineSet
4 1 m 25x2010
 5 1 l 25
 5 0 l 25x2010
 4 0 l 25
 4 -1 l 25x4020
 3 -1 l 25
 3 -2 l 25
 2 -2 l 25
 2 -1 l 25
 3 -1 l 25x8040
 3 0 l 25
 4 0 l 25x4020
 4 1 l 25x2010
1 7 m 25x0180
 2 7 l 25x0180
 2 6 l 25x0280
 3 6 l 25x0240
 3 5 l 25x0440
 4 5 l 25
 4 4 l 25x0420
 5 4 l 25
 5 3 l 25x0c10
 4 3 l 25
 4 2 l 25x0c20
 3 2 l 25
 3 1 l 25x1040
 2 1 l 25
 2 0 l 25
 1 0 l 25
 1 1 l 25
 2 1 l 25x2080
 2 2 l 25
 3 2 l 25x1040
 3 3 l 25
 4 3 l 25
 4 4 l 25
 3 4 l 25x0c20
 3 5 l 25x0c40
 2 5 l 25x0240
 2 6 l 25x0280
 1 6 l 25
 1 7 l 25x0180
EndSplineSet
EndChar

StartChar: SF100000
Encoding: 406 9472 406
Width: 6
VWidth: 0
Flags: W
HStem: 3 1<0 6.25>
LayerCount: 2
Back
Fore
SplineSet
0 4 m 25
 6 4 l 25
 6 3 l 25
 0 3 l 25
 0 4 l 25
EndSplineSet
EndChar

StartChar: uni2501
Encoding: 407 9473 407
Width: 6
VWidth: 0
Flags: W
HStem: 2 2<0 6.25>
LayerCount: 2
Back
Fore
SplineSet
0 4 m 25
 6 4 l 25
 6 2 l 25
 0 2 l 25
 0 4 l 25
EndSplineSet
EndChar

StartChar: SF110000
Encoding: 408 9474 408
Width: 6
VWidth: 0
Flags: W
VStem: 2 1<-2.09 8.34>
LayerCount: 2
Back
Fore
SplineSet
2 8 m 1
 3 8 l 5
 3 -2 l 1
 2 -2 l 1
 2 8 l 1
EndSplineSet
EndChar

StartChar: uni2503
Encoding: 409 9475 409
Width: 6
VWidth: 0
Flags: W
VStem: 2 2<-2.09 8.34>
LayerCount: 2
Back
Fore
SplineSet
2 8 m 1
 4 8 l 5
 4 -2 l 1
 2 -2 l 1
 2 8 l 1
EndSplineSet
EndChar

StartChar: uni2504
Encoding: 410 9476 410
Width: 6
VWidth: 0
Flags: W
HStem: 3 1<0 1.04 2.09 3.12 4.18 5.21>
VStem: 0 1<3.12 4.18> 2 1<3.12 4.18> 4 1<3.12 4.18>
CounterMasks: 1 70
LayerCount: 2
Back
Fore
SplineSet
5 3 m 25
 4 3 l 25
 4 4 l 25
 5 4 l 25
 5 3 l 25
3 4 m 25
 3 3 l 25
 2 3 l 25
 2 4 l 25
 3 4 l 25
0 4 m 25
 1 4 l 25
 1 3 l 25
 0 3 l 25
 0 4 l 25
EndSplineSet
EndChar

StartChar: uni2505
Encoding: 411 9477 411
Width: 6
VWidth: 0
Flags: W
HStem: 2 2<0 1.04 2.09 3.12 4.18 5.21>
VStem: 0 1<2.09 4.18> 2 1<2.09 4.18> 4 1<2.09 4.18>
CounterMasks: 1 70
LayerCount: 2
Back
Fore
SplineSet
4 4 m 25
 5 4 l 25
 5 2 l 25
 4 2 l 25
 4 4 l 25
2 4 m 25
 3 4 l 25
 3 2 l 25
 2 2 l 25
 2 4 l 25
0 4 m 25
 1 4 l 25
 1 2 l 25
 0 2 l 25
 0 4 l 25
EndSplineSet
EndChar

StartChar: uni2506
Encoding: 412 9478 412
Width: 6
VWidth: 0
Flags: W
HStem: 0 0G<2.09 3.12> 5 0G<2.09 3.12> 6 0G<2.09 3.12>
VStem: 2 1<-2.09 0 1.04 5.21 6.25 8.34>
LayerCount: 2
Back
Fore
SplineSet
2 0 m 25
 3 0 l 25
 3 -2 l 25
 2 -2 l 25
 2 0 l 25
2 5 m 25
 3 5 l 25
 3 1 l 25
 2 1 l 25
 2 5 l 25
2 8 m 1
 3 8 l 5
 3 6 l 1
 2 6 l 1
 2 8 l 1
EndSplineSet
EndChar

StartChar: uni2507
Encoding: 413 9479 413
Width: 6
VWidth: 0
Flags: W
HStem: -2 2<2.09 4.18> 5 0G<2.09 4.18> 6 2<2.09 4.18>
VStem: 2 2<-2.09 0 1.04 5.21 6.25 8.34>
LayerCount: 2
Back
Fore
SplineSet
2 0 m 25
 4 0 l 25
 4 -2 l 25
 2 -2 l 25
 2 0 l 25
2 5 m 25
 4 5 l 25
 4 1 l 25
 2 1 l 25
 2 5 l 25
2 8 m 1
 4 8 l 5
 4 6 l 1
 2 6 l 1
 2 8 l 1
EndSplineSet
EndChar

StartChar: uni2508
Encoding: 414 9480 414
Width: 6
VWidth: 0
Flags: W
HStem: 3 1<0 1.04 2.09 3.12 4.18 5.21>
VStem: 0 1<3.12 4.18> 2 1<3.12 4.18> 4 1<3.12 4.18>
CounterMasks: 1 70
LayerCount: 2
Back
Fore
SplineSet
4 4 m 25
 5 4 l 25
 5 3 l 25
 4 3 l 25
 4 4 l 25
2 4 m 25
 3 4 l 25
 3 3 l 25
 2 3 l 25
 2 4 l 25
0 4 m 25
 1 4 l 25
 1 3 l 25
 0 3 l 25
 0 4 l 25
EndSplineSet
EndChar

StartChar: uni2509
Encoding: 415 9481 415
Width: 6
VWidth: 0
Flags: W
HStem: 2 2<0 1.04 2.09 3.12 4.18 5.21>
VStem: 0 1<2.09 4.18> 2 1<2.09 4.18> 4 1<2.09 4.18>
CounterMasks: 1 70
LayerCount: 2
Back
Fore
SplineSet
4 4 m 25
 5 4 l 25
 5 2 l 25
 4 2 l 25
 4 4 l 25
2 4 m 25
 3 4 l 25
 3 2 l 25
 2 2 l 25
 2 4 l 25
0 4 m 25
 1 4 l 25
 1 2 l 25
 0 2 l 25
 0 4 l 25
EndSplineSet
EndChar

StartChar: uni250A
Encoding: 416 9482 416
Width: 6
VWidth: 0
Flags: W
HStem: -2 1<2.09 3.12> 0 0G<2.09 3.12> 5 0G<2.09 3.12> 6 0G<2.09 3.12>
VStem: 2 1<-2.09 -1.04 0 2.09 3.12 5.21 6.25 8.34>
LayerCount: 2
Back
Fore
SplineSet
2 -1 m 25
 3 -1 l 25
 3 -2 l 25
 2 -2 l 25
 2 -1 l 25
2 2 m 25
 3 2 l 25
 3 0 l 25
 2 0 l 25
 2 2 l 25
2 5 m 25
 3 5 l 25
 3 3 l 25
 2 3 l 25
 2 5 l 25
2 8 m 1
 3 8 l 5
 3 6 l 1
 2 6 l 1
 2 8 l 1
EndSplineSet
EndChar

StartChar: uni250B
Encoding: 417 9483 417
Width: 6
VWidth: 0
Flags: W
HStem: -2 1<2.09 4.18> 0 2<2.09 4.18> 3 2<2.09 4.18> 6 2<2.09 4.18>
VStem: 2 2<-2.09 -1.04 0 2.09 3.12 5.21 6.25 8.34>
LayerCount: 2
Back
Fore
SplineSet
2 -1 m 25
 4 -1 l 25
 4 -2 l 25
 2 -2 l 25
 2 -1 l 25
2 2 m 25
 4 2 l 25
 4 0 l 25
 2 0 l 25
 2 2 l 25
2 5 m 25
 4 5 l 25
 4 3 l 25
 2 3 l 25
 2 5 l 25
2 8 m 1
 4 8 l 5
 4 6 l 1
 2 6 l 1
 2 8 l 1
EndSplineSet
EndChar

StartChar: SF010000
Encoding: 418 9484 418
Width: 6
VWidth: 0
Flags: W
HStem: 3 1<3.12 6.25>
VStem: 2 1<-2.09 3.12>
LayerCount: 2
Back
Fore
SplineSet
2 4 m 25
 6 4 l 25
 6 3 l 25
 3 3 l 25
 3 -2 l 25
 2 -2 l 25
 2 4 l 25
EndSplineSet
EndChar

StartChar: uni250D
Encoding: 419 9485 419
Width: 6
VWidth: 0
Flags: W
HStem: 2 2<3.12 6.25>
VStem: 2 1<-2.09 2.09>
LayerCount: 2
Back
Fore
SplineSet
2 4 m 25
 6 4 l 25
 6 2 l 25
 3 2 l 25
 3 -2 l 25
 2 -2 l 25
 2 4 l 25
EndSplineSet
EndChar

StartChar: uni250E
Encoding: 420 9486 420
Width: 6
VWidth: 0
Flags: W
HStem: 3 1<4.18 6.25>
VStem: 2 2<-2.09 3.12>
LayerCount: 2
Back
Fore
SplineSet
2 4 m 25
 6 4 l 25
 6 3 l 25
 4 3 l 25
 4 -2 l 25
 2 -2 l 25
 2 4 l 25
EndSplineSet
EndChar

StartChar: uni250F
Encoding: 421 9487 421
Width: 6
VWidth: 0
Flags: W
HStem: 2 2<4.18 6.25>
VStem: 2 2<-2.09 2.09>
LayerCount: 2
Back
Fore
SplineSet
2 4 m 25
 6 4 l 25
 6 2 l 25
 4 2 l 25
 4 -2 l 25
 2 -2 l 25
 2 4 l 25
EndSplineSet
EndChar

StartChar: SF030000
Encoding: 422 9488 422
Width: 6
VWidth: 0
Flags: W
HStem: 3 1<0 2.09>
VStem: 2 1<-2.09 3.12>
LayerCount: 2
Back
Fore
SplineSet
0 4 m 25
 3 4 l 25
 3 -2 l 25
 2 -2 l 25
 2 3 l 25
 0 3 l 25
 0 4 l 25
EndSplineSet
EndChar

StartChar: uni2511
Encoding: 423 9489 423
Width: 6
VWidth: 0
Flags: W
HStem: 2 2<0 2.09>
VStem: 0 3<2.09 4.18> 2 1<-2.09 2.09>
LayerCount: 2
Back
Fore
SplineSet
0 4 m 25xc0
 3 4 l 25xc0
 3 -2 l 25
 2 -2 l 25
 2 2 l 25xa0
 0 2 l 25
 0 4 l 25xc0
EndSplineSet
EndChar

StartChar: uni2512
Encoding: 424 9490 424
Width: 6
VWidth: 0
Flags: W
HStem: 3 1<0 2.09>
VStem: 2 2<-2.09 3.12>
LayerCount: 2
Back
Fore
SplineSet
0 4 m 25
 4 4 l 25
 4 -2 l 25
 2 -2 l 25
 2 3 l 25
 0 3 l 25
 0 4 l 25
EndSplineSet
EndChar

StartChar: uni2513
Encoding: 425 9491 425
Width: 6
VWidth: 0
Flags: W
HStem: 2 2<0 2.09>
VStem: 2 2<-2.09 2.09>
LayerCount: 2
Back
Fore
SplineSet
0 4 m 25
 4 4 l 25
 4 -2 l 25
 2 -2 l 25
 2 2 l 25
 0 2 l 25
 0 4 l 25
EndSplineSet
EndChar

StartChar: SF020000
Encoding: 426 9492 426
Width: 6
VWidth: 0
Flags: W
HStem: 3 1<3.12 6.25>
VStem: 2 1<4.18 8.34>
LayerCount: 2
Back
Fore
SplineSet
2 8 m 5
 3 8 l 1
 3 4 l 1
 6 4 l 25
 6 3 l 25
 2 3 l 1
 2 8 l 5
EndSplineSet
EndChar

StartChar: uni2515
Encoding: 427 9493 427
Width: 6
VWidth: 0
Flags: W
HStem: 2 2<3.12 6.25>
VStem: 2 1<4.18 8.34>
LayerCount: 2
Back
Fore
SplineSet
2 8 m 1
 3 8 l 5
 3 4 l 1
 6 4 l 25
 6 2 l 25
 2 2 l 1
 2 8 l 1
EndSplineSet
EndChar

StartChar: uni2516
Encoding: 428 9494 428
Width: 6
VWidth: 0
Flags: W
HStem: 3 1<4.18 6.25>
VStem: 2 2<4.18 8.34>
LayerCount: 2
Back
Fore
SplineSet
2 8 m 1
 4 8 l 5
 4 4 l 1
 6 4 l 25
 6 3 l 25
 2 3 l 1
 2 8 l 1
EndSplineSet
EndChar

StartChar: uni2517
Encoding: 429 9495 429
Width: 6
VWidth: 0
Flags: W
HStem: 2 2<4.18 6.25>
VStem: 2 2<4.18 8.34>
LayerCount: 2
Back
Fore
SplineSet
2 8 m 1
 4 8 l 5
 4 4 l 1
 6 4 l 25
 6 2 l 25
 2 2 l 1
 2 8 l 1
EndSplineSet
EndChar

StartChar: SF040000
Encoding: 430 9496 430
Width: 6
VWidth: 0
Flags: W
HStem: 3 1<0 2.09>
VStem: 2 1<4.18 8.34>
LayerCount: 2
Back
Fore
SplineSet
2 8 m 1
 3 8 l 5
 3 3 l 1
 0 3 l 25
 0 4 l 25
 2 4 l 1
 2 8 l 1
EndSplineSet
EndChar

StartChar: uni2519
Encoding: 431 9497 431
Width: 6
VWidth: 0
Flags: W
HStem: 2 2<0 2.09>
VStem: 0 3<2.09 4.18> 2 1<4.18 8.34>
LayerCount: 2
Back
Fore
SplineSet
2 8 m 1xa0
 3 8 l 5xa0
 3 2 l 1
 0 2 l 25
 0 4 l 25xc0
 2 4 l 1
 2 8 l 1xa0
EndSplineSet
EndChar

StartChar: uni251A
Encoding: 432 9498 432
Width: 6
VWidth: 0
Flags: W
HStem: 3 1<0 2.09>
VStem: 2 2<4.18 8.34>
LayerCount: 2
Back
Fore
SplineSet
2 8 m 1
 4 8 l 5
 4 3 l 1
 0 3 l 25
 0 4 l 25
 2 4 l 1
 2 8 l 1
EndSplineSet
EndChar

StartChar: uni251B
Encoding: 433 9499 433
Width: 6
VWidth: 0
Flags: W
HStem: 2 2<0 2.09>
VStem: 2 2<4.18 8.34>
LayerCount: 2
Back
Fore
SplineSet
2 8 m 5
 4 8 l 1
 4 2 l 1
 0 2 l 25
 0 4 l 25
 2 4 l 1
 2 8 l 5
EndSplineSet
EndChar

StartChar: SF080000
Encoding: 434 9500 434
Width: 6
VWidth: 0
Flags: W
HStem: 3 1<3.12 6.25>
VStem: 2 1<-2.09 3.12 4.18 8.34>
LayerCount: 2
Back
Fore
SplineSet
2 8 m 1
 3 8 l 5
 3 4 l 1
 6 4 l 25
 6 3 l 25
 3 3 l 25
 3 -2 l 25
 2 -2 l 1
 2 8 l 1
EndSplineSet
EndChar

StartChar: uni251D
Encoding: 435 9501 435
Width: 6
VWidth: 0
Flags: W
HStem: 2 2<3.12 6.25>
VStem: 2 1<-2.09 2.09 4.18 8.34>
LayerCount: 2
Back
Fore
SplineSet
2 8 m 1
 3 8 l 5
 3 4 l 1
 6 4 l 25
 6 2 l 25
 3 2 l 25
 3 -2 l 25
 2 -2 l 1
 2 8 l 1
EndSplineSet
EndChar

StartChar: uni251E
Encoding: 436 9502 436
Width: 6
VWidth: 0
Flags: W
HStem: 3 1<4.18 6.25>
VStem: 2 2<4.18 8.34> 2 1<-2.09 3.12>
LayerCount: 2
Back
Fore
SplineSet
2 8 m 1xc0
 4 8 l 5
 4 4 l 1xc0
 6 4 l 25
 6 3 l 25
 3 3 l 25
 3 -2 l 25
 2 -2 l 1xa0
 2 8 l 1xc0
EndSplineSet
EndChar

StartChar: uni251F
Encoding: 437 9503 437
Width: 6
VWidth: 0
Flags: W
HStem: 3 1<4.18 6.25>
VStem: 2 2<-2.09 3.12> 2 1<4.18 8.34>
LayerCount: 2
Back
Fore
SplineSet
2 8 m 1xa0
 3 8 l 5
 3 4 l 1xa0
 6 4 l 25
 6 3 l 25
 4 3 l 25
 4 -2 l 25
 2 -2 l 1xc0
 2 8 l 1xa0
EndSplineSet
EndChar

StartChar: uni2520
Encoding: 438 9504 438
Width: 6
VWidth: 0
Flags: W
HStem: 3 1<4.18 6.25>
VStem: 2 2<-2.09 3.12 4.18 8.34>
LayerCount: 2
Back
Fore
SplineSet
2 8 m 1
 4 8 l 5
 4 4 l 1
 6 4 l 25
 6 3 l 25
 4 3 l 25
 4 -2 l 25
 2 -2 l 1
 2 8 l 1
EndSplineSet
EndChar

StartChar: uni2521
Encoding: 439 9505 439
Width: 6
VWidth: 0
Flags: W
HStem: 2 2<4.18 6.25>
VStem: 2 2<4.18 8.34> 2 1<-2.09 2.09>
LayerCount: 2
Back
Fore
SplineSet
2 8 m 1xc0
 4 8 l 5
 4 4 l 1xc0
 6 4 l 25
 6 2 l 25
 3 2 l 25
 3 -2 l 25
 2 -2 l 1xa0
 2 8 l 1xc0
EndSplineSet
EndChar

StartChar: uni2522
Encoding: 440 9506 440
Width: 6
VWidth: 0
Flags: W
HStem: 2 2<4.18 6.25>
VStem: 2 2<-2.09 2.09> 2 1<4.18 8.34>
LayerCount: 2
Back
Fore
SplineSet
2 8 m 1xa0
 3 8 l 5
 3 4 l 1xa0
 6 4 l 25
 6 2 l 25
 4 2 l 25
 4 -2 l 25
 2 -2 l 1xc0
 2 8 l 1xa0
EndSplineSet
EndChar

StartChar: uni2523
Encoding: 441 9507 441
Width: 6
VWidth: 0
Flags: W
HStem: 2 2<4.18 6.25>
VStem: 2 2<-2.09 2.09 4.18 8.34>
LayerCount: 2
Back
Fore
SplineSet
2 8 m 29
 4 8 l 29
 4 4 l 1
 6 4 l 25
 6 2 l 25
 4 2 l 25
 4 -2 l 25
 2 -2 l 1
 2 8 l 29
EndSplineSet
EndChar

StartChar: SF090000
Encoding: 442 9508 442
Width: 6
VWidth: 0
Flags: W
HStem: 3 1<0 2.09>
VStem: 2 1<-2.09 3.12 4.18 8.34>
LayerCount: 2
Back
Fore
SplineSet
2 8 m 1
 3 8 l 5
 3 -2 l 1
 2 -2 l 25
 2 3 l 25
 0 3 l 25
 0 4 l 25
 2 4 l 1
 2 8 l 1
EndSplineSet
EndChar

StartChar: uni2525
Encoding: 443 9509 443
Width: 6
VWidth: 0
Flags: W
HStem: 2 2<0 2.09>
VStem: 0 3<2.09 4.18> 2 1<-2.09 2.09 4.18 8.34>
LayerCount: 2
Back
Fore
SplineSet
2 8 m 1xa0
 3 8 l 5
 3 -2 l 1
 2 -2 l 25
 2 2 l 25xa0
 0 2 l 25
 0 4 l 25xc0
 2 4 l 1
 2 8 l 1xa0
EndSplineSet
EndChar

StartChar: uni2526
Encoding: 444 9510 444
Width: 6
VWidth: 0
Flags: W
HStem: 3 1<0 2.09>
VStem: 2 2<4.18 8.34> 2 1<-2.09 3.12>
LayerCount: 2
Back
Fore
SplineSet
2 8 m 1xc0
 4 8 l 5
 4 4 l 1xc0
 3 4 l 25
 3 -2 l 25
 2 -2 l 25
 2 3 l 25xa0
 0 3 l 25
 0 4 l 25
 2 4 l 1
 2 8 l 1xc0
EndSplineSet
EndChar

StartChar: uni2527
Encoding: 445 9511 445
Width: 6
VWidth: 0
Flags: W
HStem: 3 1<0 2.09>
VStem: 2 2<-2.09 3.12> 2 1<4.18 8.34>
LayerCount: 2
Back
Fore
SplineSet
2 8 m 1xa0
 3 8 l 5
 3 3 l 1xa0
 4 3 l 25
 4 -2 l 25
 2 -2 l 25
 2 3 l 25xc0
 0 3 l 25
 0 4 l 25
 2 4 l 1
 2 8 l 1xa0
EndSplineSet
EndChar

StartChar: uni2528
Encoding: 446 9512 446
Width: 6
VWidth: 0
Flags: W
HStem: 3 1<0 2.09>
VStem: 2 2<-2.09 3.12 4.18 8.34>
LayerCount: 2
Back
Fore
SplineSet
2 8 m 1
 4 8 l 5
 4 -2 l 1
 2 -2 l 25
 2 3 l 25
 0 3 l 25
 0 4 l 25
 2 4 l 1
 2 8 l 1
EndSplineSet
EndChar

StartChar: uni2529
Encoding: 447 9513 447
Width: 6
VWidth: 0
Flags: W
HStem: 2 2<0 2.09>
VStem: 2 2<4.18 8.34> 2 1<-2.09 2.09>
LayerCount: 2
Back
Fore
SplineSet
2 8 m 1xc0
 4 8 l 5
 4 2 l 1xc0
 3 2 l 25
 3 -2 l 25
 2 -2 l 25
 2 2 l 25xa0
 0 2 l 25
 0 4 l 25
 2 4 l 1
 2 8 l 1xc0
EndSplineSet
EndChar

StartChar: uni252A
Encoding: 448 9514 448
Width: 6
VWidth: 0
Flags: W
HStem: 2 2<0 2.09>
VStem: 2 2<-2.09 2.09> 2 1<4.18 8.34>
LayerCount: 2
Back
Fore
SplineSet
2 8 m 29xa0
 3 8 l 29
 3 4 l 1xa0
 4 4 l 25
 4 -2 l 25
 2 -2 l 25
 2 2 l 25xc0
 0 2 l 25
 0 4 l 25
 2 4 l 1
 2 8 l 29xa0
EndSplineSet
EndChar

StartChar: uni252B
Encoding: 449 9515 449
Width: 6
VWidth: 0
Flags: W
HStem: 2 2<0 2.09>
VStem: 2 2<-2.09 2.09 4.18 8.34>
LayerCount: 2
Back
Fore
SplineSet
2 8 m 29
 4 8 l 29
 4 -2 l 1
 2 -2 l 25
 2 2 l 25
 0 2 l 25
 0 4 l 25
 2 4 l 1
 2 8 l 29
EndSplineSet
EndChar

StartChar: SF060000
Encoding: 450 9516 450
Width: 6
VWidth: 0
Flags: W
HStem: 3 1<0 2.09 3.12 6.25>
VStem: 2 1<-2.09 3.12>
LayerCount: 2
Back
Fore
SplineSet
0 4 m 25
 6 4 l 25
 6 3 l 25
 3 3 l 25
 3 -2 l 25
 2 -2 l 25
 2 3 l 25
 0 3 l 25
 0 4 l 25
EndSplineSet
EndChar

StartChar: uni252D
Encoding: 451 9517 451
Width: 6
VWidth: 0
Flags: W
HStem: 2 2<0 2.09> 3 1<3.12 6.25>
VStem: 2 1<-2.09 2.09>
LayerCount: 2
Back
Fore
SplineSet
0 4 m 25xa0
 6 4 l 25
 6 3 l 25
 3 3 l 25x60
 3 -2 l 25
 2 -2 l 25
 2 2 l 25
 0 2 l 25
 0 4 l 25xa0
EndSplineSet
EndChar

StartChar: uni252E
Encoding: 452 9518 452
Width: 6
VWidth: 0
Flags: W
HStem: 2 2<3.12 6.25> 3 1<0 2.09>
VStem: 2 1<-2.09 2.09>
LayerCount: 2
Back
Fore
SplineSet
0 4 m 25x60
 6 4 l 25
 6 2 l 25
 3 2 l 25xa0
 3 -2 l 25
 2 -2 l 25
 2 3 l 25
 0 3 l 25
 0 4 l 25x60
EndSplineSet
EndChar

StartChar: uni252F
Encoding: 453 9519 453
Width: 6
VWidth: 0
Flags: W
HStem: 2 2<0 2.09 3.12 6.25>
VStem: 2 1<-2.09 2.09>
LayerCount: 2
Back
Fore
SplineSet
0 4 m 25
 6 4 l 25
 6 2 l 25
 3 2 l 25
 3 -2 l 25
 2 -2 l 25
 2 2 l 25
 0 2 l 25
 0 4 l 25
EndSplineSet
EndChar

StartChar: uni2530
Encoding: 454 9520 454
Width: 6
VWidth: 0
Flags: W
HStem: 3 1<0 2.09 4.18 6.25>
VStem: 2 2<-2.09 3.12>
LayerCount: 2
Back
Fore
SplineSet
0 4 m 25
 6 4 l 25
 6 3 l 25
 4 3 l 25
 4 -2 l 25
 2 -2 l 25
 2 3 l 25
 0 3 l 25
 0 4 l 25
EndSplineSet
EndChar

StartChar: uni2531
Encoding: 455 9521 455
Width: 6
VWidth: 0
Flags: W
HStem: 2 2<0 2.09> 3 1<4.18 6.25>
VStem: 2 2<-2.09 2.09>
LayerCount: 2
Back
Fore
SplineSet
0 4 m 25xa0
 6 4 l 25
 6 3 l 25
 4 3 l 25x60
 4 -2 l 25
 2 -2 l 25
 2 2 l 25
 0 2 l 25
 0 4 l 25xa0
EndSplineSet
EndChar

StartChar: uni2532
Encoding: 456 9522 456
Width: 6
VWidth: 0
Flags: W
HStem: 2 2<4.18 6.25> 3 1<0 2.09>
VStem: 2 2<-2.09 2.09>
LayerCount: 2
Back
Fore
SplineSet
0 4 m 1x60
 6 4 l 1
 6 2 l 1
 4 2 l 1xa0
 4 -2 l 1
 2 -2 l 1
 2 3 l 1
 0 3 l 1
 0 4 l 1x60
EndSplineSet
EndChar

StartChar: uni2533
Encoding: 457 9523 457
Width: 6
VWidth: 0
Flags: W
HStem: 2 2<0 2.09 4.18 6.25>
VStem: 2 2<-2.09 2.09>
LayerCount: 2
Back
Fore
SplineSet
0 4 m 25
 6 4 l 25
 6 2 l 25
 4 2 l 25
 4 -2 l 25
 2 -2 l 25
 2 2 l 25
 0 2 l 25
 0 4 l 25
EndSplineSet
EndChar

StartChar: SF070000
Encoding: 458 9524 458
Width: 6
VWidth: 0
Flags: W
HStem: 3 1<0 2.09 3.12 6.25>
VStem: 2 1<4.18 8.34>
LayerCount: 2
Back
Fore
SplineSet
0 4 m 25
 2 4 l 1
 2 8 l 29
 3 8 l 29
 3 4 l 1
 6 4 l 25
 6 3 l 25
 0 3 l 25
 0 4 l 25
EndSplineSet
EndChar

StartChar: uni2535
Encoding: 459 9525 459
Width: 6
VWidth: 0
Flags: W
HStem: 2 2<0 2.09> 3 1<3.12 6.25>
VStem: 2 1<4.18 8.34>
LayerCount: 2
Back
Fore
SplineSet
2 8 m 29xa0
 3 8 l 29
 3 4 l 1
 6 4 l 25
 6 3 l 25
 2 3 l 25x60
 2 2 l 25
 0 2 l 25
 0 4 l 25
 2 4 l 1
 2 8 l 29xa0
EndSplineSet
EndChar

StartChar: uni2536
Encoding: 460 9526 460
Width: 6
VWidth: 0
Flags: W
HStem: 2 2<3.12 6.25> 3 1<0 2.09>
VStem: 2 1<4.18 8.34>
LayerCount: 2
Back
Fore
SplineSet
2 8 m 1x60
 3 8 l 5
 3 4 l 1
 6 4 l 25
 6 2 l 25
 3 2 l 25xa0
 3 3 l 25
 0 3 l 25
 0 4 l 25
 2 4 l 1
 2 8 l 1x60
EndSplineSet
EndChar

StartChar: uni2537
Encoding: 461 9527 461
Width: 6
VWidth: 0
Flags: W
HStem: 2 2<0 2.09 3.12 6.25>
VStem: 2 1<4.18 8.34>
LayerCount: 2
Back
Fore
SplineSet
2 8 m 29
 3 8 l 29
 3 4 l 1
 6 4 l 25
 6 2 l 25
 0 2 l 25
 0 4 l 25
 2 4 l 1
 2 8 l 29
EndSplineSet
EndChar

StartChar: uni2538
Encoding: 462 9528 462
Width: 6
VWidth: 0
Flags: W
HStem: 3 1<0 2.09 4.18 6.25>
VStem: 2 2<4.18 8.34>
LayerCount: 2
Back
Fore
SplineSet
2 8 m 29
 4 8 l 29
 4 4 l 1
 6 4 l 25
 6 3 l 25
 0 3 l 25
 0 4 l 25
 2 4 l 1
 2 8 l 29
EndSplineSet
EndChar

StartChar: uni2539
Encoding: 463 9529 463
Width: 6
VWidth: 0
Flags: W
HStem: 2 2<0 2.09> 3 1<4.18 6.25>
VStem: 2 2<4.18 8.34>
LayerCount: 2
Back
Fore
SplineSet
2 8 m 29xa0
 4 8 l 29
 4 4 l 1
 6 4 l 25
 6 3 l 25
 3 3 l 25x60
 3 2 l 25
 0 2 l 25
 0 4 l 25
 2 4 l 1
 2 8 l 29xa0
EndSplineSet
EndChar

StartChar: uni253A
Encoding: 464 9530 464
Width: 6
VWidth: 0
Flags: W
HStem: 2 2<4.18 6.25> 3 1<0 2.09>
VStem: 2 2<4.18 8.34>
LayerCount: 2
Back
Fore
SplineSet
2 8 m 1x60
 4 8 l 5
 4 4 l 1
 6 4 l 25
 6 2 l 25
 3 2 l 25xa0
 3 3 l 25
 0 3 l 25
 0 4 l 25
 2 4 l 1
 2 8 l 1x60
EndSplineSet
EndChar

StartChar: uni253B
Encoding: 465 9531 465
Width: 6
VWidth: 0
Flags: W
HStem: 2 2<0 2.09 4.18 6.25>
VStem: 2 2<4.18 8.34>
LayerCount: 2
Back
Fore
SplineSet
2 8 m 1
 4 8 l 5
 4 4 l 1
 6 4 l 25
 6 2 l 25
 0 2 l 25
 0 4 l 25
 2 4 l 1
 2 8 l 1
EndSplineSet
EndChar

StartChar: SF050000
Encoding: 466 9532 466
Width: 6
VWidth: 0
Flags: W
HStem: 3 1<0 2.09 3.12 6.25>
VStem: 2 1<-2.09 3.12 4.18 8.34>
LayerCount: 2
Back
Fore
SplineSet
2 8 m 1
 3 8 l 5
 3 4 l 1
 6 4 l 25
 6 3 l 25
 3 3 l 25
 3 -2 l 25
 2 -2 l 25
 2 3 l 25
 0 3 l 25
 0 4 l 25
 2 4 l 1
 2 8 l 1
EndSplineSet
EndChar

StartChar: uni253D
Encoding: 467 9533 467
Width: 6
VWidth: 0
Flags: W
HStem: 2 2<0 2.09> 3 1<3.12 6.25>
VStem: 2 1<-2.09 2.09 4.18 8.34>
LayerCount: 2
Back
Fore
SplineSet
2 8 m 1xa0
 3 8 l 5
 3 4 l 1
 6 4 l 25
 6 3 l 25
 3 3 l 25x60
 3 -2 l 25
 2 -2 l 25
 2 2 l 25
 0 2 l 25
 0 4 l 25
 2 4 l 1
 2 8 l 1xa0
EndSplineSet
EndChar

StartChar: uni253E
Encoding: 468 9534 468
Width: 6
VWidth: 0
Flags: W
HStem: 2 2<3.12 6.25> 3 1<0 2.09>
VStem: 2 1<-2.09 2.09 4.18 8.34>
LayerCount: 2
Back
Fore
SplineSet
2 8 m 1x60
 3 8 l 5
 3 4 l 1
 6 4 l 25
 6 2 l 25
 3 2 l 25xa0
 3 -2 l 25
 2 -2 l 25
 2 3 l 25
 0 3 l 25
 0 4 l 25
 2 4 l 1
 2 8 l 1x60
EndSplineSet
EndChar

StartChar: uni253F
Encoding: 469 9535 469
Width: 6
VWidth: 0
Flags: W
HStem: 2 2<0 2.09 3.12 6.25>
VStem: 2 1<-2.09 2.09 4.18 8.34>
LayerCount: 2
Back
Fore
SplineSet
2 8 m 1
 3 8 l 5
 3 4 l 1
 6 4 l 25
 6 2 l 25
 3 2 l 25
 3 -2 l 25
 2 -2 l 25
 2 2 l 25
 0 2 l 25
 0 4 l 25
 2 4 l 1
 2 8 l 1
EndSplineSet
EndChar

StartChar: uni2540
Encoding: 470 9536 470
Width: 6
VWidth: 0
Flags: W
HStem: 3 1<0 2.09 4.18 6.25>
VStem: 2 2<4.18 8.34> 2 1<-2.09 3.12>
LayerCount: 2
Back
Fore
SplineSet
2 8 m 1xc0
 4 8 l 5
 4 4 l 1xc0
 6 4 l 25
 6 3 l 25
 3 3 l 25
 3 -2 l 25
 2 -2 l 25
 2 3 l 25xa0
 0 3 l 25
 0 4 l 25
 2 4 l 1
 2 8 l 1xc0
EndSplineSet
EndChar

StartChar: uni2541
Encoding: 471 9537 471
Width: 6
VWidth: 0
Flags: W
HStem: 3 1<0 2.09 4.18 6.25>
VStem: 2 2<-2.09 3.12> 2 1<4.18 8.34>
LayerCount: 2
Back
Fore
SplineSet
2 8 m 1xa0
 3 8 l 5
 3 4 l 1xa0
 6 4 l 25
 6 3 l 25
 4 3 l 25
 4 -2 l 25
 2 -2 l 25
 2 3 l 25xc0
 0 3 l 25
 0 4 l 25
 2 4 l 1
 2 8 l 1xa0
EndSplineSet
EndChar

StartChar: uni2542
Encoding: 472 9538 472
Width: 6
VWidth: 0
Flags: W
HStem: 3 1<0 2.09 4.18 6.25>
VStem: 2 2<-2.09 3.12 4.18 8.34>
LayerCount: 2
Back
Fore
SplineSet
2 8 m 1
 4 8 l 5
 4 4 l 1
 6 4 l 25
 6 3 l 25
 4 3 l 25
 4 -2 l 25
 2 -2 l 25
 2 3 l 25
 0 3 l 25
 0 4 l 25
 2 4 l 1
 2 8 l 1
EndSplineSet
EndChar

StartChar: uni2543
Encoding: 473 9539 473
Width: 6
VWidth: 0
Flags: W
HStem: 2 2<0 2.09> 3 1<4.18 6.25>
VStem: 2 2<4.18 8.34> 2 1<-2.09 2.09>
LayerCount: 2
Back
Fore
SplineSet
2 8 m 1xa0
 4 8 l 5
 4 4 l 1x60
 6 4 l 25
 6 3 l 25
 3 3 l 25x50
 3 -2 l 25
 2 -2 l 25
 2 2 l 25x90
 0 2 l 25
 0 4 l 25
 2 4 l 1
 2 8 l 1xa0
EndSplineSet
EndChar

StartChar: uni2544
Encoding: 474 9540 474
Width: 6
VWidth: 0
Flags: W
HStem: 2 2<4.18 6.25> 3 1<0 2.09>
VStem: 2 2<4.18 8.34> 2 1<-2.09 2.09>
LayerCount: 2
Back
Fore
SplineSet
2 8 m 1x60
 4 8 l 5
 4 4 l 1xa0
 6 4 l 25
 6 2 l 25
 3 2 l 25x90
 3 -2 l 25
 2 -2 l 25
 2 3 l 25x50
 0 3 l 25
 0 4 l 25
 2 4 l 1
 2 8 l 1x60
EndSplineSet
EndChar

StartChar: uni2545
Encoding: 475 9541 475
Width: 6
VWidth: 0
Flags: W
HStem: 2 2<0 2.09> 3 1<4.18 6.25>
VStem: 2 2<-2.09 2.09> 2 1<4.18 8.34>
LayerCount: 2
Back
Fore
SplineSet
2 8 m 1x90
 3 8 l 5
 3 4 l 1x50
 6 4 l 25
 6 3 l 25
 4 3 l 25x60
 4 -2 l 25
 2 -2 l 25
 2 2 l 25xa0
 0 2 l 25
 0 4 l 25
 2 4 l 1
 2 8 l 1x90
EndSplineSet
EndChar

StartChar: uni2546
Encoding: 476 9542 476
Width: 6
VWidth: 0
Flags: W
HStem: 2 2<4.18 6.25> 3 1<0 2.09>
VStem: 2 2<-2.09 2.09> 2 1<4.18 8.34>
LayerCount: 2
Back
Fore
SplineSet
2 8 m 1x50
 3 8 l 5
 3 4 l 1x50
 6 4 l 25
 6 2 l 25
 4 2 l 25
 4 -2 l 25
 2 -2 l 25xa0
 2 3 l 25
 0 3 l 25
 0 4 l 25
 2 4 l 1
 2 8 l 1x50
EndSplineSet
EndChar

StartChar: uni2547
Encoding: 477 9543 477
Width: 6
VWidth: 0
Flags: W
HStem: 2 2<0 2.09 4.18 6.25>
VStem: 2 2<4.18 8.34> 2 1<-2.09 2.09>
LayerCount: 2
Back
Fore
SplineSet
2 8 m 1xc0
 4 8 l 5
 4 4 l 1xc0
 6 4 l 25
 6 2 l 25
 3 2 l 25
 3 -2 l 25
 2 -2 l 25
 2 2 l 25xa0
 0 2 l 25
 0 4 l 25
 2 4 l 1
 2 8 l 1xc0
EndSplineSet
EndChar

StartChar: uni2548
Encoding: 478 9544 478
Width: 6
VWidth: 0
Flags: W
HStem: 2 2<0 2.09 4.18 6.25>
VStem: 2 2<-2.09 2.09> 2 1<4.18 8.34>
LayerCount: 2
Back
Fore
SplineSet
2 8 m 1xa0
 3 8 l 5
 3 4 l 1xa0
 6 4 l 25
 6 2 l 25
 4 2 l 25
 4 -2 l 25
 2 -2 l 25
 2 2 l 25xc0
 0 2 l 25
 0 4 l 25
 2 4 l 1
 2 8 l 1xa0
EndSplineSet
EndChar

StartChar: uni2549
Encoding: 479 9545 479
Width: 6
VWidth: 0
Flags: W
HStem: 2 2<0 2.09> 3 1<4.18 6.25>
VStem: 2 2<-2.09 2.09 4.18 8.34>
LayerCount: 2
Back
Fore
SplineSet
2 8 m 1xa0
 4 8 l 5
 4 4 l 1
 6 4 l 25
 6 3 l 25
 4 3 l 25x60
 4 -2 l 25
 2 -2 l 25
 2 2 l 25
 0 2 l 25
 0 4 l 25
 2 4 l 1
 2 8 l 1xa0
EndSplineSet
EndChar

StartChar: uni254A
Encoding: 480 9546 480
Width: 6
VWidth: 0
Flags: W
HStem: 2 2<4.18 6.25> 3 1<0 2.09>
VStem: 2 2<-2.09 2.09 4.18 8.34>
LayerCount: 2
Back
Fore
SplineSet
2 8 m 1x60
 4 8 l 5
 4 4 l 1
 6 4 l 25
 6 2 l 25
 4 2 l 25xa0
 4 -2 l 25
 2 -2 l 25
 2 3 l 25
 0 3 l 25
 0 4 l 25
 2 4 l 1
 2 8 l 1x60
EndSplineSet
EndChar

StartChar: uni254B
Encoding: 481 9547 481
Width: 6
VWidth: 0
Flags: W
HStem: 2 2<0 2.09 4.18 6.25>
VStem: 2 2<-2.09 2.09 4.18 8.34>
LayerCount: 2
Back
Fore
SplineSet
2 8 m 1
 4 8 l 5
 4 4 l 1
 6 4 l 25
 6 2 l 25
 4 2 l 25
 4 -2 l 25
 2 -2 l 25
 2 2 l 25
 0 2 l 25
 0 4 l 25
 2 4 l 1
 2 8 l 1
EndSplineSet
EndChar

StartChar: uni254C
Encoding: 482 9548 482
Width: 6
VWidth: 0
Flags: W
HStem: 3 1<0 2.09 4.18 6.25>
LayerCount: 2
Back
Fore
SplineSet
4 4 m 25
 6 4 l 25
 6 3 l 25
 4 3 l 25
 4 4 l 25
0 4 m 25
 2 4 l 25
 2 3 l 25
 0 3 l 25
 0 4 l 25
EndSplineSet
EndChar

StartChar: uni254D
Encoding: 483 9549 483
Width: 6
VWidth: 0
Flags: W
HStem: 2 2<0 2.09 4.18 6.25>
VStem: 0 2<2.09 4.18> 4 2<2.09 4.18>
LayerCount: 2
Back
Fore
SplineSet
4 4 m 25
 6 4 l 25
 6 2 l 25
 4 2 l 25
 4 4 l 25
0 4 m 25
 2 4 l 25
 2 2 l 25
 0 2 l 25
 0 4 l 25
EndSplineSet
EndChar

StartChar: uni254E
Encoding: 484 9550 484
Width: 6
VWidth: 0
Flags: W
VStem: 2 1<-2.09 2.09 4.18 8.34>
LayerCount: 2
Back
Fore
SplineSet
2 2 m 25
 3 2 l 25
 3 -2 l 25
 2 -2 l 25
 2 2 l 25
2 8 m 1
 3 8 l 5
 3 4 l 1
 2 4 l 1
 2 8 l 1
EndSplineSet
EndChar

StartChar: uni254F
Encoding: 485 9551 485
Width: 6
VWidth: 0
Flags: W
VStem: 2 2<-2.09 2.09 4.18 8.34>
LayerCount: 2
Back
Fore
SplineSet
2 2 m 25
 4 2 l 25
 4 -2 l 25
 2 -2 l 25
 2 2 l 25
2 8 m 1
 4 8 l 5
 4 4 l 1
 2 4 l 1
 2 8 l 1
EndSplineSet
EndChar

StartChar: SF430000
Encoding: 486 9552 486
Width: 6
VWidth: 0
Flags: W
HStem: 2 1<0 6.25> 4 1<0 6.25>
LayerCount: 2
Back
Fore
SplineSet
0 3 m 25
 6 3 l 25
 6 2 l 25
 0 2 l 25
 0 3 l 25
0 5 m 25
 6 5 l 25
 6 4 l 25
 0 4 l 25
 0 5 l 25
EndSplineSet
EndChar

StartChar: SF240000
Encoding: 487 9553 487
Width: 6
VWidth: 0
Flags: W
VStem: 1 1<-2.09 8.34> 3 1<-2.09 8.34>
LayerCount: 2
Back
Fore
SplineSet
3 8 m 29
 4 8 l 29
 4 -2 l 1
 3 -2 l 1
 3 8 l 29
1 8 m 29
 2 8 l 29
 2 -2 l 1
 1 -2 l 1
 1 8 l 29
EndSplineSet
EndChar

StartChar: SF510000
Encoding: 488 9554 488
Width: 6
VWidth: 0
Flags: W
HStem: 2 1<3.12 6.25> 4 1<3.12 6.25>
VStem: 2 1<-2.09 2.09 3.12 4.18>
LayerCount: 2
Back
Fore
SplineSet
2 5 m 25
 6 5 l 25
 6 4 l 25
 3 4 l 25
 3 3 l 25
 6 3 l 25
 6 2 l 25
 3 2 l 25
 3 -2 l 25
 2 -2 l 25
 2 5 l 25
EndSplineSet
EndChar

StartChar: SF520000
Encoding: 489 9555 489
Width: 6
VWidth: 0
Flags: W
HStem: 3 1<2.09 3.12 4.18 6.25>
VStem: 1 1<-2.09 3.12> 3 1<-2.09 3.12>
LayerCount: 2
Back
Fore
SplineSet
1 4 m 25
 6 4 l 25
 6 3 l 25
 4 3 l 25
 4 -2 l 25
 3 -2 l 25
 3 3 l 25
 2 3 l 25
 2 -2 l 25
 1 -2 l 25
 1 4 l 25
EndSplineSet
EndChar

StartChar: SF390000
Encoding: 490 9556 490
Width: 6
VWidth: 0
Flags: W
HStem: 2 1<4.18 6.25> 4 1<2.09 6.25>
VStem: 1 1<-2.09 4.18> 3 1<-2.09 2.09>
LayerCount: 2
Back
Fore
SplineSet
3 3 m 25
 6 3 l 25
 6 2 l 25
 4 2 l 25
 4 -2 l 25
 3 -2 l 25
 3 3 l 25
1 5 m 25
 6 5 l 25
 6 4 l 25
 2 4 l 25
 2 -2 l 25
 1 -2 l 25
 1 5 l 25
EndSplineSet
EndChar

StartChar: SF220000
Encoding: 491 9557 491
Width: 6
VWidth: 0
Flags: W
HStem: 2 1<0 2.09> 4 1<0 2.09>
VStem: 0 3<2.09 3.12 4.18 5.21> 2 1<-2.09 2.09 3.12 4.18>
LayerCount: 2
Back
Fore
SplineSet
0 5 m 25xe0
 3 5 l 25xe0
 3 -2 l 25
 2 -2 l 25
 2 2 l 25xd0
 0 2 l 25
 0 3 l 25xe0
 2 3 l 25
 2 4 l 25xd0
 0 4 l 25
 0 5 l 25xe0
EndSplineSet
EndChar

StartChar: SF210000
Encoding: 492 9558 492
Width: 6
VWidth: 0
Flags: W
HStem: 3 1<0 1.04 2.09 3.12>
VStem: 1 1<-2.09 3.12> 3 1<-2.09 3.12>
LayerCount: 2
Back
Fore
SplineSet
0 4 m 25
 4 4 l 25
 4 -2 l 25
 3 -2 l 25
 3 3 l 25
 2 3 l 25
 2 -2 l 25
 1 -2 l 25
 1 3 l 25
 0 3 l 25
 0 4 l 25
EndSplineSet
EndChar

StartChar: SF250000
Encoding: 493 9559 493
Width: 6
VWidth: 0
Flags: W
HStem: 2 1<0 1.04> 4 1<0 3.12>
VStem: 1 1<-2.09 2.09> 3 1<-2.09 4.18>
LayerCount: 2
Back
Fore
SplineSet
0 3 m 25
 2 3 l 25
 2 -2 l 25
 1 -2 l 25
 1 2 l 25
 0 2 l 25
 0 3 l 25
0 5 m 25
 4 5 l 25
 4 -2 l 25
 3 -2 l 25
 3 4 l 25
 0 4 l 25
 0 5 l 25
EndSplineSet
EndChar

StartChar: SF500000
Encoding: 494 9560 494
Width: 6
VWidth: 0
Flags: W
HStem: 2 1<3.12 6.25> 4 1<3.12 6.25>
VStem: 2 1<3.12 4.18 5.21 8.34>
LayerCount: 2
Back
Fore
SplineSet
2 8 m 1
 3 8 l 5
 3 5 l 1
 6 5 l 25
 6 4 l 25
 3 4 l 25
 3 3 l 25
 6 3 l 25
 6 2 l 25
 2 2 l 1
 2 8 l 1
EndSplineSet
EndChar

StartChar: SF490000
Encoding: 495 9561 495
Width: 6
VWidth: 0
Flags: W
HStem: 3 1<2.09 3.12 4.18 6.25>
VStem: 1 1<4.18 8.34> 3 1<4.18 8.34>
LayerCount: 2
Back
Fore
SplineSet
1 8 m 1
 2 8 l 1
 2 4 l 1
 3 4 l 1
 3 8 l 1
 4 8 l 5
 4 4 l 1
 6 4 l 25
 6 3 l 25
 1 3 l 1
 1 8 l 1
EndSplineSet
EndChar

StartChar: SF380000
Encoding: 496 9562 496
Width: 6
VWidth: 0
Flags: W
HStem: 2 1<2.09 6.25> 4 1<4.18 6.25>
VStem: 1 1<3.12 8.34> 3 1<5.21 8.34>
LayerCount: 2
Back
Fore
SplineSet
3 8 m 29
 4 8 l 29
 4 5 l 1
 6 5 l 25
 6 4 l 25
 3 4 l 1
 3 8 l 29
1 8 m 29
 2 8 l 29
 2 3 l 1
 6 3 l 25
 6 2 l 25
 1 2 l 1
 1 8 l 29
EndSplineSet
EndChar

StartChar: SF280000
Encoding: 497 9563 497
Width: 6
VWidth: 0
Flags: W
HStem: 2 1<0 2.09> 4 1<0 2.09>
VStem: 0 3<2.09 3.12 4.18 5.21> 2 1<3.12 4.18 5.21 8.34>
LayerCount: 2
Back
Fore
SplineSet
2 8 m 29xd0
 3 8 l 29xd0
 3 2 l 1
 0 2 l 25
 0 3 l 25xe0
 2 3 l 25
 2 4 l 25xd0
 0 4 l 25
 0 5 l 25xe0
 2 5 l 1
 2 8 l 29xd0
EndSplineSet
EndChar

StartChar: SF270000
Encoding: 498 9564 498
Width: 6
VWidth: 0
Flags: W
HStem: 3 1<6 7.03 8.09 9.12>
VStem: 7 1<4.18 8.34> 9 1<4.18 8.34>
LayerCount: 2
Back
Fore
SplineSet
1 8 m 29
 2 8 l 29
 2 4 l 1
 3 4 l 1
 3 8 l 29
 4 8 l 29
 4 3 l 1
 0 3 l 25
 0 4 l 25
 1 4 l 1
 1 8 l 29
EndSplineSet
EndChar

StartChar: SF260000
Encoding: 499 9565 499
Width: 6
VWidth: 0
Flags: W
HStem: 2 1<0 3.12> 4 1<0 1.04>
VStem: 1 1<5.21 8.34> 3 1<3.12 8.34>
LayerCount: 2
Back
Fore
SplineSet
3 8 m 1
 4 8 l 5
 4 2 l 1
 0 2 l 25
 0 3 l 25
 3 3 l 1
 3 8 l 1
1 8 m 1
 2 8 l 1
 2 4 l 1
 0 4 l 25
 0 5 l 25
 1 5 l 1
 1 8 l 1
EndSplineSet
EndChar

StartChar: SF360000
Encoding: 500 9566 500
Width: 6
VWidth: 0
Flags: W
HStem: 2 1<3.12 6.25> 4 1<3.12 6.25>
VStem: 2 1<-2.09 2.09 3.12 4.18 5.21 8.34>
LayerCount: 2
Back
Fore
SplineSet
2 8 m 1
 3 8 l 5
 3 5 l 1
 6 5 l 25
 6 4 l 25
 3 4 l 25
 3 3 l 25
 6 3 l 25
 6 2 l 25
 3 2 l 25
 3 -2 l 25
 2 -2 l 1
 2 8 l 1
EndSplineSet
EndChar

StartChar: SF370000
Encoding: 501 9567 501
Width: 6
VWidth: 0
Flags: W
HStem: 3 1<4.18 6.25>
VStem: 1 1<-2.09 8.34> 3 1<-2.09 3.12 4.18 8.34>
LayerCount: 2
Back
Fore
SplineSet
3 8 m 1
 4 8 l 5
 4 4 l 1
 6 4 l 25
 6 3 l 25
 4 3 l 25
 4 -2 l 25
 3 -2 l 1
 3 8 l 1
1 8 m 1
 2 8 l 1
 2 -2 l 1
 1 -2 l 1
 1 8 l 1
EndSplineSet
EndChar

StartChar: SF420000
Encoding: 502 9568 502
Width: 6
VWidth: 0
Flags: W
HStem: 2 1<4.18 6.25> 4 1<4.18 6.25>
VStem: 1 1<-2.09 8.34> 3 3<2.09 3.12 4.18 5.21> 3 1<-2.09 2.09 5.21 8.34>
LayerCount: 2
Back
Fore
SplineSet
3 3 m 25xf0
 6 3 l 25
 6 2 l 25xf0
 4 2 l 25
 4 -2 l 25
 3 -2 l 25xe8
 3 3 l 25xf0
3 8 m 29xe8
 4 8 l 29
 4 5 l 1xe8
 6 5 l 25
 6 4 l 25
 3 4 l 1xf0
 3 8 l 29xe8
1 8 m 29
 2 8 l 29
 2 -2 l 1
 1 -2 l 1
 1 8 l 29
EndSplineSet
EndChar

StartChar: SF190000
Encoding: 503 9569 503
Width: 6
VWidth: 0
Flags: W
HStem: 2 1<0 2.09> 4 1<0 2.09>
VStem: 0 3<2.09 3.12 4.18 5.21> 2 1<-2.09 2.09 3.12 4.18 5.21 8.34>
LayerCount: 2
Back
Fore
SplineSet
0 5 m 25xe0
 2 5 l 1
 2 8 l 29
 3 8 l 29
 3 -2 l 1
 2 -2 l 25
 2 2 l 25xd0
 0 2 l 25
 0 3 l 25xe0
 2 3 l 25
 2 4 l 25xd0
 0 4 l 25
 0 5 l 25xe0
EndSplineSet
EndChar

StartChar: SF200000
Encoding: 504 9570 504
Width: 6
VWidth: 0
Flags: W
HStem: 3 1<0 1.04>
VStem: 1 1<-2.09 3.12 4.18 8.34> 3 1<-2.09 8.34>
LayerCount: 2
Back
Fore
SplineSet
3 8 m 29
 4 8 l 29
 4 -2 l 1
 3 -2 l 1
 3 8 l 29
1 8 m 29
 2 8 l 29
 2 -2 l 1
 1 -2 l 25
 1 3 l 25
 0 3 l 25
 0 4 l 25
 1 4 l 1
 1 8 l 29
EndSplineSet
EndChar

StartChar: SF230000
Encoding: 505 9571 505
Width: 6
VWidth: 0
Flags: W
HStem: 2 1<0 1.04> 4 1<0 1.04>
VStem: 0 2<2.09 3.12 4.18 5.21> 1 1<-2.09 2.09 5.21 8.34> 3 1<-2.09 8.34>
LayerCount: 2
Back
Fore
SplineSet
3 8 m 29xc8
 4 8 l 29
 4 -2 l 1
 3 -2 l 1
 3 8 l 29xc8
0 3 m 25xe8
 2 3 l 25xe8
 2 -2 l 25
 1 -2 l 25
 1 2 l 25xd8
 0 2 l 25
 0 3 l 25xe8
1 8 m 29xd8
 2 8 l 29xd8
 2 4 l 1
 0 4 l 25
 0 5 l 25xe8
 1 5 l 1
 1 8 l 29xd8
EndSplineSet
EndChar

StartChar: SF470000
Encoding: 506 9572 506
Width: 6
VWidth: 0
Flags: W
HStem: 2 1<0 2.09 3.12 6.25> 4 1<0 6.25>
VStem: 2 1<-2.09 2.09>
LayerCount: 2
Back
Fore
SplineSet
0 3 m 25
 6 3 l 25
 6 2 l 25
 3 2 l 25
 3 -2 l 25
 2 -2 l 25
 2 2 l 25
 0 2 l 25
 0 3 l 25
0 5 m 25
 6 5 l 25
 6 4 l 25
 0 4 l 25
 0 5 l 25
EndSplineSet
EndChar

StartChar: SF480000
Encoding: 507 9573 507
Width: 6
VWidth: 0
Flags: W
HStem: 3 1<0 1.04 2.09 3.12 4.18 6.25>
VStem: 1 1<-2.09 3.12> 3 1<-2.09 3.12>
LayerCount: 2
Back
Fore
SplineSet
0 4 m 25
 6 4 l 25
 6 3 l 25
 4 3 l 25
 4 -2 l 25
 3 -2 l 25
 3 3 l 25
 2 3 l 25
 2 -2 l 25
 1 -2 l 25
 1 3 l 25
 0 3 l 25
 0 4 l 25
EndSplineSet
EndChar

StartChar: SF410000
Encoding: 508 9574 508
Width: 6
VWidth: 0
Flags: W
HStem: 2 1<0 1.04 4.18 6.25> 4 1<0 6.25>
VStem: 1 1<-2.09 2.09> 3 1<-2.09 2.09>
LayerCount: 2
Back
Fore
SplineSet
3 3 m 25
 6 3 l 25
 6 2 l 25
 4 2 l 25
 4 -2 l 25
 3 -2 l 25
 3 3 l 25
0 3 m 25
 2 3 l 25
 2 -2 l 25
 1 -2 l 25
 1 2 l 25
 0 2 l 25
 0 3 l 25
0 5 m 25
 6 5 l 25
 6 4 l 25
 0 4 l 25
 0 5 l 25
EndSplineSet
EndChar

StartChar: SF450000
Encoding: 509 9575 509
Width: 6
VWidth: 0
Flags: W
HStem: 2 1<0 6.25> 4 1<0 2.09 3.12 6.25>
VStem: 2 1<5.21 8.34>
LayerCount: 2
Back
Fore
SplineSet
0 3 m 25
 6 3 l 25
 6 2 l 25
 0 2 l 25
 0 3 l 25
0 5 m 25
 2 5 l 1
 2 8 l 29
 3 8 l 29
 3 5 l 1
 6 5 l 25
 6 4 l 25
 0 4 l 25
 0 5 l 25
EndSplineSet
EndChar

StartChar: SF460000
Encoding: 510 9576 510
Width: 6
VWidth: 0
Flags: W
HStem: 3 1<0 1.04 2.09 3.12 4.18 6.25>
VStem: 1 1<4.18 8.34> 3 1<4.18 8.34>
LayerCount: 2
Back
Fore
SplineSet
0 4 m 25
 1 4 l 1
 1 8 l 29
 2 8 l 29
 2 4 l 1
 3 4 l 1
 3 8 l 29
 4 8 l 29
 4 4 l 1
 6 4 l 25
 6 3 l 25
 0 3 l 25
 0 4 l 25
EndSplineSet
EndChar

StartChar: SF400000
Encoding: 511 9577 511
Width: 6
VWidth: 0
Flags: W
HStem: 2 1<0 6.25> 4 1<0 1.04 4.18 6.25>
VStem: 1 1<5.21 8.34> 3 1<5.21 8.34>
LayerCount: 2
Back
Fore
SplineSet
0 3 m 25
 6 3 l 25
 6 2 l 25
 0 2 l 25
 0 3 l 25
3 8 m 29
 4 8 l 29
 4 5 l 1
 6 5 l 25
 6 4 l 25
 3 4 l 1
 3 8 l 29
0 5 m 25
 1 5 l 1
 1 8 l 29
 2 8 l 29
 2 4 l 1
 0 4 l 25
 0 5 l 25
EndSplineSet
EndChar

StartChar: SF540000
Encoding: 512 9578 512
Width: 6
VWidth: 0
Flags: W
HStem: 2 1<0 2.09 3.12 6.25> 4 1<0 2.09 3.12 6.25>
VStem: 2 1<-2.09 2.09 3.12 4.18 5.21 8.34>
LayerCount: 2
Back
Fore
SplineSet
0 5 m 25
 2 5 l 1
 2 8 l 29
 3 8 l 29
 3 5 l 1
 6 5 l 25
 6 4 l 25
 3 4 l 25
 3 3 l 25
 6 3 l 25
 6 2 l 25
 3 2 l 25
 3 -2 l 25
 2 -2 l 25
 2 2 l 25
 0 2 l 25
 0 3 l 25
 2 3 l 25
 2 4 l 25
 0 4 l 25
 0 5 l 25
EndSplineSet
EndChar

StartChar: SF530000
Encoding: 513 9579 513
Width: 6
VWidth: 0
Flags: W
HStem: 3 1<0 1.04 2.09 3.12 4.18 6.25>
VStem: 1 1<-2.09 3.12 4.18 8.34> 3 1<-2.09 3.12 4.18 8.34>
LayerCount: 2
Back
Fore
SplineSet
0 4 m 25
 1 4 l 1
 1 8 l 29
 2 8 l 29
 2 4 l 1
 3 4 l 1
 3 8 l 29
 4 8 l 29
 4 4 l 1
 6 4 l 25
 6 3 l 25
 4 3 l 25
 4 -2 l 25
 3 -2 l 25
 3 3 l 25
 2 3 l 25
 2 -2 l 25
 1 -2 l 25
 1 3 l 25
 0 3 l 25
 0 4 l 25
EndSplineSet
EndChar

StartChar: SF440000
Encoding: 514 9580 514
Width: 6
VWidth: 0
Flags: W
HStem: 2 1<0 1.04 4.18 6.25> 4 1<0 1.04 4.18 6.25>
VStem: 0 2<2.09 3.12 4.18 5.21> 1 1<-2.09 2.09 5.21 8.34> 3 3<2.09 3.12 4.18 5.21> 3 1<-2.09 2.09 5.21 8.34>
LayerCount: 2
Back
Fore
SplineSet
3 3 m 25xc8
 6 3 l 25
 6 2 l 25xc8
 4 2 l 25
 4 -2 l 25
 3 -2 l 25xc4
 3 3 l 25xc8
0 3 m 25xe0
 2 3 l 25xe0
 2 -2 l 25
 1 -2 l 25
 1 2 l 25xd0
 0 2 l 25
 0 3 l 25xe0
3 8 m 29xc4
 4 8 l 29
 4 5 l 1xc4
 6 5 l 25
 6 4 l 25
 3 4 l 1xc8
 3 8 l 29xc4
0 5 m 25xe0
 1 5 l 1
 1 8 l 29
 2 8 l 29xd0
 2 4 l 1
 0 4 l 25
 0 5 l 25xe0
EndSplineSet
EndChar

StartChar: uni256D
Encoding: 515 9581 515
Width: 6
VWidth: 0
Flags: W
HStem: 2 1<3.12 4.18> 3 1<4.18 6.25>
VStem: 2 1<-2.09 2.09> 3 1<2.09 3.12>
LayerCount: 2
Back
Fore
SplineSet
2 -2 m 25xa0
 2 2 l 25
 3 2 l 25xa0
 3 3 l 25
 4 3 l 25x90
 4 4 l 25
 6 4 l 25
 6 3 l 25x50
 4 3 l 25
 4 2 l 25x90
 3 2 l 25
 3 -2 l 25
 2 -2 l 25xa0
EndSplineSet
EndChar

StartChar: uni256E
Encoding: 516 9582 516
Width: 6
VWidth: 0
Flags: W
HStem: 2 1<1.04 2.09> 3 1<0 1.04>
VStem: 0 1<3.12 4.18> 1 1<2.09 3.12> 2 1<-2.09 2.09>
LayerCount: 2
Back
Fore
SplineSet
0 4 m 25x60
 1 4 l 25x60
 1 3 l 25xa0
 2 3 l 25
 2 2 l 25x90
 3 2 l 25
 3 -2 l 25
 2 -2 l 25x88
 2 2 l 25
 1 2 l 25x90
 1 3 l 25xa0
 0 3 l 25
 0 4 l 25x60
EndSplineSet
EndChar

StartChar: uni256F
Encoding: 517 9583 517
Width: 6
VWidth: 0
Flags: W
HStem: 3 1<0 1.04> 4 1<1.04 2.09>
VStem: 0 1<3.12 4.18> 1 1<4.18 5.21> 2 1<5.21 8.34>
LayerCount: 2
Back
Fore
SplineSet
0 4 m 25xa0
 1 4 l 25xa0
 1 5 l 25
 2 5 l 1x50
 2 8 l 29
 3 8 l 29
 3 5 l 1x48
 2 5 l 25
 2 4 l 25x50
 1 4 l 25
 1 3 l 25
 0 3 l 25
 0 4 l 25xa0
EndSplineSet
EndChar

StartChar: uni2570
Encoding: 518 9584 518
Width: 6
VWidth: 0
Flags: W
HStem: 3 1<4.18 6.25> 4 1<3.12 4.18>
VStem: 2 1<5.21 8.34> 3 1<4.18 5.21>
LayerCount: 2
Back
Fore
SplineSet
2 8 m 29x60
 3 8 l 29
 3 5 l 1x60
 4 5 l 25x50
 4 4 l 25
 6 4 l 25
 6 3 l 25
 4 3 l 25
 4 4 l 25x90
 3 4 l 25x50
 3 5 l 25
 2 5 l 1
 2 8 l 29x60
EndSplineSet
EndChar

StartChar: uni2571
Encoding: 519 9585 519
Width: 6
VWidth: 0
Flags: W
HStem: 2 1<2.09 3.12> 3 1<3.12 4.18>
VStem: 0 1<-2.09 0> 1 1<0 2.09> 2 1<2.09 3.12> 3 1<3.12 4.18> 4 1<4.18 6.25> 5 1<6.25 8.34>
LayerCount: 2
Back
Fore
SplineSet
5 8 m 1x41
 6 8 l 5
 6 6 l 1x41
 5 6 l 25
 5 4 l 25x42
 4 4 l 25
 4 3 l 25x44
 3 3 l 25
 3 2 l 25x88
 2 2 l 25
 2 0 l 25x90
 1 0 l 25
 1 -2 l 25
 0 -2 l 25
 0 0 l 25
 1 0 l 25xa0
 1 2 l 25
 2 2 l 25x90
 2 3 l 25
 3 3 l 25x88
 3 4 l 25
 4 4 l 25x44
 4 6 l 25
 5 6 l 1x42
 5 8 l 1x41
EndSplineSet
EndChar

StartChar: uni2572
Encoding: 520 9586 520
Width: 6
VWidth: 0
Flags: W
HStem: 2 1<3.12 4.18> 3 1<2.09 3.12>
VStem: 0 1<6.25 8.34> 1 1<4.18 6.25> 2 1<3.12 4.18> 3 1<2.09 3.12> 4 1<0 2.09> 5 1<-2.09 0>
LayerCount: 2
Back
Fore
SplineSet
0 8 m 1x60
 1 8 l 5
 1 6 l 1x60
 2 6 l 25
 2 4 l 25x50
 3 4 l 25x48
 3 3 l 25x88
 4 3 l 25
 4 2 l 25x84
 5 2 l 25
 5 0 l 25x82
 6 0 l 25
 6 -2 l 25
 5 -2 l 25x81
 5 0 l 25
 4 0 l 25x82
 4 2 l 25
 3 2 l 25x84
 3 3 l 25x88
 2 3 l 25x48
 2 4 l 25
 1 4 l 25x50
 1 6 l 25
 0 6 l 1
 0 8 l 1x60
EndSplineSet
EndChar

StartChar: uni2573
Encoding: 521 9587 521
Width: 6
VWidth: 0
Flags: W
HStem: -2 2<0 1.04 5.21 6.25> 0 2<1.04 2.09 4.18 5.21> 4 2<1.04 2.09 4.18 5.21> 6 2<0 1.04 5.21 6.25>
VStem: 0 1<-2.09 0 6.25 8.34> 1 1<0 2.09 4.18 6.25> 4 1<0 2.09 4.18 6.25> 5 1<-2.09 0 6.25 8.34>
LayerCount: 2
Back
Fore
SplineSet
0 8 m 1x18
 1 8 l 1x18
 1 6 l 1x28
 2 6 l 25
 2 4 l 25
 4 4 l 25
 4 6 l 25
 5 6 l 1x26
 5 8 l 1
 6 8 l 5
 6 6 l 1x11
 5 6 l 25
 5 4 l 25
 4 4 l 25
 4 2 l 25
 5 2 l 25x62
 5 0 l 25x82
 6 0 l 25
 6 -2 l 25
 5 -2 l 25x81
 5 0 l 25x82
 4 0 l 25
 4 2 l 25
 2 2 l 25
 2 0 l 25x46
 1 0 l 25
 1 -2 l 25
 0 -2 l 25
 0 0 l 25
 1 0 l 25x88
 1 2 l 25
 2 2 l 25
 2 4 l 25
 1 4 l 25x64
 1 6 l 25x68
 0 6 l 1
 0 8 l 1x18
EndSplineSet
EndChar

StartChar: uni2574
Encoding: 522 9588 522
Width: 6
VWidth: 0
Flags: W
HStem: 3 1<0 3.12>
VStem: 0 3<3.12 4.18>
LayerCount: 2
Back
Fore
SplineSet
0 4 m 25
 3 4 l 25
 3 3 l 25
 0 3 l 25
 0 4 l 25
EndSplineSet
EndChar

StartChar: uni2575
Encoding: 523 9589 523
Width: 6
VWidth: 0
Flags: W
VStem: 2 1<3.12 8.34>
LayerCount: 2
Back
Fore
SplineSet
2 8 m 1
 3 8 l 5
 3 3 l 1
 2 3 l 1
 2 8 l 1
EndSplineSet
EndChar

StartChar: uni2576
Encoding: 524 9590 524
Width: 6
VWidth: 0
Flags: W
HStem: 3 1<2.09 6.25>
LayerCount: 2
Back
Fore
SplineSet
2 4 m 25
 6 4 l 25
 6 3 l 25
 2 3 l 25
 2 4 l 25
EndSplineSet
EndChar

StartChar: uni2577
Encoding: 525 9591 525
Width: 6
VWidth: 0
Flags: W
VStem: 2 1<-2.09 4.18>
LayerCount: 2
Back
Fore
SplineSet
2 4 m 25
 3 4 l 25
 3 -2 l 25
 2 -2 l 25
 2 4 l 25
EndSplineSet
EndChar

StartChar: uni2578
Encoding: 526 9592 526
Width: 6
VWidth: 0
Flags: W
HStem: 2 2<0 3.12>
VStem: 0 3<2.09 4.18>
LayerCount: 2
Back
Fore
SplineSet
0 4 m 25
 3 4 l 25
 3 2 l 25
 0 2 l 25
 0 4 l 25
EndSplineSet
EndChar

StartChar: uni2579
Encoding: 527 9593 527
Width: 6
VWidth: 0
Flags: W
VStem: 2 2<3.12 8.34>
LayerCount: 2
Back
Fore
SplineSet
2 8 m 1
 4 8 l 5
 4 3 l 1
 2 3 l 1
 2 8 l 1
EndSplineSet
EndChar

StartChar: uni257A
Encoding: 528 9594 528
Width: 6
VWidth: 0
Flags: W
HStem: 2 2<2.09 6.25>
LayerCount: 2
Back
Fore
SplineSet
2 4 m 25
 6 4 l 25
 6 2 l 25
 2 2 l 25
 2 4 l 25
EndSplineSet
EndChar

StartChar: uni257B
Encoding: 529 9595 529
Width: 6
VWidth: 0
Flags: W
VStem: 2 2<-2.09 4.18>
LayerCount: 2
Back
Fore
SplineSet
2 4 m 25
 4 4 l 25
 4 -2 l 25
 2 -2 l 25
 2 4 l 25
EndSplineSet
EndChar

StartChar: uni257C
Encoding: 530 9596 530
Width: 6
VWidth: 0
Flags: W
HStem: 2 2<2.09 6.25> 3 1<0 2.09>
LayerCount: 2
Back
Fore
SplineSet
0 4 m 25x40
 6 4 l 25
 6 2 l 25
 2 2 l 25x80
 2 3 l 25
 0 3 l 25
 0 4 l 25x40
EndSplineSet
EndChar

StartChar: uni257D
Encoding: 531 9597 531
Width: 6
VWidth: 0
Flags: W
VStem: 2 2<-2.09 4.18> 2 1<4.18 8.34>
LayerCount: 2
Back
Fore
SplineSet
2 8 m 1x40
 3 8 l 5
 3 4 l 1x40
 4 4 l 25
 4 -2 l 25
 2 -2 l 1x80
 2 8 l 1x40
EndSplineSet
EndChar

StartChar: uni257E
Encoding: 532 9598 532
Width: 6
VWidth: 0
Flags: W
HStem: 2 2<0 3.12> 3 1<3.12 6.25>
LayerCount: 2
Back
Fore
SplineSet
0 4 m 25x80
 6 4 l 25
 6 3 l 25
 3 3 l 25x40
 3 2 l 25
 0 2 l 25
 0 4 l 25x80
EndSplineSet
EndChar

StartChar: uni257F
Encoding: 533 9599 533
Width: 6
VWidth: 0
Flags: W
VStem: 2 2<3.12 8.34> 2 1<-2.09 3.12>
LayerCount: 2
Back
Fore
SplineSet
2 8 m 1x80
 4 8 l 5
 4 3 l 1x80
 3 3 l 25
 3 -2 l 25
 2 -2 l 1x40
 2 8 l 1x80
EndSplineSet
EndChar

StartChar: block
Encoding: 534 9608 534
Width: 6
VWidth: 0
Flags: W
VStem: 0 6<-2.09 8.34>
LayerCount: 2
Back
Fore
SplineSet
0 8 m 1
 6 8 l 5
 6 -2 l 1
 0 -2 l 1
 0 8 l 1
EndSplineSet
EndChar

StartChar: ltshade
Encoding: 535 9617 535
Width: 6
VWidth: 0
Flags: W
HStem: -2 1<0 1.04 3.12 4.18> -1 1<2.09 3.12 5.21 6.25> 0 1<1.04 2.09 4.18 5.21> 1 1<0 1.04 3.12 4.18> 2 1<2.09 3.12 5.21 6.25> 3 1<1.04 2.09 4.18 5.21> 4 1<0 1.04 3.12 4.18> 5 1<2.09 3.12 5.21 6.25> 6 1<1.04 2.09 4.18 5.21> 7 1<0 1.04 3.12 4.18>
VStem: 0 1<-2.09 -1.04 1.04 2.09 4.18 5.21 7.29 8.34> 1 1<0 1.04 3.12 4.18 6.25 7.29> 2 1<-1.04 0 2.09 3.12 5.21 6.25> 3 1<-2.09 -1.04 1.04 2.09 4.18 5.21 7.29 8.34> 4 1<0 1.04 3.12 4.18 6.25 7.29> 5 1<-1.04 0 2.09 3.12 5.21 6.25>
LayerCount: 2
Back
Fore
SplineSet
0 -1 m 25x8020
 1 -1 l 25
 1 -2 l 25
 0 -2 l 25
 0 -1 l 25x8020
0 2 m 25x1020
 1 2 l 25x1020
 1 1 l 25x2020
 2 1 l 25x2010
 2 0 l 25x4010
 3 0 l 25x4008
 3 -1 l 25x8008
 4 -1 l 25
 4 -2 l 25
 3 -2 l 25x8004
 3 -1 l 25x8008
 2 -1 l 25x4008
 2 0 l 25x4010
 1 0 l 25x2010
 1 1 l 25x2020
 0 1 l 25
 0 2 l 25x1020
0 5 m 25x0220
 1 5 l 25x0220
 1 4 l 25x0420
 2 4 l 25x0410
 2 3 l 25x0810
 3 3 l 25x0808
 3 2 l 25x1008
 4 2 l 25x1004
 4 1 l 25x2004
 5 1 l 25x2002
 5 0 l 25x4002
 6 0 l 25
 6 -1 l 25
 5 -1 l 25x4001
 5 0 l 25x4002
 4 0 l 25x2002
 4 1 l 25x2004
 3 1 l 25x1004
 3 2 l 25x1008
 2 2 l 25x0808
 2 3 l 25x0810
 1 3 l 25x0410
 1 4 l 25x0420
 0 4 l 25
 0 5 l 25x0220
3 8 m 25x0044
 4 8 l 25x0044
 4 7 l 25x0084
 5 7 l 25x0082
 5 6 l 25x0102
 6 6 l 25
 6 5 l 25
 5 5 l 25x0101
 5 6 l 25x0102
 4 6 l 25x0082
 4 7 l 25x0084
 3 7 l 25
 3 8 l 25x0044
0 8 m 25x0060
 1 8 l 25x0060
 1 7 l 25x00a0
 2 7 l 25x0090
 2 6 l 25x0110
 3 6 l 25x0108
 3 5 l 25x0208
 4 5 l 25x0204
 4 4 l 25x0404
 5 4 l 25x0402
 5 3 l 25x0802
 6 3 l 25
 6 2 l 25
 5 2 l 25x0801
 5 3 l 25x0802
 4 3 l 25x0402
 4 4 l 25x0404
 3 4 l 25x0204
 3 5 l 25x0208
 2 5 l 25x0108
 2 6 l 25x0110
 1 6 l 25x0090
 1 7 l 25x00a0
 0 7 l 25
 0 8 l 25x0060
EndSplineSet
EndChar

StartChar: shade
Encoding: 536 9618 536
Width: 6
VWidth: 0
Flags: W
HStem: -2 1<1.04 2.09 3.12 4.18 5.21 6.25> -1 1<0 1.04 2.09 3.12 4.18 5.21> 0 1<1.04 2.09 3.12 4.18 5.21 6.25> 1 1<0 1.04 2.09 3.12 4.18 5.21> 2 1<1.04 2.09 3.12 4.18 5.21 6.25> 3 1<0 1.04 2.09 3.12 4.18 5.21> 4 1<1.04 2.09 3.12 4.18 5.21 6.25> 5 1<0 1.04 2.09 3.12 4.18 5.21> 6 1<1.04 2.09 3.12 4.18 5.21 6.25> 7 1<0 1.04 2.09 3.12 4.18 5.21>
VStem: 0 1<-1.04 0 1.04 2.09 3.12 4.18 5.21 6.25 7.29 8.34> 1 1<-2.09 -1.04 0 1.04 2.09 3.12 4.18 5.21 6.25 7.29> 2 1<-1.04 0 1.04 2.09 3.12 4.18 5.21 6.25 7.29 8.34> 3 1<-2.09 -1.04 0 1.04 2.09 3.12 4.18 5.21 6.25 7.29> 4 1<-1.04 0 1.04 2.09 3.12 4.18 5.21 6.25 7.29 8.34> 5 1<-2.09 -1.04 0 1.04 2.09 3.12 4.18 5.21 6.25 7.29>
LayerCount: 2
Back
Fore
SplineSet
0 8 m 25x0060
 1 8 l 25x0060
 1 7 l 25x00a0
 2 7 l 25x0090
 2 8 l 25
 3 8 l 25x0048
 3 7 l 25x0088
 4 7 l 25x0084
 4 8 l 25
 5 8 l 25x0042
 5 7 l 25x0082
 6 7 l 25
 6 6 l 25x0081
 5 6 l 25x0102
 5 7 l 25x0082
 4 7 l 25x0084
 4 6 l 25x0104
 3 6 l 25x0108
 3 7 l 25x0088
 2 7 l 25x0090
 2 6 l 25x0110
 3 6 l 25x0108
 3 5 l 25x0208
 4 5 l 25x0204
 4 6 l 25x0104
 5 6 l 25x0102
 5 5 l 25x0202
 6 5 l 25
 6 4 l 25x0201
 5 4 l 25x0402
 5 5 l 25x0202
 4 5 l 25x0204
 4 4 l 25x0404
 3 4 l 25x0408
 3 5 l 25x0208
 2 5 l 25x0210
 2 4 l 25x0410
 3 4 l 25x0408
 3 3 l 25x0808
 4 3 l 25x0804
 4 4 l 25x0404
 5 4 l 25x0402
 5 3 l 25x0802
 6 3 l 25
 6 2 l 25x0801
 5 2 l 25x1002
 5 3 l 25x0802
 4 3 l 25x0804
 4 2 l 25x1004
 3 2 l 25x1008
 3 3 l 25x0808
 2 3 l 25x0810
 2 2 l 25x1010
 3 2 l 25x1008
 3 1 l 25x2008
 4 1 l 25x2004
 4 2 l 25x1004
 5 2 l 25x1002
 5 1 l 25x2002
 6 1 l 25
 6 0 l 25x2001
 5 0 l 25x4002
 5 1 l 25x2002
 4 1 l 25x2004
 4 0 l 25x4004
 3 0 l 25x4008
 3 1 l 25x2008
 2 1 l 25x2010
 2 0 l 25x4010
 3 0 l 25x4008
 3 -1 l 25x8008
 4 -1 l 25x8004
 4 0 l 25x4004
 5 0 l 25x4002
 5 -1 l 25x8002
 6 -1 l 25
 6 -2 l 25
 5 -2 l 25x8001
 5 -1 l 25x8002
 4 -1 l 25
 4 -2 l 25
 3 -2 l 25x8004
 3 -1 l 25x8008
 2 -1 l 25x8010
 2 0 l 25x4010
 1 0 l 25x4020
 1 -1 l 25x8020
 2 -1 l 25
 2 -2 l 25
 1 -2 l 25x8010
 1 -1 l 25x8020
 0 -1 l 25
 0 0 l 25
 1 0 l 25x4020
 1 1 l 25x2020
 2 1 l 25x2010
 2 2 l 25x1010
 1 2 l 25x1020
 1 1 l 25x2020
 0 1 l 25
 0 2 l 25
 1 2 l 25x1020
 1 3 l 25x0820
 2 3 l 25x0810
 2 4 l 25x0410
 1 4 l 25x0420
 1 3 l 25x0820
 0 3 l 25
 0 4 l 25
 1 4 l 25x0420
 1 5 l 25x0220
 2 5 l 25x0210
 2 6 l 25x0110
 1 6 l 25x0120
 1 5 l 25x0220
 0 5 l 25
 0 6 l 25
 1 6 l 25x0120
 1 7 l 25x00a0
 0 7 l 25
 0 8 l 25x0060
EndSplineSet
EndChar

StartChar: filledbox
Encoding: 537 9632 537
Width: 6
VWidth: 0
Flags: W
HStem: -2 5<0 6.25>
VStem: 0 6<-2.09 3.12>
LayerCount: 2
Back
Fore
SplineSet
0 3 m 25
 6 3 l 25
 6 -2 l 25
 0 -2 l 25
 0 3 l 25
EndSplineSet
EndChar

StartChar: uni25B6
Encoding: 538 9654 538
Width: 6
VWidth: 0
Flags: W
HStem: 0 0G<1.04 2.09> 3 1<4.18 5.21> 7 0G<1.04 2.09>
VStem: 1 3<2.09 3.12 4.18 5.21> 1 2<1.04 2.09 5.21 6.25> 1 1<0 1.04 6.25 7.29>
LayerCount: 2
Back
Fore
SplineSet
1 7 m 25xe4
 2 7 l 25
 2 6 l 25xe4
 3 6 l 25
 3 5 l 25xe8
 4 5 l 25
 4 4 l 25
 5 4 l 25
 5 3 l 25
 4 3 l 25
 4 2 l 25xf0
 3 2 l 25
 3 1 l 25xe8
 2 1 l 25
 2 0 l 25
 1 0 l 25
 1 7 l 25xe4
EndSplineSet
EndChar

StartChar: uni25C0
Encoding: 539 9664 539
Width: 6
VWidth: 0
Flags: W
HStem: 0 0G<4.18 5.21> 3 1<1.04 2.09> 7 0G<4.18 5.21>
VStem: 2 3<2.09 3.12 4.18 5.21> 3 2<1.04 2.09 5.21 6.25> 4 1<0 1.04 6.25 7.29>
LayerCount: 2
Back
Fore
SplineSet
4 7 m 25xe4
 5 7 l 25
 5 0 l 25
 4 0 l 25
 4 1 l 25xe4
 3 1 l 25
 3 2 l 25xe8
 2 2 l 25
 2 3 l 25
 1 3 l 25
 1 4 l 25
 2 4 l 25
 2 5 l 25xf0
 3 5 l 25
 3 6 l 25xe8
 4 6 l 25
 4 7 l 25xe4
EndSplineSet
EndChar

StartChar: diamond
Encoding: 540 9830 540
Width: 6
VWidth: 0
Flags: W
HStem: 0 0G<2.09 3.12> 2 3<0 1.04 4.18 5.21> 7 0G<2.09 3.12>
VStem: 1 3<1.04 2.09 5.21 6.25> 2 1<0 1.04 6.25 7.29>
LayerCount: 2
Back
Fore
SplineSet
1 6 m 25xf0
 2 6 l 25
 2 7 l 25
 3 7 l 25
 3 6 l 25xe8
 4 6 l 25
 4 5 l 25
 5 5 l 25
 5 2 l 25
 4 2 l 25
 4 1 l 25xf0
 3 1 l 25
 3 0 l 25
 2 0 l 25
 2 1 l 25xe8
 1 1 l 25
 1 2 l 25
 0 2 l 25
 0 5 l 25
 1 5 l 25
 1 6 l 25xf0
EndSplineSet
EndChar

StartChar: uni2714
Encoding: 541 10004 541
Width: 6
VWidth: 0
Flags: W
HStem: 0 1<2.09 3.12> 1 1<1.04 2.09> 5 1<5.21 6.25>
VStem: 1 1<1.04 2.09> 3 1<1.04 3.12> 4 1<3.12 5.21> 5 1<5.21 6.25>
LayerCount: 2
Back
Fore
SplineSet
1 2 m 25x78
 2 2 l 25x78
 2 1 l 25
 3 1 l 25
 3 3 l 25
 4 3 l 25xb8
 4 5 l 25
 5 5 l 25xb4
 5 6 l 25
 6 6 l 25
 6 5 l 25xb2
 5 5 l 25
 5 3 l 25xb4
 4 3 l 25
 4 1 l 25x78
 3 1 l 25
 3 0 l 25
 2 0 l 25
 2 1 l 25xb8
 1 1 l 25
 1 2 l 25x78
EndSplineSet
EndChar

StartChar: uni271A
Encoding: 542 10010 542
Width: 6
VWidth: 0
Flags: W
HStem: 0 0G<2.09 4.18> 2 2<0 2.09 4.18 6.25> 6 0G<2.09 4.18>
VStem: 2 2<0 2.09 4.18 6.25>
LayerCount: 2
Back
Fore
SplineSet
0 4 m 25
 2 4 l 25
 2 6 l 25
 4 6 l 25
 4 4 l 25
 6 4 l 25
 6 2 l 25
 4 2 l 25
 4 0 l 25
 2 0 l 25
 2 2 l 25
 0 2 l 25
 0 4 l 25
EndSplineSet
EndChar

StartChar: H18533
Encoding: 543 9679 543
Width: 6
VWidth: 0
Flags: W
HStem: 2 3<0 1.04 4.18 5.21> 6 0G<1.04 4.18>
VStem: 1 3<1.04 2.09 5.21 6.25>
LayerCount: 2
Back
Fore
SplineSet
1 6 m 25
 4 6 l 25
 4 5 l 25
 5 5 l 25
 5 2 l 25
 4 2 l 25
 4 1 l 25
 1 1 l 25
 1 2 l 25
 0 2 l 25
 0 5 l 25
 1 5 l 25
 1 6 l 25
EndSplineSet
EndChar

